<?xml version="1.0" encoding="utf-8"?>
<!-- Generator: Adobe Illustrator 24.1.1, SVG Export Plug-In . SVG Version: 6.00 Build 0)  -->
<svg version="1.1" id="레이어_1" xmlns="http://www.w3.org/2000/svg" xmlns:xlink="http://www.w3.org/1999/xlink" x="0px"
	 y="0px" viewBox="0 0 841.89 315" style="enable-background:new 0 0 841.89 315;" xml:space="preserve">
<style type="text/css">
	.st0{clip-path:url(#cliping_x5F_g_1_);fill:none;stroke:#000000;stroke-width:22;stroke-miterlimit:10;}
	.st1{clip-path:url(#cliping_x5F_g_1_);fill:none;stroke:#000000;stroke-width:22;}
	.st2{clip-path:url(#cliping_x5F_a_1_);fill:none;stroke:#000000;stroke-width:22;stroke-miterlimit:10;}
	.st3{clip-path:url(#cliping_x5F_a_1_);fill:none;stroke:#000000;stroke-width:22;}
	.st4{clip-path:url(#cliping_x5F_y_1_);fill:none;stroke:#000000;stroke-width:22;}
	.st5{clip-path:url(#cliping_x5F_e_1_);fill:none;stroke:#000000;stroke-width:21;}
	.st6{clip-path:url(#cliping_x5F_o_1_);fill:none;stroke:#000000;stroke-width:18;}
	.st7{clip-path:url(#cliping_x5F_n_1_);fill:none;stroke:#000000;stroke-width:22;}
</style>
<g id="l_x5F_g">
	<defs>
		<path id="cliping_x5F_g" d="M120.87,144.59c-5.01,3.98-10.19,7.19-15.54,9.63c-5.35,2.44-10.48,3.67-15.39,3.67
			c-3.66,0-7.32-0.63-10.99-1.88c-3.66-1.25-6.99-3.33-9.97-6.22c-2.99-2.9-5.42-6.74-7.3-11.51c-1.88-4.78-2.82-10.69-2.82-17.74
			c0-8.53,1.3-16.71,3.9-24.56c2.6-7.84,6.07-15.15,10.41-21.91c4.34-6.76,9.3-12.93,14.89-18.5c5.59-5.57,11.35-10.32,17.27-14.24
			c5.93-3.92,11.83-6.96,17.71-9.12c5.88-2.16,11.22-3.24,16.04-3.24c4.72,0,8.75,0.6,12.07,1.79c3.32,1.19,6.14,2.67,8.46,4.43
			c2.31,1.76,4.14,3.67,5.49,5.71c1.35,2.05,2.46,3.98,3.32,5.8l7.81-12.11l4.77,3.75c0,0.11-0.77,1.91-2.31,5.37
			c-1.54,3.47-3.57,8.1-6.07,13.9c-2.51,5.8-5.42,12.59-8.75,20.38c-3.32,7.79-6.79,16.06-10.41,24.81
			c-3.61,8.76-7.28,17.79-10.99,27.11c-3.71,9.32-7.25,18.48-10.62,27.46c8.77-5.91,16.48-11.6,23.13-17.05
			c6.65-5.46,12.6-10.97,17.85-16.54c5.25-5.57,10-11.37,14.24-17.39c4.24-6.02,8.33-12.56,12.29-19.61l5.35,4.78
			c-3.85,7.39-8.02,14.24-12.5,20.55c-4.48,6.31-9.73,12.56-15.76,18.76c-6.02,6.2-13.06,12.56-21.1,19.1
			c-8.05,6.54-17.61,13.73-28.69,21.57c-9.16,26.49-17.97,48.4-26.45,65.74c-8.48,17.34-16.5,31.06-24.07,41.18
			c-7.57,10.12-14.6,17.22-21.1,21.32c-6.5,4.09-12.36,6.14-17.56,6.14c-2.12,0-4.41-0.31-6.87-0.94c-2.46-0.63-4.75-1.85-6.87-3.67
			c-2.12-1.82-3.88-4.32-5.28-7.5c-1.4-3.18-2.1-7.28-2.1-12.28c0-9.55,2.15-18.99,6.43-28.31c4.29-9.32,10.5-18.59,18.65-27.8
			c8.14-9.21,18.12-18.36,29.92-27.46c11.8-9.1,25.17-18.25,40.11-27.46c1.83-4.89,3.52-9.52,5.06-13.9
			C118.07,152.23,119.52,148.23,120.87,144.59z M37.47,297.22c3.66,0,7.47-1.59,11.42-4.77c3.95-3.18,7.95-7.53,12-13.05
			c4.05-5.52,8.04-11.91,12-19.19c3.95-7.28,7.85-15.04,11.71-23.28c3.85-8.24,7.54-16.69,11.06-25.32
			c3.52-8.64,6.87-17.11,10.05-25.41c-14.36,8.87-26.62,18.1-36.79,27.71c-10.17,9.61-18.48,18.78-24.93,27.54
			c-6.45,8.75-11.15,16.65-14.09,23.7c-2.94,7.05-4.41,12.45-4.41,16.2c0,4.66,0.87,8.47,2.6,11.43
			C29.81,295.74,32.94,297.22,37.47,297.22z M128.39,125.83c2.6-5.8,5.18-11.51,7.73-17.14c2.55-5.63,5.2-11.26,7.95-16.88
			c2.75-5.63,5.68-11.4,8.82-17.31c3.13-5.91,6.62-12.05,10.48-18.42c-0.19-1.71-0.68-3.47-1.45-5.29c-0.77-1.82-1.83-3.5-3.18-5.03
			c-1.35-1.53-3.09-2.81-5.2-3.84c-2.12-1.02-4.63-1.53-7.52-1.53c-3.28,0-7.01,0.51-11.2,1.53c-4.19,1.02-8.6,2.79-13.23,5.29
			c-4.63,2.5-9.32,5.86-14.09,10.06c-4.77,4.21-9.42,9.49-13.95,15.86c-6.65,9.32-11.76,18.62-15.32,27.88
			c-3.57,9.27-5.35,17.71-5.35,25.32c0,7.39,1.59,12.99,4.77,16.8c3.18,3.81,7.52,5.71,13.01,5.71c5.78,0,11.93-2.1,18.43-6.31
			C115.59,138.34,122.03,132.77,128.39,125.83z"/>
	</defs>
	<clipPath id="cliping_x5F_g_1_">
		<use xlink:href="#cliping_x5F_g"  style="overflow:visible;"/>
	</clipPath>
	<path id="g2" class="st0" d="M181.46,30.67c0,0-30.78,61.38-39.15,80.24c-16.25,36.57-57.4,145.07-60.11,149.68
		c-4.66,7.92-23.56,32.87-32.85,38.21c-9.3,5.35-21.62,0.76-26.1-6.52c-7.84-12.75,4.84-44.71,10.74-51.77
		c6.04-7.22,57.06-50.29,57.06-50.29s66.98-45.79,75.73-54.99c8.75-9.2,36.39-45.05,36.39-45.05"/>
	<path id="g1_1_" class="st1" d="M152.03,50.83c0,0,7.29-18.35-10.42-16.95c-21.87,1.73-39.82,16.29-41.94,18.64
		c-2.12,2.35-25.15,30.67-28.88,38.87s-7.3,35.24-3.27,44.32c4.03,9.08,9.08,17.86,24.58,16.5s26.03-32.11,26.03-32.11"/>
</g>
<g id="l_x5F_a">
	<defs>
		<path id="cliping_x5F_a" d="M314.27,36.98c-1.25,2.96-3.01,6.82-5.28,11.6c-2.26,4.78-4.7,10.03-7.3,15.77
			c-2.6,5.74-5.23,11.74-7.88,17.99c-2.65,6.25-5.06,12.36-7.23,18.33c-2.17,5.97-3.95,11.6-5.35,16.88
			c-1.4,5.29-2.1,9.75-2.1,13.39c0,3.64,0.6,6,1.81,7.08c1.2,1.08,2.77,1.62,4.7,1.62c2.79,0,5.66-0.96,8.6-2.9
			c2.94-1.93,5.83-4.43,8.67-7.5c2.84-3.07,5.61-6.54,8.31-10.4c2.7-3.86,5.23-7.76,7.59-11.68c2.36-3.92,4.5-7.67,6.43-11.26
			c1.93-3.58,3.56-6.62,4.91-9.12l5.2,4.78c-1.64,3.64-3.57,7.56-5.78,11.77c-2.22,4.21-4.65,8.44-7.3,12.7
			c-2.65,4.26-5.52,8.39-8.6,12.36c-3.09,3.98-6.34,7.5-9.76,10.57c-3.42,3.07-7.01,5.52-10.77,7.33
			c-3.76,1.82-7.61,2.73-11.56,2.73c-5.78,0-10.02-2.05-12.72-6.14c-2.7-4.09-4.05-9.38-4.05-15.86c0-0.45,0.02-1.45,0.07-2.98
			c0.05-1.53,0.17-2.76,0.36-3.67c-4.82,7.16-9.42,13.08-13.8,17.74c-4.39,4.66-8.63,8.36-12.72,11.09
			c-4.1,2.73-8.05,4.63-11.85,5.71c-3.81,1.08-7.44,1.62-10.91,1.62c-3.66,0-7.11-0.71-10.34-2.13c-3.23-1.42-6.07-3.5-8.53-6.22
			c-2.46-2.73-4.38-6.08-5.78-10.06c-1.4-3.98-2.1-8.58-2.1-13.81c0-6.48,1.23-13.9,3.69-22.25c2.46-8.36,6.82-17.37,13.08-27.03
			c5.3-8.3,10.82-15.29,16.55-20.98c5.73-5.68,11.37-10.26,16.91-13.73c5.54-3.47,10.82-5.94,15.83-7.42
			c5.01-1.48,9.49-2.22,13.44-2.22c8.86,0,15.56,1.73,20.09,5.2c4.53,3.47,7.27,8.78,8.24,15.95c1.93-2.84,3.95-5.68,6.07-8.53
			c2.12-2.84,4.29-5.74,6.5-8.7L314.27,36.98z M269.9,101.79c1.25-2.39,2.79-5.43,4.63-9.12c1.83-3.69,3.76-7.5,5.78-11.43
			c2.02-3.92,4-7.7,5.93-11.34c1.93-3.64,3.61-6.71,5.06-9.21c0-1.02-0.12-2.67-0.36-4.95c-0.24-2.27-0.89-4.58-1.95-6.91
			c-1.06-2.33-2.75-4.35-5.06-6.05c-2.31-1.71-5.54-2.56-9.68-2.56c-2.99,0-6.34,0.54-10.05,1.62c-3.71,1.08-7.66,2.9-11.85,5.46
			c-4.19,2.56-8.51,5.94-12.94,10.15c-4.43,4.21-8.87,9.44-13.3,15.69c-6.65,9.44-11.78,18.9-15.39,28.39
			c-3.61,9.49-5.42,18.05-5.42,25.67c0,6.48,1.25,11.48,3.76,15.01c2.5,3.53,6.07,5.29,10.7,5.29c5.3,0,10.26-1.39,14.89-4.18
			c4.63-2.78,8.96-6.4,13.01-10.83c4.05-4.43,7.9-9.35,11.56-14.75C262.86,112.33,266.43,107.02,269.9,101.79z"/>
	</defs>
	<clipPath id="cliping_x5F_a_1_">
		<use xlink:href="#cliping_x5F_a"  style="overflow:visible;"/>
	</clipPath>
	<path id="a2" class="st2" d="M313.22,36.44c0,0-18.72,26.88-30.64,51.03c-8.56,17.36-11.37,32.63-11.65,38.68
		c-0.43,9.24,1.4,17.04,12.58,18.41c11.18,1.36,26.56-17.48,26.56-17.48l25.3-40.43"/>
	<path id="a1_1_" class="st3" d="M282.12,54.15c0,0,9.67-20.04-7.92-18.41c-22.08,2.05-30.79,7.17-39.17,14.29
		c-7.63,6.48-31.94,42.57-35.16,57.01s-6.19,28.88,1.4,37.75c7.59,8.87,24.59,7.76,34.49,2.7c4.86-2.48,20.85-35.09,26.56-49.54"/>
</g>
<g id="l_x5F_y">
	<defs>
		<path id="cliping_x5F_y" d="M394.2,112.36c-3.76,4.89-7.57,9.41-11.42,13.56c-3.85,4.15-7.66,7.76-11.42,10.83
			c-3.76,3.07-7.44,5.49-11.06,7.25c-3.61,1.76-7.11,2.64-10.48,2.64c-3.76,0-7.15-0.82-10.19-2.47c-3.04-1.65-5.64-4.01-7.81-7.08
			c-2.17-3.07-3.83-6.71-4.99-10.91c-1.16-4.2-1.73-8.87-1.73-13.98c0-6.82,1.21-13.93,3.61-21.32c2.41-7.39,5.52-14.58,9.32-21.57
			c3.81-6.99,8.04-13.61,12.72-19.87c4.67-6.25,9.23-11.65,13.66-16.2l6.22,5.12c-1.16,1.93-2.75,4.6-4.77,8.01
			c-2.02,3.41-4.19,7.36-6.5,11.85c-2.31,4.49-4.65,9.35-7.01,14.58c-2.36,5.23-4.51,10.57-6.43,16.03
			c-1.93,5.46-3.49,10.91-4.7,16.37c-1.21,5.46-1.81,10.57-1.81,15.35c0,2.28,0.17,4.46,0.51,6.57c0.34,2.11,0.91,3.95,1.73,5.54
			c0.82,1.59,1.9,2.84,3.25,3.75c1.35,0.91,3.08,1.36,5.2,1.36c3.37,0,7.06-1.22,11.06-3.67c4-2.44,8.14-5.8,12.43-10.06
			c4.29-4.26,8.67-9.24,13.15-14.92c4.48-5.68,8.89-11.77,13.23-18.25c4.34-6.48,8.53-13.16,12.58-20.04
			c4.05-6.88,7.81-13.67,11.28-20.38c3.08-6.02,6.17-12.08,9.25-18.16c3.08-6.08,6.17-12.02,9.25-17.82l6.79,4.09
			c-0.1,0.23-0.99,2.36-2.67,6.4c-1.69,4.04-3.93,9.49-6.72,16.37c-2.8,6.88-6.05,14.84-9.76,23.87
			c-3.71,9.04-7.64,18.65-11.78,28.82c-4.14,10.18-8.36,20.61-12.65,31.29c-4.29,10.69-8.46,21.09-12.5,31.21
			c13.59-8.87,25.9-19.38,36.93-31.55c11.03-12.16,21.5-24.9,29.4-38.2l5.35,4.78c-8.38,15.12-19.79,29.08-32.22,41.87
			c-12.43,12.79-27.42,25.04-44.95,36.75c-8,20.23-15.83,38.71-23.49,55.42s-15.32,31.04-22.98,42.97
			c-7.66,11.94-15.32,21.17-22.98,27.71c-7.66,6.54-15.44,9.81-23.34,9.81c-5.2,0-9.54-2.05-13.01-6.14
			c-3.47-4.09-5.2-9.95-5.2-17.56c0-6.37,1.21-12.9,3.61-19.61c2.41-6.71,5.73-13.45,9.97-20.21c4.24-6.77,9.28-13.47,15.1-20.12
			c5.83-6.65,12.19-13.05,19.08-19.19c6.89-6.14,14.12-12,21.68-17.56c7.56-5.57,15.25-10.69,23.05-15.35
			c2.02-5,4.19-10.26,6.5-15.77s4.58-10.86,6.79-16.03c2.22-5.17,4.36-10.06,6.43-14.67C390.85,119.26,392.66,115.43,394.2,112.36z
			 M362.4,186.88c-11.08,8.07-21.37,16.68-30.86,25.84c-9.49,9.15-17.73,18.19-24.72,27.11c-6.99,8.92-12.45,17.31-16.41,25.15
			c-3.95,7.84-5.93,14.5-5.93,19.95c0,3.64,0.89,6.54,2.67,8.7c1.78,2.16,4.07,3.24,6.87,3.24c3.76,0,7.64-1.51,11.64-4.52
			c4-3.01,8-7.14,12-12.36c4-5.23,7.97-11.4,11.92-18.5c3.95-7.11,7.83-14.72,11.64-22.85c3.81-8.13,7.49-16.6,11.06-25.41
			C355.85,204.42,359.22,195.64,362.4,186.88z"/>
	</defs>
	<clipPath id="cliping_x5F_y_1_">
		<use xlink:href="#cliping_x5F_y"  style="overflow:visible;"/>
	</clipPath>
	<path id="y2" class="st4" d="M448.49,13.14l-39.61,82.49l-30.99,73.28c0,0-42.95,96.31-48.19,104.7
		c-5.24,8.39-20.32,25.68-29.4,27.78c-9.09,2.1-18.33-5.35-19.98-16.78c-1.66-11.43,10.98-38.46,19.98-48.25
		c7.39-8.03,33.83-36.06,41.24-41.24c7.42-5.18,55.05-36.35,55.05-36.35s35.83-27.79,45.96-42.47
		c7.02-10.17,22.72-31.63,22.72-31.63"/>
	<path id="y1_1_" class="st4" d="M369.32,30.28c0,0-29.3,41.07-33.15,56.44c-2.2,8.8-8.06,31.81-3.65,41.94
		c4.41,10.14,13.84,13.28,25.32,11.18c11.48-2.1,34.91-32.17,43.57-42.36"/>
</g>
<g id="l_x5F_e">
	<defs>
		<path id="cliping_x5F_e" d="M469.37,111.51c-0.19,1.36-0.34,2.73-0.43,4.09c-0.1,1.36-0.14,2.73-0.14,4.09
			c0,4.09,0.51,7.99,1.52,11.68c1.01,3.7,2.5,6.94,4.48,9.72c1.97,2.79,4.43,4.97,7.37,6.57c2.94,1.59,6.29,2.39,10.05,2.39
			c12.62,0,24.81-5.06,36.57-15.18c11.76-10.12,23.46-26.15,35.12-48.09l4.91,5.12c-6.36,12.51-12.82,23.05-19.37,31.63
			c-6.55,8.59-13.08,15.55-19.59,20.89c-6.5,5.35-12.89,9.21-19.15,11.6c-6.26,2.39-12.24,3.58-17.92,3.58
			c-4.14,0-8.53-0.68-13.15-2.05c-4.63-1.36-8.89-3.64-12.79-6.82c-3.9-3.18-7.13-7.45-9.68-12.79c-2.55-5.34-3.83-11.99-3.83-19.95
			c0-8.53,1.23-16.74,3.69-24.64c2.46-7.9,5.66-15.26,9.61-22.08c3.95-6.82,8.48-13.05,13.59-18.67
			c5.11-5.63,10.29-10.43,15.54-14.41c5.25-3.98,10.38-7.08,15.39-9.29c5.01-2.22,9.44-3.33,13.3-3.33c2.51,0,5.06,0.46,7.66,1.36
			c2.6,0.91,4.94,2.33,7.01,4.26c2.07,1.93,3.76,4.49,5.06,7.67c1.3,3.18,1.95,6.99,1.95,11.43c0,6.03-1.18,11.68-3.54,16.97
			c-2.36,5.29-5.52,10.18-9.47,14.67c-3.95,4.49-8.53,8.53-13.73,12.11c-5.2,3.58-10.65,6.62-16.33,9.12
			c-5.69,2.5-11.42,4.49-17.2,5.97C480.06,110.6,474.57,111.39,469.37,111.51z M470.52,104.17c6.45-0.79,12.53-2.39,18.21-4.77
			c5.68-2.39,10.89-5.31,15.61-8.78c4.72-3.47,8.94-7.25,12.65-11.34c3.71-4.09,6.82-8.24,9.32-12.45c2.51-4.2,4.43-8.24,5.78-12.11
			c1.35-3.86,2.02-7.33,2.02-10.4c0-3.07-0.7-5.51-2.1-7.33c-1.4-1.82-3.06-2.73-4.99-2.73c-4.24,0-9.01,1.79-14.31,5.37
			c-5.3,3.58-10.6,8.53-15.9,14.84c-5.3,6.31-10.29,13.73-14.96,22.25C477.2,85.24,473.41,94.4,470.52,104.17z"/>
	</defs>
	<clipPath id="cliping_x5F_e_1_">
		<use xlink:href="#cliping_x5F_e"  style="overflow:visible;"/>
	</clipPath>
	<path id="e" class="st5" d="M470.52,107.97c0,0-5.79-0.58,11.98-1.16c13.96-0.46,32.89-15.68,39.38-22.83
		c9.09-10.02,16.34-22.53,18.41-28.19s1.43-21.52-6.17-25.1c-13.79-6.5-36.94,9.96-46.72,21.14c-9.55,10.92-23.13,34.15-25.17,47.3
		s0.8,33.34,5.36,42.17s12.57,13.28,26.1,13.28s33.31-10.35,42.41-19.81c9.6-9.98,35.18-50.33,35.18-50.33"/>
</g>
<g id="l_x5F_o">
	<defs>
		<path id="cliping_x5F_o" d="M645.42,104c0.38,0.11,0.77,0.17,1.16,0.17c0.38,0,0.82,0,1.3,0c2.7,0,5.15-0.31,7.37-0.94
			c2.22-0.62,4.26-1.62,6.14-2.98c1.88-1.36,3.69-3.15,5.42-5.37c1.73-2.22,3.42-4.92,5.06-8.1l5.2,4.78
			c-4.63,7.73-9.4,13.13-14.31,16.2c-4.91,3.07-10.12,4.6-15.61,4.6c-2.02,0-3.81-0.23-5.35-0.68c-4.14,8.19-8.58,15.15-13.3,20.89
			c-4.72,5.74-9.54,10.43-14.45,14.07c-4.91,3.64-9.78,6.28-14.6,7.93c-4.82,1.65-9.3,2.47-13.44,2.47c-4.24,0-8.17-0.88-11.78-2.64
			c-3.61-1.76-6.72-4.29-9.32-7.59c-2.6-3.3-4.63-7.22-6.07-11.77c-1.45-4.55-2.17-9.66-2.17-15.35c0-5.68,0.77-11.48,2.31-17.39
			c1.54-5.91,3.64-11.77,6.29-17.57c2.65-5.8,5.76-11.4,9.32-16.8c3.56-5.4,7.42-10.43,11.56-15.09c4.14-4.66,8.43-8.87,12.86-12.62
			c4.43-3.75,8.86-6.82,13.3-9.21l4.63,7.16c-5.11,4.32-10.29,9.78-15.54,16.37c-5.25,6.6-10.02,13.81-14.31,21.66
			c-4.29,7.84-7.81,16-10.55,24.47c-2.75,8.47-4.12,16.69-4.12,24.64c0,7.16,1.35,12.7,4.05,16.63c2.7,3.92,6.79,5.88,12.29,5.88
			c4.24,0,8.43-1.02,12.58-3.07c4.14-2.05,8.19-4.83,12.14-8.36c3.95-3.52,7.76-7.7,11.42-12.53c3.66-4.83,7.13-9.98,10.41-15.43
			c-2.8-1.93-5.25-4.52-7.37-7.76c-2.12-3.24-3.9-6.93-5.35-11.09c-1.45-4.15-2.53-8.61-3.25-13.39c-0.72-4.78-1.08-9.66-1.08-14.67
			c0-5,0.53-9.72,1.59-14.15c1.06-4.43,2.53-8.33,4.41-11.68c1.88-3.35,4.07-6,6.58-7.93c2.5-1.93,5.25-2.9,8.24-2.9
			c2.7,0,5.11,0.83,7.23,2.47c2.12,1.65,3.9,3.92,5.35,6.82c1.45,2.9,2.55,6.34,3.32,10.32c0.77,3.98,1.16,8.24,1.16,12.79
			c0,3.41-0.24,7.16-0.72,11.26c-0.48,4.09-1.18,8.22-2.1,12.36c-0.92,4.15-2.02,8.24-3.32,12.28
			C648.67,97.21,647.16,100.82,645.42,104z M625.76,61.54c0,3.3,0.24,6.88,0.72,10.74c0.48,3.87,1.25,7.62,2.31,11.26
			c1.06,3.64,2.41,7.02,4.05,10.15c1.64,3.13,3.66,5.6,6.07,7.42c1.73-3.98,3.2-8.04,4.41-12.19c1.2-4.15,2.22-8.16,3.04-12.02
			c0.82-3.86,1.4-7.47,1.73-10.83c0.34-3.35,0.51-6.28,0.51-8.78c0-3.41-0.24-6.54-0.72-9.38c-0.48-2.84-1.13-5.31-1.95-7.42
			c-0.82-2.1-1.83-3.75-3.03-4.95c-1.21-1.19-2.53-1.79-3.98-1.79c-1.93,0-3.71,0.77-5.35,2.3c-1.64,1.53-3.04,3.58-4.19,6.14
			c-1.16,2.56-2.05,5.52-2.67,8.87C626.08,54.41,625.76,57.9,625.76,61.54z"/>
	</defs>
	<clipPath id="cliping_x5F_o_1_">
		<use xlink:href="#cliping_x5F_o"  style="overflow:visible;"/>
	</clipPath>
	<path id="o" class="st6" d="M614.08,33.74c-10.25,5.83-21.18,20.47-27.66,29.02c-12.35,16.31-21.44,40.78-22.6,52.66
		s4.54,26.85,9.32,31.22c5.36,4.9,13.28,9.09,26.56,3.5c11.42-4.81,22.6-15.38,28.43-24c3.84-5.68,16.77-27.17,19.34-35.19
		c3.4-10.63,6.04-34.25,4.71-43.8c-1.33-9.55-5.64-18.18-12.86-18.18c-7.22,0-13.19,10.49-15.84,20.04
		c-2.65,9.55-0.47,31.79,3.73,41.94c4.19,10.15,8.16,14.92,19.34,17.48c12.57,2.88,24.4-11.56,29.13-21.44"/>
</g>
<g id="l_x5F_n">
	<defs>
		<path id="cliping_x5F_n" d="M792.57,61.88c0,4.89-0.72,9.86-2.17,14.92c-1.45,5.06-3.28,10.12-5.49,15.18
			c-2.22,5.06-4.58,10.03-7.08,14.92c-2.51,4.89-4.87,9.61-7.08,14.15c-2.22,4.55-4.05,8.9-5.49,13.05
			c-1.45,4.15-2.17,7.93-2.17,11.34c0,2.62,0.48,4.38,1.45,5.29c0.96,0.91,2.02,1.36,3.18,1.36c3.66,0,7.76-2.13,12.29-6.4
			c4.53-4.26,9.13-9.63,13.8-16.11c4.67-6.48,9.32-13.53,13.95-21.15c4.63-7.62,8.82-14.84,12.58-21.66l5.2,4.78
			c-0.77,1.36-2.17,4.07-4.19,8.1c-2.02,4.04-4.53,8.64-7.52,13.81c-2.99,5.17-6.34,10.57-10.05,16.2
			c-3.71,5.63-7.69,10.8-11.93,15.52c-4.24,4.72-8.6,8.61-13.08,11.68c-4.48,3.07-8.99,4.6-13.51,4.6c-2.6,0-4.96-0.51-7.08-1.53
			c-2.12-1.02-3.93-2.45-5.42-4.26c-1.5-1.82-2.67-3.95-3.54-6.4c-0.87-2.44-1.3-5.03-1.3-7.76c0-4.43,0.84-9.24,2.53-14.41
			c1.69-5.17,3.78-10.49,6.29-15.94c2.51-5.46,5.25-10.94,8.24-16.46c2.99-5.51,5.73-10.77,8.24-15.77c2.51-5,4.6-9.64,6.29-13.9
			c1.68-4.26,2.53-7.93,2.53-11c0-3.52-0.8-6.48-2.38-8.87c-1.59-2.39-3.83-3.58-6.72-3.58c-3.09,0-6.65,1.51-10.7,4.52
			c-4.05,3.01-8.58,7.42-13.59,13.22c-5.01,5.8-10.48,12.93-16.41,21.4c-5.93,8.47-12.36,18.11-19.3,28.91
			c-3.95,6.25-7.81,12.28-11.56,18.08c-1.64,2.5-3.28,5.06-4.91,7.67c-1.64,2.62-3.28,5.2-4.91,7.76c-1.64,2.56-3.18,5-4.63,7.33
			c-1.45,2.33-2.75,4.35-3.9,6.05l-12.72-6.14l16.91-27.46c2.41-3.86,4.86-8.02,7.37-12.45c2.5-4.43,4.99-9.01,7.44-13.73
			c2.46-4.72,4.79-9.46,7.01-14.24c2.22-4.78,4.29-9.44,6.22-13.98c2.79-6.82,4.72-12.48,5.78-16.97c1.06-4.49,1.59-8.1,1.59-10.83
			c0-3.07-0.48-5.09-1.45-6.05c-0.96-0.96-2.31-1.45-4.05-1.45c-1.83,0-3.93,1.11-6.29,3.33c-2.36,2.22-4.79,5.06-7.3,8.53
			c-2.51,3.47-5.04,7.39-7.59,11.77c-2.55,4.38-4.99,8.73-7.3,13.05c-2.31,4.32-4.48,8.42-6.5,12.28c-2.02,3.87-3.71,6.99-5.06,9.38
			l-5.2-4.78c4.91-9.09,9.37-17.42,13.37-24.98c4-7.56,7.85-14.07,11.56-19.53c3.71-5.46,7.32-9.69,10.84-12.7
			c3.52-3.01,7.25-4.52,11.2-4.52c2.12,0,4.17,0.51,6.14,1.53c1.97,1.02,3.71,2.53,5.2,4.52c1.49,1.99,2.67,4.41,3.54,7.25
			c0.87,2.84,1.3,6.14,1.3,9.89c0,2.96-0.29,6.03-0.87,9.21c4.24-4.89,8.19-8.92,11.85-12.11c3.66-3.18,7.03-5.71,10.12-7.59
			c3.08-1.88,5.93-3.21,8.53-4.01c2.6-0.79,4.96-1.19,7.08-1.19c1.83,0,3.95,0.4,6.36,1.19c2.41,0.8,4.67,2.28,6.79,4.43
			c2.12,2.16,3.93,5.15,5.42,8.95C791.82,50.94,792.57,55.86,792.57,61.88z"/>
	</defs>
	<clipPath id="cliping_x5F_n_1_">
		<use xlink:href="#cliping_x5F_n"  style="overflow:visible;"/>
	</clipPath>
	<path id="n2" class="st7" d="M721.19,77.22c0,0,20.99-22.53,26.71-27.27c5.72-4.75,14.91-12.82,23.3-12.82
		c8.39,0,16.31,4.36,16.89,14.54c0.48,8.39-3.6,31.59-19.91,55.59c-3.69,5.43-8.39,17.94-11.18,26.56
		c-2.8,8.62-0.87,16.36,2.1,19.57c5.16,5.59,14.28,3.07,18.25,0.36c5.23-3.58,21.83-21.12,24.63-26.22s23.56-42.87,23.56-42.87"/>
	<path id="n1" class="st7" d="M672.51,92.58c0,0,24.62-46.09,28.55-51.48c5.36-7.35,16.44-14.71,21.47-11.92
		c8.2,4.56,8.36,16.58,5.09,30.56c-4.1,17.57-25.4,53.83-25.4,53.83l-27.5,44.42"/>
</g>
</svg>
