<?xml version="1.0" encoding="utf-8"?>
<!-- Generator: Adobe Illustrator 16.0.0, SVG Export Plug-In . SVG Version: 6.00 Build 0)  -->
<!DOCTYPE svg PUBLIC "-//W3C//DTD SVG 1.1//EN" "http://www.w3.org/Graphics/SVG/1.1/DTD/svg11.dtd">
<svg version="1.1" id="Layer_1" xmlns="http://www.w3.org/2000/svg" xmlns:xlink="http://www.w3.org/1999/xlink" x="0px" y="0px"
	 width="353.094px" height="316.484px" viewBox="0 0 353.094 316.484" enable-background="new 0 0 353.094 316.484"
	 xml:space="preserve">
<linearGradient id="SVGID_1_" gradientUnits="userSpaceOnUse" x1="-3.6221" y1="13.8911" x2="173.5307" y2="155.8264">
	<stop  offset="0" style="stop-color:#FFFFFF;stop-opacity:0"/>
	<stop  offset="1" style="stop-color:#2E459C;stop-opacity:0.7"/>
</linearGradient>
<polyline opacity="0.5" fill="url(#SVGID_1_)" stroke="#2E459C" stroke-miterlimit="10" points="353.094,0 0,0 0,316.484 "/>
<g id="txt_x5F_g">
	<g id="g1">
		<defs>
			<path id="SVGID_2_" d="M149.547,115.386c9.825-12.215,18.197-26.656,25.739-40.496c3.298-6.053-6.337-12.379-10.579-14.053
				c-5.529-2.183-13.989-3.086-17.326,3.037c-12.628,23.176-26.333,45.805-49.155,60.27c-4.512,2.86-10.169,5.74-14.731,6.806
				c-0.042,0.01-1.98,0.274-2.501,0.403c-0.312-0.565-0.877-1.5-0.921-1.598c-0.953-2.154-1.272-4.176-1.528-6.481
				c-0.769-6.922,0.566-13.897,2.447-20.526c6.019-21.207,19.715-42.901,37.772-55.728c3.316-2.356,8.815-4.895,11.796-5.793
				c2.644-0.796,5.37-1.274,8.101-1.642c0.426-0.058,0.751-0.104,0.997-0.14c0.028-0.002,0.052-0.003,0.082-0.005
				c1.201-0.073,2.402-0.118,3.604-0.154c2.025-0.06,4.049-0.01,6.071,0.102c0.266,0.015,0.98,0.097,1.525,0.159
				c0.745,0.133,1.486,0.285,2.225,0.449c0.113,0.044,0.237,0.091,0.385,0.146c0.033,0.012,0.058,0.021,0.089,0.032
				c0.036,0.021,0.074,0.044,0.112,0.066c0.125,0.133,0.299,0.305,0.576,0.557c-2.337-2.125,0.651,1.662,0.389,0.868
				c0.323,0.695,0.616,1.402,0.866,2.127c2.515,6.64,11.292,10.394,17.879,10.602c5.683,0.179,12.125-3.104,9.621-9.715
				c-9.202-24.299-39.7-28.198-62.141-24.561c-24.746,4.01-42.605,23.046-54.97,43.531c-12.389,20.526-24.053,49.635-9.705,71.901
				c7.874,12.219,24.464,17.328,38.259,15.863c7.791-0.827,15.065-3.746,21.848-7.612
				C127.821,134.33,137.531,126.245,149.547,115.386z"/>
		</defs>
		<clipPath id="SVGID_3_">
			<use xlink:href="#SVGID_2_"  overflow="visible"/>
		</clipPath>
		<g id="p_x5F_g1_2_" clip-path="url(#SVGID_3_)">
			<path fill="none" stroke="#2E459C" stroke-width="30" stroke-linecap="round" stroke-miterlimit="10" d="M169.333,44.235
				C163.667,27.901,144.001,28.715,134,29.382c-32.277,2.153-53.092,33.203-64.326,60.361c-3.831,9.261-6.645,21.959-5.309,32.018
				c2.037,15.337,12.899,22.633,27.969,18.809c14.579-3.7,31-17.333,41-28c10-11.333,20.09-28.627,28-43.187"/>
		</g>
	</g>
	<g id="g2">
		<defs>
			<path id="SVGID_4_" d="M116.505,143.729c-2.554,6.782-4.977,13.62-7.274,20.51c-1.108,3.322-2.214,6.637-3.325,9.944
				l-3.723,10.957c-7.077,20.545-14.701,40.725-24.768,60.246c-5.186,10.056-10.542,20.597-18.208,29.022
				c-0.767,0.842-2.147,2.167-3.647,3.549c-0.844,0.777-1.716,1.521-2.588,2.266c-0.15,0.128-0.268,0.229-0.379,0.325
				c-0.163,0.116-0.426,0.313-0.864,0.646c-0.059,0.045-0.201,0.147-0.369,0.267c-2.268,4.107-4.561,8.467-7.484,12.07
				c8.346-3.299,16.301-8.04,21.432-11.591c12.936-8.953,22.291-19.783,30.278-33.185c11.054-18.548,19.93-38.378,27.576-58.544
				c2.665-7.028,5.079-14.141,7.423-21.275l3.938-12.1c2.874-8.867,5.781-17.725,9.057-26.462
				c1.876-5.004,5.778-14.755,5.966-14.988c-13.797,9.141-22.172,16.266-33.171,28.414
				C116.418,143.775,116.462,143.753,116.505,143.729z"/>
		</defs>
		<clipPath id="SVGID_5_">
			<use xlink:href="#SVGID_4_"  overflow="visible"/>
		</clipPath>
		<g id="p_x5F_g2_1_" clip-path="url(#SVGID_5_)">
			<path fill="none" stroke="#2E459C" stroke-width="30" stroke-linecap="round" stroke-miterlimit="10" d="M136,119.152
				c-3.021,9.453-11.266,32.504-14.666,42.749C110.173,195.538,96.333,233.236,77,263.236
				c-8.088,12.443-17.191,18.525-28.695,23.698"/>
		</g>
	</g>
	<g id="g3">
		<defs>
			<path id="SVGID_6_" d="M198.682,93.988c-5.152,2.277-12.346,5.655-15.093,10.938c-11.854,22.795-29.295,38.546-48.882,51.744
				l-28.618,17.347c-19.998,11.309-40.487,22.2-58.432,36.637c-11.407,9.178-23.779,19.24-30.113,32.161
				c-6.658,13.581-8.778,22.255-8.729,32.885c0.007,1.636,0.164,3.287,0.405,4.951c0.097,0.666,0.211,1.305,0.338,1.925
				c0.04,0.197,0.089,0.382,0.132,0.574c0.092,0.412,0.187,0.821,0.293,1.213c0.06,0.22,0.126,0.428,0.189,0.641
				c0.103,0.346,0.208,0.687,0.321,1.015c0.074,0.215,0.153,0.423,0.232,0.63c0.117,0.308,0.236,0.608,0.362,0.9
				c0.086,0.2,0.175,0.397,0.266,0.591c0.132,0.28,0.269,0.553,0.41,0.819c0.096,0.181,0.192,0.361,0.292,0.535
				c0.151,0.264,0.309,0.516,0.469,0.764c0.101,0.155,0.2,0.315,0.304,0.465c0.18,0.259,0.368,0.503,0.558,0.744
				c0.095,0.121,0.187,0.248,0.284,0.365c0.263,0.313,0.536,0.611,0.816,0.895c0.031,0.031,0.059,0.067,0.09,0.098
				c0.315,0.313,0.642,0.605,0.977,0.882c0.1,0.083,0.206,0.155,0.307,0.234c0.239,0.187,0.48,0.369,0.729,0.538
				c0.134,0.092,0.272,0.174,0.409,0.26c0.225,0.143,0.452,0.282,0.684,0.411c0.151,0.084,0.305,0.161,0.459,0.24
				c0.228,0.115,0.457,0.228,0.69,0.332c0.161,0.072,0.324,0.141,0.488,0.207c0.236,0.096,0.475,0.186,0.716,0.271
				c0.167,0.059,0.335,0.117,0.505,0.17c0.25,0.079,0.503,0.149,0.758,0.217c0.167,0.045,0.334,0.092,0.503,0.131
				c0.275,0.064,0.556,0.119,0.836,0.172c0.155,0.029,0.307,0.063,0.463,0.088c0.352,0.058,0.709,0.103,1.069,0.142
				c0.09,0.011,0.177,0.025,0.267,0.034c0.452,0.044,0.909,0.074,1.372,0.093c0.136,0.006,0.275,0.004,0.412,0.007
				c0.33,0.008,0.66,0.014,0.995,0.01c0.183-0.003,0.368-0.012,0.553-0.018c0.293-0.01,0.587-0.021,0.884-0.039
				c0.2-0.013,0.401-0.029,0.603-0.046c0.287-0.023,0.574-0.049,0.863-0.079c0.207-0.022,0.415-0.048,0.623-0.073
				c0.29-0.036,0.58-0.076,0.871-0.119c0.209-0.031,0.417-0.063,0.627-0.098c0.299-0.049,0.599-0.104,0.899-0.16
				c0.203-0.038,0.406-0.075,0.61-0.116c0.32-0.064,0.642-0.136,0.963-0.208c0.186-0.041,0.371-0.08,0.557-0.124
				c0.387-0.092,0.775-0.19,1.164-0.292c0.121-0.031,0.242-0.06,0.363-0.093c0.514-0.138,1.029-0.283,1.544-0.438
				c0.107-0.032,0.214-0.067,0.32-0.1c0.409-0.125,0.817-0.252,1.226-0.385c0.172-0.057,0.345-0.116,0.518-0.175
				c0.345-0.115,0.69-0.232,1.035-0.354c0.187-0.066,0.374-0.135,0.561-0.202c0.333-0.121,0.667-0.243,0.999-0.37
				c0.186-0.07,0.372-0.142,0.558-0.214c0.17-0.065,0.34-0.134,0.51-0.201c2.92-3.603,5.212-7.958,7.478-12.063
				c-0.266,0.19-0.612,0.437-0.92,0.656c-0.528,0.069-1.261,0.188-1.302,0.189c-0.938,0.06-0.916-0.013-1.828-0.157
				c-1.631-0.258-3.341-0.929-4.674-1.905c-4.571-3.348-6.512-9.626-7.284-14.947c-0.181-1.249-0.275-2.498-0.292-3.746
				c-0.155-12.059,6.993-23.964,13.49-33.471c9.412-13.772,21.091-24.239,35.334-32.566c0.002-0.001,0.003-0.002,0.005-0.003
				c5.865-3.429,12.031-6.88,18.293-10.371l28.402-16.204c0.647-0.388,1.307-0.772,1.949-1.162
				c30.984-18.805,60.378-41.669,77.397-74.398C212.19,89.217,199.15,93.781,198.682,93.988z"/>
		</defs>
		<clipPath id="SVGID_7_">
			<use xlink:href="#SVGID_6_"  overflow="visible"/>
		</clipPath>
		<g id="p_x5F_g2_2_" clip-path="url(#SVGID_7_)">
			<path fill="none" stroke="#2E459C" stroke-width="32" stroke-linecap="round" stroke-miterlimit="10" d="M46.969,289.274
				c-13.219,0.69-17.361-0.528-20.635-5.205c-9.333-13.334-2.857-31.253,4.266-42.972c7.124-11.718,15.586-22.91,26.144-31.742
				c6.293-5.266,13.223-10.087,20.294-14.252c6.5-3.828,13.148-7.39,19.723-11.086c24.52-13.785,49.469-27.542,70.361-46.607
				c12-10.951,22.127-23.665,29.547-38.175"/>
		</g>
	</g>
</g>
<g id="txt_x5F_y_1_">
	<g id="y1">
		<defs>
			<path id="SVGID_8_" d="M297.187,79.458c0.004-0.008,6.508-13.495,9.508-20.336c6.229-14.203,12.888-28.242,18.23-42.875
				c2.233-6.114-8.901-5.984-11.421-5.614c-5.429,0.795-13.093,3.42-15.322,9.525c-4.429,12.127-9.839,23.771-15.032,35.524
				c-5.031,11.387-10.007,22.67-16.116,33.441c-5.636,9.936-12.112,19.344-20.099,27.193c-3.828,3.762-7.963,7.025-12.372,9.928
				c-3.334,2.196-7.844,5.575-11.683,6.382c0.362-0.076-0.433,0.146-1.409,0.009c-1.894-0.267-3.438-0.865-5.157-1.734
				c-3.642-1.842-5.453-8.079-6.482-11.883c-2.714-10.019,0.116-20.787,3.307-30.247c3.32-9.847,7.947-19.216,12.381-28.513
				c5.342-11.196,11.411-21.902,18.87-31.596c4.167-5.415-3.521-7.855-7.1-7.874c-6.256-0.031-13.618,2.403-17.741,7.762
				c-8.309,10.798-14.752,22.836-20.64,35.325c-5.408,11.47-11.034,22.927-14.525,35.29c-3.231,11.437-3.866,24.317,1.453,35.105
				c5.986,12.143,19.366,15.418,31.302,13.752c11.83-1.652,23.183-6.508,33.565-13.386c-0.157,0.364,0.158-0.362,0,0
				C264.585,124.748,293.219,87.985,297.187,79.458z"/>
		</defs>
		<clipPath id="SVGID_9_">
			<use xlink:href="#SVGID_8_"  overflow="visible"/>
		</clipPath>
		<g id="p_x5F_y1_1_" clip-path="url(#SVGID_9_)">
			<path fill="none" stroke="#2E459C" stroke-width="30" stroke-miterlimit="10" d="M239.161,16.345
				c-6.939,14.495-22.251,35.576-28.515,49.061c-9.168,19.739-23.967,48.536-8.75,69.209c3.367,4.576,12.233,6.348,17.192,5.84
				c6.779-0.693,13.313-4.227,19.248-7.625c12.568-7.192,23.142-16.961,31.853-29.13c5.927-8.28,11.004-17.207,15.623-26.403
				c3.262-6.498,6.201-13.172,9.095-19.869c5.596-12.949,19.616-37.464,21.615-49.168"/>
		</g>
	</g>
	<g id="y3">
		<defs>
			<path id="SVGID_10_" d="M133.382,281.637c-4.392-8.975-0.598-21.012,5.02-29.313c8.725-12.896,21.505-23.842,33.317-33.271
				c20.615-16.458,42.241-31.176,62.834-47.615l44.869-40.268c1.392-1.379,2.797-2.742,4.175-4.137
				c10.863-10.999,22.892-20.671,33.462-31.991c4.919-5.266,12.129-8.269,18.958-5.51c5.506,2.224,8.261,9.652,3.615,14.627
				c-8.624,9.235-17.975,17.473-27.137,26.053c-8.461,7.923-16.454,16.409-24.882,24.377c-9.654,9.127-19.563,17.937-29.697,26.43
				l-41.85,32.26c-6.817,4.907-13.637,9.809-20.313,14.937c-11.383,8.742-24.033,18.366-32.758,30.348
				c-0.399,0.549-0.786,1.111-1.167,1.676c-0.749,1.108-1.46,2.247-2.11,3.428c-0.891,1.62-2.047,3.563-1.514,5.581
				c0.642,2.439,5.238,0.416,6.746-0.191c1.124-0.455,2.12-0.854,4.025-1.886C161.495,272.454,146.572,282.419,133.382,281.637"/>
		</defs>
		<clipPath id="SVGID_11_">
			<use xlink:href="#SVGID_10_"  overflow="visible"/>
		</clipPath>
		<g id="p_x5F_y2_2_" clip-path="url(#SVGID_11_)">
			<path fill="none" stroke="#2E459C" stroke-width="30" stroke-miterlimit="10" d="M171.865,265.66
				c-66.607,32.788,0.441-34.364,17.226-48.424c11.702-9.8,18.415-13.028,30.619-22.041c28.002-20.688,54.269-43.25,78.918-68.445
				c10.668-10.903,35.308-27.396,45.65-38.613"/>
		</g>
	</g>
	<g id="y2">
		<defs>
			<path id="SVGID_12_" d="M279.421,131.169c0.75-1.851,1.483-3.711,2.187-5.587c2.955-7.883,13.158-38.772,15.573-46.124
				c-13.493,11.708-32.962,41.141-46.327,54.731c-4.719,10.822-10.515,22.967-14.957,33.928c-0.448,1.105-0.897,2.213-1.345,3.319
				l-18.487,41.842c-6.221,12.064-13.355,23.535-22.248,33.924c-7.169,8.373-15.749,15.549-24.844,19.968
				c-11.314,6.505-23.408,11.076-35.591,14.467c1.27,2.594,3.218,4.934,6.011,6.85c14.167,9.724,33.82,1.131,47.029-6.554
				c12.727-7.403,23.665-17.787,33.192-29.474c17.03-20.89,28.029-46.139,38.302-71.44L279.421,131.169z M133.382,281.637"/>
		</defs>
		<clipPath id="SVGID_13_">
			<use xlink:href="#SVGID_12_"  overflow="visible"/>
		</clipPath>
		<g id="p_x5F_y2_3_" clip-path="url(#SVGID_13_)">
			<path fill="none" stroke="#2E459C" stroke-width="30" stroke-miterlimit="10" d="M292.876,73.769
				c-4.735,12.556-32.496,71.742-37.658,84.089c-6.115,14.628-11.572,29.592-18.311,43.909c-13.507,28.692-32.731,54.612-59,73.266
				c-9.033,6.413-30.5,12.822-32.042-0.559"/>
		</g>
	</g>
</g>
</svg>
