<?xml version="1.0" encoding="utf-8"?>
<!-- Generator: Adobe Illustrator 16.0.0, SVG Export Plug-In . SVG Version: 6.00 Build 0)  -->
<!DOCTYPE svg PUBLIC "-//W3C//DTD SVG 1.1//EN" "http://www.w3.org/Graphics/SVG/1.1/DTD/svg11.dtd">
<svg version="1.1" id="Layer_1" xmlns="http://www.w3.org/2000/svg" xmlns:xlink="http://www.w3.org/1999/xlink" x="0px" y="0px"
	 width="881.067px" height="316.484px" viewBox="0 0 881.067 316.484" enable-background="new 0 0 881.067 316.484"
	 xml:space="preserve">
	 <style>
	#g1{
	stroke-dasharray:300;
	stroke-dashoffset:300;
	animation:txtani .4s forwards cubic-bezier(.21,.92,.55,.92);
	}
	#g2{
	stroke-dasharray:200;
	stroke-dashoffset:200;
	animation:txtani .3s .4s forwards linear;
	}
	#g3{
	stroke-dasharray:700;
	stroke-dashoffset:700;
	animation:txtani .4s .7s forwards cubic-bezier(.21,.92,.55,.92);
	}
	#a1{
	stroke-dasharray:370;
	stroke-dashoffset:370;
	animation:txtani .4s 1s forwards cubic-bezier(.21,.92,.55,.92);
	}
	#a2{
	stroke-dasharray:200;
	stroke-dashoffset:200;
	animation:txtani .3s 1.25s forwards cubic-bezier(.21,.92,.55,.92);
	}
	#y1{
	stroke-dasharray:350;
	stroke-dashoffset:350;
	animation:txtani .4s 1.55s forwards cubic-bezier(.21,.92,.55,.92);
	}
	#y2{
	stroke-dasharray:250;
	stroke-dashoffset:250;
	animation:txtani .2s 1.9s forwards linear;
	}
	#y3{
	stroke-dasharray:290;
	stroke-dashoffset:290;
	animation:txtani .2s 2.1s forwards cubic-bezier(.21,.92,.55,.92);
	}
	#e1{
	stroke-dasharray:200;
	stroke-dashoffset:200;
	animation:txtani .3s 2.2s forwards cubic-bezier(.21,.92,.55,.92);
	}
	#e2{
	stroke-dasharray:300;
	stroke-dashoffset:300;
	animation:txtani .2s 2.35s forwards cubic-bezier(.21,.92,.55,.92);
	}
	#o1{
	stroke-dasharray:550;
	stroke-dashoffset:550;
	animation:txtani .4s 2.5s forwards cubic-bezier(.21,.92,.55,.92);
	}
	#o2{
	stroke-dasharray:300;
	stroke-dashoffset:300;
	animation:txtani .2s 2.8s forwards cubic-bezier(.46,.13,.68,.44)
	}
	#n1{
	stroke-dasharray:200;
	stroke-dashoffset:200;
	animation:txtani .3s 2.9s forwards linear;
	}
	#n2{
	stroke-dasharray:400;
	stroke-dashoffset:400;
	animation:txtani .5s 3.2s forwards cubic-bezier(.06,.93,.4,.7);
	}


	@keyframes txtani{
		100%{stroke-dashoffset:0}
	}
	</style>
<g id="txt_g">
	<g id="g1">
		<defs>
			<path id="SVGID_1_" d="M149.547,115.386c9.825-12.215,18.197-26.656,25.739-40.496c3.298-6.053-6.337-12.379-10.579-14.053
				c-5.529-2.183-13.989-3.086-17.326,3.037c-12.628,23.176-26.333,45.805-49.155,60.27c-4.512,2.86-10.169,5.74-14.731,6.806
				c-0.042,0.01-1.98,0.274-2.501,0.403c-0.312-0.565-0.877-1.5-0.921-1.598c-0.953-2.154-1.272-4.176-1.528-6.481
				c-0.769-6.922,0.566-13.897,2.447-20.526c6.019-21.207,19.715-42.901,37.772-55.728c3.316-2.356,8.815-4.895,11.796-5.793
				c2.644-0.796,5.37-1.274,8.101-1.642c0.426-0.058,0.751-0.104,0.997-0.14c0.028-0.002,0.052-0.003,0.082-0.005
				c1.201-0.073,2.402-0.118,3.604-0.154c2.025-0.06,4.049-0.01,6.071,0.102c0.266,0.015,0.98,0.097,1.525,0.159
				c0.745,0.133,1.486,0.285,2.225,0.449c0.113,0.044,0.237,0.091,0.385,0.146c0.033,0.012,0.058,0.021,0.089,0.032
				c0.036,0.021,0.074,0.044,0.112,0.066c0.125,0.133,0.299,0.305,0.576,0.557c-2.337-2.125,0.651,1.662,0.389,0.868
				c0.323,0.695,0.616,1.402,0.866,2.127c2.515,6.64,11.292,10.394,17.879,10.602c5.683,0.179,12.125-3.104,9.621-9.715
				c-9.202-24.299-39.7-28.198-62.141-24.561c-24.746,4.01-42.605,23.046-54.97,43.531c-12.389,20.526-24.053,49.635-9.705,71.901
				c7.874,12.219,24.464,17.328,38.259,15.863c7.791-0.827,15.065-3.746,21.848-7.612
				C127.821,134.33,137.531,126.245,149.547,115.386z"/>
		</defs>
		<clipPath id="SVGID_2_">
			<use xlink:href="#SVGID_1_"  overflow="visible"/>
		</clipPath>
		<g id="p_x5F_g1_2_" clip-path="url(#SVGID_2_)">
			<path fill="none" stroke="#000" stroke-width="30" stroke-linecap="round" stroke-miterlimit="10" d="M169.333,44.235
				C163.667,27.901,144.001,28.715,134,29.382c-32.277,2.153-53.092,33.203-64.326,60.361c-3.831,9.261-6.645,21.959-5.309,32.018
				c2.037,15.337,12.899,22.633,27.969,18.809c14.579-3.7,31-17.333,41-28c10-11.333,20.09-28.627,28-43.187"/>
		</g>
	</g>
	<g id="g2">
		<defs>
			<path id="SVGID_3_" d="M116.505,143.729c-2.554,6.782-4.977,13.62-7.274,20.51c-1.108,3.322-2.214,6.637-3.325,9.944
				l-3.723,10.957c-7.077,20.545-14.701,40.725-24.768,60.246c-5.186,10.056-10.542,20.597-18.208,29.022
				c-0.767,0.842-2.147,2.167-3.647,3.549c-0.844,0.777-1.716,1.521-2.588,2.266c-0.15,0.128-0.268,0.229-0.379,0.325
				c-0.163,0.116-0.426,0.313-0.864,0.646c-0.059,0.045-0.201,0.147-0.369,0.267c-2.268,4.107-4.561,8.467-7.484,12.07
				c8.346-3.299,16.301-8.04,21.432-11.591c12.936-8.953,22.291-19.783,30.278-33.185c11.054-18.548,19.93-38.378,27.576-58.544
				c2.665-7.028,5.079-14.141,7.423-21.275l3.938-12.1c2.874-8.867,5.781-17.725,9.057-26.462
				c1.876-5.004,5.778-14.755,5.966-14.988c-13.797,9.141-22.172,16.266-33.171,28.414
				C116.418,143.775,116.462,143.753,116.505,143.729z"/>
		</defs>
		<clipPath id="SVGID_4_">
			<use xlink:href="#SVGID_3_"  overflow="visible"/>
		</clipPath>
		<g id="p_x5F_g2_1_" clip-path="url(#SVGID_4_)">
			<path fill="none" stroke="#000" stroke-width="30" stroke-linecap="round" stroke-miterlimit="10" d="M136,119.152
				c-3.021,9.453-11.266,32.504-14.666,42.749C110.173,195.538,96.333,233.236,77,263.236
				c-8.088,12.443-17.191,18.525-28.695,23.698"/>
		</g>
	</g>
	<g id="g3">
		<defs>
			<path id="SVGID_5_" d="M198.682,93.988c-5.152,2.277-12.346,5.655-15.093,10.938c-11.854,22.795-29.295,38.546-48.882,51.744
				l-28.618,17.347c-19.998,11.309-40.487,22.2-58.432,36.637c-11.407,9.178-23.779,19.24-30.113,32.161
				c-6.658,13.581-8.778,22.255-8.729,32.885c0.007,1.636,0.164,3.287,0.405,4.951c0.097,0.666,0.211,1.305,0.338,1.925
				c0.04,0.197,0.089,0.382,0.132,0.574c0.092,0.412,0.187,0.821,0.293,1.213c0.06,0.22,0.126,0.428,0.189,0.641
				c0.103,0.346,0.208,0.687,0.321,1.015c0.074,0.215,0.153,0.423,0.232,0.63c0.117,0.308,0.236,0.608,0.362,0.9
				c0.086,0.2,0.175,0.397,0.266,0.591c0.132,0.28,0.269,0.553,0.41,0.819c0.096,0.181,0.192,0.361,0.292,0.535
				c0.151,0.264,0.309,0.516,0.469,0.764c0.101,0.155,0.2,0.315,0.304,0.465c0.18,0.259,0.368,0.503,0.558,0.744
				c0.095,0.121,0.187,0.248,0.284,0.365c0.263,0.313,0.536,0.611,0.816,0.895c0.031,0.031,0.059,0.067,0.09,0.098
				c0.315,0.313,0.642,0.605,0.977,0.882c0.1,0.083,0.206,0.155,0.307,0.234c0.239,0.187,0.48,0.369,0.729,0.538
				c0.134,0.092,0.272,0.174,0.409,0.26c0.225,0.143,0.452,0.282,0.684,0.411c0.151,0.084,0.305,0.161,0.459,0.24
				c0.228,0.115,0.457,0.228,0.69,0.332c0.161,0.072,0.324,0.141,0.488,0.207c0.236,0.096,0.475,0.186,0.716,0.271
				c0.167,0.059,0.335,0.117,0.505,0.17c0.25,0.079,0.503,0.149,0.758,0.217c0.167,0.045,0.334,0.092,0.503,0.131
				c0.275,0.064,0.556,0.119,0.836,0.172c0.155,0.029,0.307,0.063,0.463,0.088c0.352,0.058,0.709,0.103,1.069,0.142
				c0.09,0.011,0.177,0.025,0.267,0.034c0.452,0.044,0.909,0.074,1.372,0.093c0.136,0.006,0.275,0.004,0.412,0.007
				c0.33,0.008,0.66,0.014,0.995,0.01c0.183-0.003,0.368-0.012,0.553-0.018c0.293-0.01,0.587-0.021,0.884-0.039
				c0.2-0.013,0.401-0.029,0.603-0.046c0.287-0.023,0.574-0.049,0.863-0.079c0.207-0.022,0.415-0.048,0.623-0.073
				c0.29-0.036,0.58-0.076,0.871-0.119c0.209-0.031,0.417-0.063,0.627-0.098c0.299-0.049,0.599-0.104,0.899-0.16
				c0.203-0.038,0.406-0.075,0.61-0.116c0.32-0.064,0.642-0.136,0.963-0.208c0.186-0.041,0.371-0.08,0.557-0.124
				c0.387-0.092,0.775-0.19,1.164-0.292c0.121-0.031,0.242-0.06,0.363-0.093c0.514-0.138,1.029-0.283,1.544-0.438
				c0.107-0.032,0.214-0.067,0.32-0.1c0.409-0.125,0.817-0.252,1.226-0.385c0.172-0.057,0.345-0.116,0.518-0.175
				c0.345-0.115,0.69-0.232,1.035-0.354c0.187-0.066,0.374-0.135,0.561-0.202c0.333-0.121,0.667-0.243,0.999-0.37
				c0.186-0.07,0.372-0.142,0.558-0.214c0.17-0.065,0.34-0.134,0.51-0.201c2.92-3.603,5.212-7.958,7.478-12.063
				c-0.266,0.19-0.612,0.437-0.92,0.656c-0.528,0.069-1.261,0.188-1.302,0.189c-0.938,0.06-0.916-0.013-1.828-0.157
				c-1.631-0.258-3.341-0.929-4.674-1.905c-4.571-3.348-6.512-9.626-7.284-14.947c-0.181-1.249-0.275-2.498-0.292-3.746
				c-0.155-12.059,6.993-23.964,13.49-33.471c9.412-13.772,21.091-24.239,35.334-32.566c0.002-0.001,0.003-0.002,0.005-0.003
				c5.865-3.429,12.031-6.88,18.293-10.371l28.402-16.204c0.647-0.388,1.307-0.772,1.949-1.162
				c30.984-18.805,60.378-41.669,77.397-74.398C212.19,89.217,199.15,93.781,198.682,93.988z"/>
		</defs>
		<clipPath id="SVGID_6_">
			<use xlink:href="#SVGID_5_"  overflow="visible"/>
		</clipPath>
		<g id="p_x5F_g2_2_" clip-path="url(#SVGID_6_)">
			<path fill="none" stroke="#000" stroke-width="32" stroke-linecap="round" stroke-miterlimit="10" d="M46.969,289.274
				c-13.219,0.69-17.361-0.528-20.635-5.205c-9.333-13.334-2.857-31.253,4.266-42.972c7.124-11.718,15.586-22.91,26.144-31.742
				c6.293-5.266,13.223-10.087,20.294-14.252c6.5-3.828,13.148-7.39,19.723-11.086c24.52-13.785,49.469-27.542,70.361-46.607
				c12-10.951,22.127-23.665,29.547-38.175"/>
		</g>
	</g>
</g>
<g id="txt_a">
	<g id="a1">
		<defs>
			<path id="SVGID_7_" d="M295.262,81.607c0.023-0.069,0.043-0.14,0.066-0.209c4.815-8.197,9.429-16.5,13.16-25.273
				c1.036-2.436-2.618-2.661-5.872-2.419c-2.832-0.403-7.268,0.366-8.066,0.518c-3.794,0.719-13.568,2.492-15.378,6.772
				c-3.537,8.363-6.764,16.857-9.572,25.486c-2.674,4.549-5.413,9.061-8.113,13.588c-5.928,9.938-12.139,19.99-20.097,28.457
				c-3.556,3.784-7.542,7.309-11.962,10.049c-1.769,1.096-2.74,1.568-3.819,1.979c-0.161-0.009-0.414-0.025-0.778-0.068
				c-8.264-0.98-12.333-9.108-14.003-16.341c-1.892-8.19-1.222-17.271,1.073-25.302c3.747-13.107,10.345-25.807,18.193-36.897
				c6.971-9.85,15.667-18.94,26.247-24.899c0.787-0.443,1.652-0.808,2.491-1.17c0.179-0.05,0.379-0.104,0.625-0.171
				c-2.513,0.68,1.446,0.125,2.183,0.207c5.926,0.658,11.826,3.514,16.251,7.449c0.288,0.296,0.575,0.591,0.863,0.887
				c1.176,1.208,5.244,0.616,6.551,0.476c3.447-0.369,6.872-1.202,10.142-2.341c1.714-0.597,10.913-3.692,7.959-6.726
				c-8.839-9.08-22.97-10.648-34.893-9.06c-15.458,2.06-30.006,8.069-42.464,17.403c-19.642,14.717-35.316,39.567-40.737,63.425
				c-3.546,15.608-2.229,37.083,15.926,42.213c5.927,1.675,12.713,0.625,18.639-0.354c7.961-1.315,15.97-3.968,23.224-7.487
				c5.349-2.596,10.204-5.771,14.673-9.419c0.958-0.783,2.721-2.303,3.101-2.476C274.229,117.979,284,101.152,295.262,81.607z
				 M258.628,35.933C258.024,36.13,257.404,36.273,258.628,35.933L258.628,35.933z"/>
		</defs>
		<clipPath id="SVGID_8_">
			<use xlink:href="#SVGID_7_"  overflow="visible"/>
		</clipPath>
		<g id="p_x5F_a1_1_" clip-path="url(#SVGID_8_)">
			<path fill="none" stroke="#000" stroke-width="30" stroke-miterlimit="10" d="M293.5,44.652
				c-1.5-11.5-16.849-13.534-23.555-13.726c-24.861-0.709-46.282,22.055-58.046,41.637c-5.418,9.02-9.497,18.757-12.819,28.723
				c-5.154,17.396-3.177,47.251,21.92,43.949c26.667-4,42.037-28.615,54.704-49.948c7.079-11.922,18.449-32.553,23.796-45.385"/>
		</g>
	</g>
	<g id="a2">
		<defs>
			<path id="SVGID_9_" d="M328.172,97.224c-3.403,0.645-6.786,1.637-9.953,3.049c-1.256,0.561-4.966,2.055-5.425,3.723
				c-3.367,12.228-10.603,25.043-21.31,32.328c-0.255-0.163-0.49-0.313-0.593-0.388c-2.888-2.112-3.527-6.864-3.869-10.13
				c-0.894-8.522,0.972-17.41,2.958-25.659c1.524-6.329,3.333-12.574,5.349-18.75c-0.023,0.07-0.043,0.14-0.066,0.209
				c-24.262,3.107-34.658,25.295-34.387,48.295c-0.058,0.026-0.156,0.092-0.271,0.174c0.141,3.421,0.728,6.744,2.025,9.797
				c1.855,4.366,6.002,6.714,10.59,7.1c11.475,0.964,23.725-2.915,33.82-8.125c15.412-7.954,26.833-23.097,31.407-39.706
				C339.586,95.003,329.908,96.895,328.172,97.224z"/>
		</defs>
		<clipPath id="SVGID_10_">
			<use xlink:href="#SVGID_9_"  overflow="visible"/>
		</clipPath>
		<g id="p_x5F_a2_1_" clip-path="url(#SVGID_10_)">
			<path fill="none" stroke="#000" stroke-width="30" stroke-linecap="round" stroke-miterlimit="10" d="M295.082,59.937
				c-5.556,13.046-12.82,26.87-16.964,38.801c-3.006,8.654-12.044,45.991,8.587,43.307c19.093-2.484,34.322-22.945,38.916-40.476"/>
		</g>
	</g>
</g>
<g id="txt_y">
	<g id="y1">
		<defs>
			<path id="SVGID_11_" d="M424.692,80.505c0.004-0.007,6.331-12.103,9.249-18.238c6.059-12.737,12.537-25.328,17.732-38.452
				c2.172-5.483-8.658-5.367-11.109-5.035c-5.281,0.713-12.736,3.067-14.904,8.543c-4.308,10.876-9.57,21.318-14.622,31.859
				c-4.894,10.212-9.735,20.332-15.677,29.991c-5.481,8.911-11.782,17.348-19.551,24.388c-3.724,3.374-7.746,6.3-12.034,8.904
				c-3.243,1.969-7.63,5-11.364,5.724c0.352-0.068-0.421,0.131-1.371,0.008c-1.842-0.239-3.343-0.775-5.016-1.555
				c-3.543-1.652-5.304-7.246-6.306-10.657c-2.639-8.985,0.114-18.642,3.217-27.126c3.229-8.831,7.73-17.233,12.043-25.571
				c5.196-10.042,11.099-19.644,18.354-28.336c4.053-4.856-3.425-7.045-6.906-7.062c-6.085-0.028-13.246,2.155-17.257,6.961
				c-8.083,9.685-14.35,20.481-20.077,31.681c-5.261,10.287-10.733,20.562-14.129,31.649c-3.143,10.257-3.76,21.809,1.414,31.484
				c5.823,10.89,18.838,13.828,30.448,12.333c11.507-1.482,22.551-5.836,32.649-12.005c-0.153,0.326,0.154-0.325,0,0
				C392.981,121.122,420.833,88.152,424.692,80.505z"/>
		</defs>
		<clipPath id="SVGID_12_">
			<use xlink:href="#SVGID_11_"  overflow="visible"/>
		</clipPath>
		<g id="p_x5F_y1_1_" clip-path="url(#SVGID_12_)">
			<path fill="none" stroke="#000" stroke-width="30" stroke-miterlimit="10" d="M368.25,23.902
				c-6.75,13-21.644,31.906-27.737,44c-8.918,17.703-23.313,43.529-8.512,62.069c3.275,4.103,11.899,5.692,16.724,5.237
				c6.594-0.622,12.949-3.791,18.723-6.838c12.224-6.45,22.51-15.211,30.983-26.125c5.766-7.426,10.704-15.431,15.197-23.679
				c3.173-5.827,6.032-11.813,8.847-17.819c5.443-11.613,19.08-33.599,21.025-44.095"/>
		</g>
	</g>
	<g id="y2">
		<defs>
			<path id="SVGID_15_" d="M407.412,126.881c0.729-1.661,1.442-3.329,2.126-5.011c2.875-7.07,12.799-34.772,15.149-41.366
				c-13.125,10.5-32.063,36.897-45.063,49.084c-4.591,9.706-10.229,20.598-14.549,30.429c-0.436,0.992-0.872,1.984-1.308,2.977
				l-17.983,37.525c-6.051,10.819-12.991,21.107-21.641,30.423c-6.974,7.511-15.319,13.946-24.167,17.909
				c-11.005,5.833-22.769,9.934-34.62,12.974c1.235,2.326,3.13,4.424,5.847,6.144c13.78,8.721,32.897,1.014,45.746-5.878
				c12.379-6.64,23.019-15.952,32.286-26.433c16.565-18.734,27.264-41.379,37.257-64.071L407.412,126.881z M265.357,261.826"/>
		</defs>
		<clipPath id="SVGID_16_">
			<use xlink:href="#SVGID_15_"  overflow="visible"/>
		</clipPath>
		<g id="p_x5F_y2_3_" clip-path="url(#SVGID_16_)">
			<path fill="none" stroke="#000" stroke-width="30" stroke-miterlimit="10" d="M420.5,75.402
				c-4.607,11.261-31.61,64.341-36.631,75.415c-5.949,13.119-11.256,26.539-17.812,39.378
				c-13.139,25.732-31.839,48.979-57.39,65.707c-8.786,5.752-29.668,11.5-31.168-0.5"/>
		</g>
	</g>
	<g id="y3">
		<defs>
			<path id="SVGID_13_" d="M265.357,261.826c-4.272-8.048-0.582-18.843,4.883-26.289c8.487-11.565,20.918-21.383,32.407-29.839
				c20.052-14.76,41.089-27.959,61.12-42.703l43.645-36.113c1.354-1.237,2.72-2.459,4.061-3.71
				c10.566-9.864,22.268-18.539,32.549-28.691c4.785-4.723,11.799-7.416,18.441-4.941c5.355,1.995,8.035,8.656,3.516,13.118
				c-8.389,8.283-17.484,15.671-26.396,23.365c-8.23,7.105-16.005,14.716-24.203,21.862c-9.391,8.186-19.029,16.086-28.887,23.703
				l-40.708,28.933c-6.632,4.399-13.265,8.796-19.759,13.396c-11.072,7.841-23.377,16.471-31.864,27.218
				c-0.389,0.492-0.764,0.995-1.135,1.501c-0.729,0.995-1.42,2.016-2.053,3.075c-0.867,1.452-1.991,3.194-1.474,5.005
				c0.625,2.188,5.096,0.374,6.563-0.172c1.093-0.407,2.063-0.766,3.915-1.69C292.703,253.589,278.188,262.527,265.357,261.826"/>
		</defs>
		<clipPath id="SVGID_14_">
			<use xlink:href="#SVGID_13_"  overflow="visible"/>
		</clipPath>
		<g id="p_x5F_y2_2_" clip-path="url(#SVGID_14_)">
			<path fill="none" stroke="#000" stroke-width="30" stroke-miterlimit="10" d="M302.79,247.496
				c-64.79,29.406,0.429-30.818,16.756-43.428c11.382-8.789,17.913-11.684,29.784-19.768c27.238-18.553,52.788-38.786,76.765-61.383
				c10.377-9.778,34.345-24.569,44.405-34.63"/>
		</g>
	</g>
</g>
<g id="txt_e">
	<g id="e1">
		<defs>
			<path id="SVGID_17_" d="M533.031,22.224c-8.931-2.875-17.684-2.697-25.929-0.435c-1.093,6.159-1.048,12.318-0.948,18.477
				c0.739-0.411,1.507-0.797,2.312-1.166c0.09-0.051,0.372-0.18,0.97-0.437c-0.334,0.143-0.65,0.29-0.97,0.437
				c-0.324,0.185,1.981-0.695,2.298-0.781c0.179-0.049,0.328-0.091,0.464-0.13c-1.725,0.12,2.491-0.714,0,0
				c0.214-0.015,0.513-0.043,0.933-0.092c0.68-0.079,2.848-0.142,4.215,0.139c3.602,0.74,5.426,2.312,6.418,5.772
				c2.09,7.274-2.811,16.923-7.52,23.267c-6.342,8.544-15.141,14.747-24.078,19.421c-6.577,3.44-12.062,5.387-18.291,6.362
				c-3.313,0.519-6.835,0.767-10.852,0.808c-5.369,0.055-13.596,4.004-14.533,9.929c-1.041,6.589,7.283,7.522,11.766,7.477
				c3.461-0.035,6.902-0.281,10.313-0.712c10.861-1.373,21.414-4.675,31.307-9.473c13.107-6.357,25.568-14.717,34.852-26.052
				C548.537,59.431,559.197,30.646,533.031,22.224z"/>
		</defs>
		<clipPath id="SVGID_18_">
			<use xlink:href="#SVGID_17_"  overflow="visible"/>
		</clipPath>
		<g id="p_x5F_e_1_" clip-path="url(#SVGID_18_)">
			<path fill="none" stroke="#000" stroke-width="30" stroke-miterlimit="10" d="M444.25,106.902
				c19.333,0,51.5-10.583,67.5-21.25c7.936-5.429,14.297-17.014,19.123-25.318c7.216-12.417,10.993-35.395-7.826-33.964
				c-11.186,0.851-24.759,4.282-24.759,4.282"/>
		</g>
	</g>
	<g id="e2">
		<defs>
			<path id="SVGID_19_" d="M472.904,93.057c0.486-1.286,0.847-2.63,1.303-3.905c3.982-11.148,9.027-22.038,15.496-31.964
				c2.668-4.093,5.813-7.812,9.271-11.317c2.531-2.564,4.724-4.241,7.18-5.606c-0.1-6.159-0.145-12.317,0.948-18.477
				c-16.454,4.515-30.876,17.367-40.593,31.08c-6.707,9.464-11.508,20.103-15.748,30.849c-5.219,13.23-8.34,26.253-7.035,40.515
				c1.289,14.079,9.445,24.289,22.227,29.72c13.729,5.833,31.17,2.467,44.584-2.377c12.887-4.652,24.777-14.443,34.213-24.125
				c9.658-9.911,17.432-21.823,23.6-34.163c2.846-5.688-2.451-9.332-7.633-9.777c-5.883-0.505-14.207,1.956-17.066,7.672
				c-5.689,11.378-12.588,21.793-21.482,30.921c-4.02,4.125-8.473,7.627-13.268,10.811c-4.527,3.004-9.254,5.125-13.586,5.773
				c-9.908,1.482-19.625-1.157-23.691-12.704c-1.735-4.925-2.271-10.163-2.025-15.425C469.598,110.559,470.744,98.77,472.904,93.057
				z"/>
		</defs>
		<clipPath id="SVGID_20_">
			<use xlink:href="#SVGID_19_"  overflow="visible"/>
		</clipPath>
		<g id="p_x5F_e_3_" clip-path="url(#SVGID_20_)">
			<path fill="none" stroke="#000" stroke-width="30" stroke-miterlimit="10" d="M510.25,28.152
				c-20.662,10.346-33.493,22.25-42.808,43.586c-3.801,8.706-7.827,18.703-9.568,28.049c-1.982,10.633-1.689,24.822,4.815,33.915
				c6.143,8.585,16.77,11.601,26.905,10.78c5.433-0.44,12.132-1.484,17.127-3.758c22.497-10.242,46.258-37.531,57.015-59.327"/>
		</g>
	</g>
</g>
<g id="txt_o">
	<g id="o1">
		<defs>
			<path id="SVGID_21_" d="M636.733,33.974c-0.277-0.128-0.958-0.45-1.026-0.479c-1.322,2.806-3.752,11.729-4.243,13.601
				c0.723-0.407,1.415,6.913,0.907,11.763c-0.521,4.997-1.89,10-3.127,14.264c-0.444,1.531-0.924,3.055-1.42,4.573
				c-1.796,5.487-3.953,10.859-6.544,15.963c-6.2,12.214-14.909,22.856-27.345,29.57c-7.107,3.837-15.457,6.569-22.976,6.45
				c0.129,0.195-1.514,0.001-1.337-0.009c-0.005-0.003,1.211,0.007,1.337,0.009c-2.117-3.195-2.857-8.475-2.784-12.839
				c0.123-7.511,2.965-14.97,5.422-21.973c2.846-8.116,6.73-15.793,11.26-23.092c3.994-6.437,8.648-12.63,13.912-18.084
				c1.152-1.194,2.047-2.209,2.858-3.105c2.236-2.466,3.835-4.003,8.372-5.684c3.375-1.25,8.366-9.628,5.411-12.125
				c-0.214-0.181-0.443-0.34-0.667-0.507c-2.805-2.091-6.38-3.082-11.705-3.121c-13.287-0.098-22.619,8.561-30.686,18.129
				c-8.883,10.536-15.951,22.551-20.84,35.429c-4.723,12.444-8.742,25.88-4.502,38.963c3.479,10.73,14.605,18.039,24.934,21.028
				c18.328,5.306,38.904-1.961,53.34-13.601c7.848-6.328,14.099-15.005,18.873-24.582c2.505-5.023,4.602-10.291,6.307-15.601
				c2.131-6.633,3.655-13.327,4.596-19.677C657.306,54.081,650.779,40.461,636.733,33.974z M637.96,90.523
				c0.057,0.019,0.127,0.041,0.22,0.068C639.121,91.04,639.04,91.013,637.96,90.523c-0.132-0.043-0.174-0.063-0.148-0.067
				C637.862,90.479,637.913,90.502,637.96,90.523z"/>
		</defs>
		<clipPath id="SVGID_22_">
			<use xlink:href="#SVGID_21_"  overflow="visible"/>
		</clipPath>
		<g id="p_x5F_o_2_" clip-path="url(#SVGID_22_)">
			<path fill="none" stroke="#000" stroke-width="30" stroke-miterlimit="10" d="M620.083,41.459
				c-16.976-20.447-33.14,6.738-39.686,15.212c-7.646,9.898-13.978,21.122-18.132,32.918c-3.45,9.796-7.734,22.509-4.603,32.902
				c8.279,27.479,48.248,10.297,61.005-3.257c12-12,22-35.999,24.667-52.665c1.739-10.87-3.192-26.742-16.668-28.667"/>
		</g>
	</g>
	<g id="o2">
		<defs>
			<path id="SVGID_23_" d="M663.721,81.426c-4.034,3.287-8.465,5.713-13.256,7.489c-1.335,0.495-2.692,0.948-4.084,1.344
				c-1.855,0.529-4.143,0.939-6.012,0.744c0.153,0.016-2.403-0.569-2.558-0.547c0.051,0.023,0.102,0.046,0.148,0.067
				c0.057,0.019,0.127,0.041,0.22,0.068c0.941,0.448,0.86,0.422-0.22-0.068c-0.132-0.043-0.174-0.063-0.148-0.067
				c-0.065-0.03-0.12-0.055-0.192-0.087c0.965,0.607,0.785,0.506-0.541-0.301c-4.17-2.497-7.207-7.121-9.254-12.371
				c-1.847-4.736-2.89-9.979-3.197-14.648c-0.406-6.137,1.1-11.509,6.004-15.341c0.257-0.201,0.531-0.407,0.818-0.61
				c0.005-0.003,0.01,0.002,0.015-0.001c0.953-1.569,3.619-10.319,4.243-13.601c-7.118-3.036-14.305-3.904-20.963-1.225
				c-1.975,0.794-3.905,1.886-5.771,3.344c-4.867,3.803-6.84,9.23-7.345,14.972c-0.241,2.749-0.151,5.569,0.126,8.32
				c1.405,13.922,8.836,26.215,19.526,34.753c3.173,2.534,6.629,4.74,10.304,6.556c4.088,2.02,8.311,3.446,12.574,4.301
				c13.998,2.805,28.454-0.631,40.125-10.141C691.059,88.854,669.805,76.468,663.721,81.426z"/>
		</defs>
		<clipPath id="SVGID_24_">
			<use xlink:href="#SVGID_23_"  overflow="visible"/>
		</clipPath>
		<g id="p_x5F_o_1_" clip-path="url(#SVGID_24_)">
			<path fill="none" stroke="#000" stroke-width="30" stroke-miterlimit="10" d="M638,41.568
				c-11-5.667-20.533,0.887-22.748,5.192c-3.126,6.078-2.443,14.055-1.189,20.527c3.757,19.395,21.989,36.059,42.29,29.758
				c6.265-1.944,24.231-9.186,29.248-13.477"/>
		</g>
	</g>
</g>
<g id="txt_n">
	<g id="n1">
		<defs>
			<path id="clipping_x5F_n_4_" d="M704.379,129.292c9.152-15.88,17.441-32.224,25.643-48.609
				c4.016-8.027,8.645-15.709,12.734-23.695c2.834-5.533,7.283-11.822,6.285-18.336c-1.574-10.273-19.875-5.799-25.658-4.182
				c-9.047,2.529-16.449,7.934-23.535,13.911c-13.063,11.018-23.82,24.57-34.893,37.497c-3.229,3.768,10.697,2.993,11.34,2.906
				c5.645-0.761,13.486-2.188,17.418-6.777c7.742-9.039,11.159-15.93,20.1-23.792c1.425-1.253,9.131-7.55,7.938-5.313
				c-13.672,25.626-31.619,55.09-46.129,80.262c-2.49,4.323,10.121,3.07,11.342,2.906
				C691.684,135.433,701.627,134.043,704.379,129.292"/>
		</defs>
		<clipPath id="clipping_x5F_n_2_">
			<use xlink:href="#clipping_x5F_n_4_"  overflow="visible"/>
		</clipPath>
		<g id="p_x5F_n1_1_" clip-path="url(#clipping_x5F_n_2_)">
			<path fill="none" stroke="#000" stroke-width="30" stroke-miterlimit="10" d="M666.334,91.902
				c13.321-15.515,38.27-37.755,55.532-49.061c2.996-1.962,10.604-3.208,13.135,0.395c3.607,5.138-3.396,15.628-5.668,20.333
				c-3.611,7.477-7.287,13.173-10.999,20.599c-8.744,17.493-23.167,43.068-38.5,56.734"/>
		</g>
	</g>
	<g id="n2">
		<defs>
			<path id="clipping_x5F_n_3_" d="M691.396,106.173c-2.49,4.323,5.235,8.3,6.438,8.562c2.107,0.459,12.219,4.158,14.971-0.592
				c7.635-13.181,6.672-11.713,14.862-24.574c8.187-12.854,15.462-24.275,26.167-35.5c3.89-4.079,5.895-6.029,9.901-8.187
				c1.082-0.583,2.386-0.539,2.386-0.539c11.379-0.192,4.174,21.66,1.633,29.422c-4.469,13.656-11.059,26.812-13.186,41.132
				c-1.293,8.698,0.516,16.217,9.236,19.452c9.594,3.558,21.254,1.581,31.002-0.248c10.027-1.881,19.832-5.029,29.346-8.672
				c15.021-5.751,28.529-14.074,42.184-22.491c1.033-0.637,4.057-2.036,3.664-3.859c-0.379-1.77-3.738-1.936-4.926-2.013
				c-6.529-0.419-15.092,0.976-20.74,4.458c-6.426,3.961-12.83,7.958-19.381,11.716c-2.424,1.391-4.879,2.738-7.371,4.002
				c-0.891,0.452-5.088,2.377-1.406,0.713c-4.186,1.893-8.555,3.326-12.774,5.134c0.473-0.137,0.939-0.3,1.396-0.48
				c-5.99,2.368-15.118,5.896-19.734-0.793c-0.49-0.712-0.806-1.523-1.032-2.354c-0.489-1.796-0.716-3.704-0.771-5.563
				c-0.03-0.99,0.012-1.981,0.116-2.966c0.107-1.009,0.278-2.009,0.472-3.005c0.189-0.974,0.4-1.943,0.619-2.911
				c0.2-0.885,0.409-1.768,0.638-2.645c0.206-0.791,0.432-1.576,0.666-2.359c0.055-0.181,0.111-0.362,0.164-0.543
				c3.998-13.663,10.914-26.519,13.389-40.616c1.529-8.716,0.428-20.438-8.539-24.757c-5.977-2.879-13.256-2.563-19.66-1.773
				c-8.998,1.109-18.137,3.568-26,8.187c-11.361,6.673-19.602,17.762-27.291,28.058c-7.715,10.331-7.098,9.998-14.643,20.46
				c-6.173,8.56-7.294,9.417-9.629,12.749L691.396,106.173z"/>
		</defs>
		<clipPath id="clipping_x5F_n_1_">
			<use xlink:href="#clipping_x5F_n_3_"  overflow="visible"/>
		</clipPath>
		<g id="p_x5F_n2_1_" clip-path="url(#clipping_x5F_n_1_)">
			<path fill="none" stroke="#000" stroke-width="36" stroke-miterlimit="10" d="M690.904,115.402
				c7.67-10.598,36.763-38.987,44.763-49.333c8.649-11.187,20.057-29.333,37.667-26.833c6.179,0.877,12.1,5.983,11,18.667
				c-1.426,16.44-1.977,26.16-10.334,40c-7.258,12.02-12.65,24.125-4,31.333c5,4.167,27.333,3.834,39.436-2.813
				c12.422-6.822,49.388-20.359,61.565-28.354"/>
		</g>
	</g>	
</g>
</svg>
