<?xml version="1.0" encoding="utf-8"?>
<!-- Generator: Adobe Illustrator 16.0.0, SVG Export Plug-In . SVG Version: 6.00 Build 0)  -->
<!DOCTYPE svg PUBLIC "-//W3C//DTD SVG 1.1//EN" "http://www.w3.org/Graphics/SVG/1.1/DTD/svg11.dtd">
<svg version="1.1" id="Layer_1" xmlns="http://www.w3.org/2000/svg" xmlns:xlink="http://www.w3.org/1999/xlink" x="0px" y="0px"
	 width="500px" height="500px" viewBox="0 0 500 500" enable-background="new 0 0 500 500" xml:space="preserve">
<g id="Layer_1_1_" display="none">
	
		<image display="inline" overflow="visible" enable-background="new    " width="116" height="53" xlink:href="D1658391.jpeg"  transform="matrix(4.1373 0 0 4.1373 14.217 136.585)">
	</image>
	
		<image display="inline" overflow="visible" enable-background="new    " width="116" height="53" xlink:href="D1658393.jpeg"  transform="matrix(0.5597 0 0 0.5597 224.1008 44.71)">
	</image>
</g>
<g id="Layer_2">
	<g>
		<circle cx="125.189" cy="180.659" r="17.745"/>
		<g>
			<path d="M71.24,181.078h5.936v31.45c1.882-3.494,4.248-6.114,7.103-7.861c2.789-1.749,5.967-2.622,9.537-2.622
				c3.243,0,6.228,0.692,8.951,2.076c2.659,1.456,4.703,3.459,6.131,6.006c0.908,1.674,1.524,3.93,1.85,6.769
				c0.195,1.748,0.291,4.843,0.291,9.283v35.164h-5.936v-35.164c0-6.623-0.778-11.248-2.335-13.869
				c-1.817-2.985-5.191-4.477-10.121-4.477c-4.541,0-8.236,1.747-11.091,5.241c-2.919,3.567-4.378,8.3-4.378,14.197v34.072H71.24
				V181.078z"/>
		</g>
		<path d="M187.907,207.758h6.894v9.084c2.335-3.297,5.235-5.82,8.705-7.569c3.616-1.816,7.646-2.725,12.094-2.725
			c8.138,0,14.581,2.926,19.327,8.779c4.37,5.248,6.557,11.743,6.557,19.479c0,7.604-2.188,14.063-6.557,19.377
			c-4.747,5.853-11.189,8.781-19.327,8.781c-4.447,0-8.44-0.909-11.983-2.725c-3.616-1.815-6.555-4.405-8.817-7.772v29.778h-6.894
			v-74.487H187.907z M199.21,218.962c-3.317,4.239-4.975,9.486-4.975,15.744c0,6.123,1.658,11.302,4.975,15.542
			c3.691,4.776,8.779,7.165,15.261,7.165c6.177,0,11.114-2.389,14.807-7.165c3.313-4.24,4.974-9.42,4.974-15.542
			c0-6.188-1.659-11.437-4.974-15.744c-3.693-4.708-8.628-7.064-14.807-7.064C207.989,211.898,202.902,214.255,199.21,218.962z"/>
		<path d="M302.545,215.33c4.597,5.247,6.895,11.742,6.895,19.477c0,7.604-2.298,14.03-6.895,19.276
			c-5.126,5.852-12.021,8.78-20.687,8.78s-15.527-2.929-20.571-8.78c-4.52-5.313-6.781-11.741-6.781-19.276
			c0-7.735,2.262-14.23,6.781-19.477c5.047-5.854,11.905-8.78,20.571-8.78S297.419,209.476,302.545,215.33z M266.601,218.962
			c-3.393,4.307-5.087,9.555-5.087,15.744c0,6.056,1.694,11.238,5.087,15.542c3.765,4.708,8.853,7.064,15.258,7.064
			s11.53-2.355,15.374-7.064c3.464-4.305,5.197-9.487,5.197-15.542c0-6.188-1.733-11.437-5.197-15.744
			c-3.844-4.708-8.971-7.064-15.374-7.064C275.454,211.898,270.366,214.255,266.601,218.962z"/>
		<path d="M325.171,181.961h6.896v11.335h-6.896V181.961z M325.171,207.758h6.896v53.591h-6.896V207.758z"/>
		<path d="M348.891,207.758h6.67v8.68c2.183-3.365,4.935-5.854,8.251-7.469c3.315-1.614,4.217-2.421,8.663-2.421
			c4.069,0,6.201,0.639,9.363,1.917c3.166,1.278,5.538,3.129,7.12,5.55c0.979,1.548,1.658,3.466,2.036,5.752
			c0.226,1.549,0.34,4.037,0.34,7.468v34.111h-6.896v-33.405c0-5.854-0.943-9.89-2.825-12.111
			c-2.189-2.624-4.692-3.936-10.493-3.936c-5.577,0-7.046,1.581-10.36,4.743c-3.319,3.231-4.975,7.637-4.975,13.222v31.488h-6.896
			L348.891,207.758L348.891,207.758z"/>
		<path d="M417.568,207.016h11.191v5.047h-11.191v39.26c0,2.019,0.264,3.396,0.79,4.137c0.68,1.01,1.961,1.515,3.844,1.515
			c0.678,0,1.543-0.1,2.602-0.303c0.677-0.135,1.693-0.338,3.051-0.604l0.906-0.103v4.844c-1.509,0.34-2.979,0.641-4.409,0.91
			c-1.432,0.203-2.752,0.303-3.957,0.303c-3.842,0-6.48-0.873-7.911-2.623c-1.206-1.548-1.808-4.239-1.808-8.074v-39.259h-8.026
			v-5.047h8.026v-15.339h6.896v15.338H417.568z"/>
	</g>
</g>
</svg>
