<?xml version="1.0" encoding="utf-8"?>
<!-- Generator: Adobe Illustrator 16.0.0, SVG Export Plug-In . SVG Version: 6.00 Build 0)  -->
<!DOCTYPE svg PUBLIC "-//W3C//DTD SVG 1.1//EN" "http://www.w3.org/Graphics/SVG/1.1/DTD/svg11.dtd">
<svg version="1.1" id="Layer_1" xmlns="http://www.w3.org/2000/svg" xmlns:xlink="http://www.w3.org/1999/xlink" x="0px" y="0px"
	 width="500px" height="500px" viewBox="0 0 500 500" enable-background="new 0 0 500 500" xml:space="preserve">
<g>
	<g>
		<g>
			<path fill-rule="evenodd" clip-rule="evenodd" fill="#FFFFFF" d="M304.247,245.454c-1.631-2.349-3.512-4.632-5.697-6.812
				l7.354-2.521l25.758-20.613l1.581-18.313l-0.662-1.32l-0.136-0.47l-0.084-0.267l-0.057-0.315l-0.288-0.88l-2.619-6.87
				l-28.404-7.677l-19.794-6.368l-13.836-31.922l-13.928-5.688l-2.008-0.218l-1.124,0.14h-6.081L223.21,157.17l-5.761,21.421
				l-43.136,4.54l-5.133,11.09l-0.45,1.755l0.124,8.774l19.603,24.652l14.984,8.046c-2.657,2.463-4.908,5.094-6.808,7.808
				c-33.463,7.717-26.654,75.282,14.734,81.718c12.014,1.864,25.039,2.888,38.633,2.888c15.506,0,30.267-1.332,43.629-3.724
				C332.372,319.189,337.234,253.229,304.247,245.454z"/>
			<g>
				<path fill-rule="evenodd" clip-rule="evenodd" d="M230.356,222.002c13.305-3.265,27.17-3.238,40.45,0.087l-5.168-20.375
					l-4.926-0.102l-0.812,6.083h-5.847l-0.673-5.981l-5.558-0.102l-0.672,6.083l-5.883-0.062l-0.712-5.978h-4.984L230.356,222.002
					L230.356,222.002z"/>
			</g>
			<path fill-rule="evenodd" clip-rule="evenodd" d="M250.368,252.88v0.006V252.88L250.368,252.88z M304.247,245.454
				c13.633,19.716,8.907,43.836,8.907,43.836s-24.805,4.369-45.616-12.954c-13.216-10.994-17.159-23.414-17.17-23.45
				c-0.006,0.036-3.944,12.456-17.159,23.45c-20.814,17.323-45.616,12.954-45.616,12.954s-4.76-24.285,9.041-44.033
				c-33.463,7.717-56.097,22.47-56.097,39.438c0,22.353,39.223,40.858,90.771,44.512v-29.832h8.284v30.282
				c2.06,0.083,4.132,0.142,6.222,0.173V287.3h8.282v42.529c2.115-0.031,4.203-0.09,6.288-0.173v-30.282h8.284v29.832
				c51.562-3.646,90.794-22.155,90.794-44.512C359.463,267.878,337.234,253.229,304.247,245.454z"/>
			<path fill-rule="evenodd" clip-rule="evenodd" d="M214.905,172.379c-16.678-3.228-33.937,0.024-48.264,9.071
				c0.153,4.658,0.923,9.274,2.273,13.779c16.95-13.313,40.259-15.232,59.134-4.823c-4.282-21.254,4.6-42.997,22.585-55.1
				c-3.847-2.655-8.009-4.753-12.408-6.31C225.223,139.955,216.876,155.467,214.905,172.379z M159.156,205.104
				c3.274,8.009,8.111,15.265,14.228,21.388c1.545,1.556,3.126,3.045,4.778,4.462c6.116,5.041,13.035,8.954,20.495,11.6
				c2.913-3.598,6.514-6.988,10.93-9.993c-9.697-1.968-18.715-6.636-25.92-13.433c-6.974-6.476-12.059-14.758-14.753-23.9
				C165.249,198.101,161.969,201.438,159.156,205.104z M286.36,172.379c-1.948-16.912-10.303-32.424-23.329-43.383
				c-4.411,1.557-8.548,3.655-12.397,6.31c17.988,12.103,26.91,33.846,22.588,55.1c18.893-10.409,42.184-8.49,59.164,4.823
				c1.296-4.504,2.067-9.121,2.249-13.779C320.283,172.404,303.021,169.151,286.36,172.379z M332.385,195.229
				c-2.688,9.142-7.773,17.424-14.796,23.9c-7.198,6.794-16.554,11.554-26.299,13.528c4.417,3.02,8.011,6.432,10.913,10.052
				c7.611-2.654,14.71-6.624,20.905-11.754c1.639-1.417,3.249-2.907,4.776-4.462c6.111-6.123,10.938-13.379,14.258-21.388
				C339.293,201.438,336.01,198.101,332.385,195.229z"/>
		</g>
		<path fill-rule="evenodd" clip-rule="evenodd" fill="#0066B3" d="M250.368,252.88v0.006V252.88L250.368,252.88z"/>
	</g>
	<path fill-rule="evenodd" clip-rule="evenodd" fill="#0066B3" d="M250.368,252.88v0.006V252.88L250.368,252.88z"/>
</g>
</svg>
