<svg data-name="Layer 1" xmlns="http://www.w3.org/2000/svg" viewBox="0 0 180 40"><title>Sarar Logo</title><path d="M115.38 22.13l-4.23-9.3-4.06 9.3zM120 32.31l-2.93-6.39h-11.61l-2.81 6.39h-5.14l11.25-24.22H114l11.7 24.22zm-96.29-22A24.85 24.85 0 0 0 12.78 7.5C6.39 7.5.53 9.91.44 15.41c-.09 5.81 5.65 6.35 10.84 6.47 4.28.09 8.19.19 8.14 3.1 0 1.7-2.1 3.59-8.09 3.59A19.11 19.11 0 0 1 2 25.87l-2 3.7c.46.31 4.32 2.93 11.6 2.93 8.43 0 12.7-3.5 12.77-7.82a6.05 6.05 0 0 0-2.56-5.46c-2.34-1.64-6-1.75-9.34-1.78-4 0-7.39-.2-7.35-2.4 0-2 2.26-3.68 7.4-3.68a18.4 18.4 0 0 1 9.25 2.54l1.94-3.63zm24.75 11.82l-4.23-9.3-4.06 9.3zm4.63 10.18l-2.93-6.39H38.54l-2.81 6.39h-5.14L41.85 8.09h5.21l11.73 24.22h-5.7zM72.1 12h9.45c2.45 0 4.32 1.27 4.32 3.36S84 18.7 81.55 18.7H72.1V12zm0 10.63h6.7l6.66 9.69h6.09l-7.22-9.9c3.43-.53 6.57-3.28 6.57-7.05S88.33 8.1 82.57 8.1H67v24.21h5v-9.69zM138.54 12H148c2.45 0 4.32 1.27 4.32 3.36s-1.88 3.34-4.32 3.34h-9.45V12zm0 10.63h6.7l6.66 9.69h6.05l-7.18-9.9c3.43-.53 6.57-3.28 6.57-7.05s-2.57-7.28-8.34-7.28h-15.51v24.22h5v-9.69z"/></svg>