<?xml version="1.0" encoding="utf-8"?>
<!-- Generator: Adobe Illustrator 16.0.0, SVG Export Plug-In . SVG Version: 6.00 Build 0)  -->
<!DOCTYPE svg PUBLIC "-//W3C//DTD SVG 1.1//EN" "http://www.w3.org/Graphics/SVG/1.1/DTD/svg11.dtd">
<svg version="1.1" id="Layer_1" xmlns="http://www.w3.org/2000/svg" xmlns:xlink="http://www.w3.org/1999/xlink" x="0px" y="0px"
	 width="500px" height="500px" viewBox="0 0 500 500" enable-background="new 0 0 500 500" xml:space="preserve">
<path d="M351.125,252.916l-11.75-25.833l-11.278,25.833H351.125z M363.958,281.194l-8.139-17.75h-32.25l-7.806,17.75h-14.277
	l31.249-67.278h14.556l32.5,67.278H363.958z M96.487,220.083c-9.389-4.896-19.776-7.566-30.361-7.806
	c-17.75,0-34.028,6.694-34.278,21.973c-0.25,16.139,15.694,17.639,30.111,17.973c11.889,0.25,22.75,0.527,22.611,8.611
	c0,4.722-5.833,9.972-22.473,9.972c-9.141-0.227-18.067-2.81-25.916-7.5l-5.556,10.278c1.277,0.86,12,8.139,32.222,8.139
	c23.417,0,35.278-9.723,35.473-21.723c0.497-5.961-2.211-11.736-7.111-15.167c-6.5-4.556-16.667-4.861-25.944-4.944
	c-11.111,0-20.527-0.556-20.417-6.667c0-5.556,6.278-10.222,20.556-10.222c9.038,0.038,17.904,2.473,25.694,7.056l5.39-10.084
	V220.083z M165.237,252.916l-11.75-25.833l-11.278,25.833H165.237z M178.097,281.194l-8.139-17.75h-32.277l-7.806,17.75h-14.278
	l31.278-67.278h14.472l32.584,67.278H178.097z M230.903,224.777h26.25c6.806,0,12,3.528,12,9.334c0,5.805-5.194,9.277-12,9.277
	h-26.25V224.777z M230.903,254.306h18.611l18.5,26.917h16.917l-20.056-27.5c9.527-1.473,18.25-9.111,18.25-19.584
	s-7.139-20.194-23.139-20.194h-43.25v67.25h13.889v-26.917L230.903,254.306z M415.458,224.777h26.277c6.806,0,12,3.528,12,9.334
	c0,5.805-5.222,9.277-12,9.277h-26.25v-18.611H415.458z M415.458,254.306h18.611l18.5,26.917h16.806l-19.945-27.5
	c9.528-1.473,18.25-9.111,18.25-19.584s-7.139-20.223-23.166-20.223H401.43v67.278h13.89v-26.917L415.458,254.306z"/>
</svg>
