<?xml version="1.0" encoding="utf-8"?>
<!-- Generator: Adobe Illustrator 16.0.0, SVG Export Plug-In . SVG Version: 6.00 Build 0)  -->
<!DOCTYPE svg PUBLIC "-//W3C//DTD SVG 1.1//EN" "http://www.w3.org/Graphics/SVG/1.1/DTD/svg11.dtd">
<svg version="1.1" id="Layer_1" xmlns="http://www.w3.org/2000/svg" xmlns:xlink="http://www.w3.org/1999/xlink" x="0px" y="0px"
	 width="500px" height="500px" viewBox="0 0 500 500" enable-background="new 0 0 500 500" xml:space="preserve">
<g>
	<g>
		<rect x="151.5" y="105.975" fill="#F57921" width="197" height="197"/>
		<g>
			<path fill="#FAF9F5" d="M284.923,254.578v-71.811c0-16.315-13.224-29.544-29.538-29.544h-83.033
				c-0.639,0-1.159,0.516-1.159,1.149v100.207c0,0.634,0.52,1.147,1.159,1.147h22.18c0.64,0,1.158-0.517,1.158-1.154v-78.649
				c0-0.639,0.519-1.157,1.159-1.157h47.694c8.954,0,16.218,7.26,16.218,16.217v63.587c0,0.638,0.519,1.154,1.156,1.154h21.852
				c0.636,0,1.155-0.516,1.155-1.148"/>
			<path fill="#FAF9F5" d="M240.136,254.571c0,0.639-0.514,1.155-1.155,1.155h-22.174c-0.641,0-1.159-0.517-1.159-1.155v-60.269
				c0-0.638,0.518-1.156,1.159-1.156h22.174c0.641,0,1.155,0.518,1.155,1.156v60.272V254.571z"/>
			<path fill="#FAF9F5" d="M328.806,254.571c0,0.639-0.52,1.155-1.16,1.155h-22.169c-0.642,0-1.164-0.517-1.164-1.155V154.383
				c0-0.641,0.522-1.159,1.164-1.159h22.169c0.641,0,1.16,0.518,1.16,1.159V254.571z"/>
		</g>
	</g>
	<g>
		<path fill="#F57921" stroke="#F47920" stroke-miterlimit="10" d="M188.004,356.706h-4.333v-28.897h-0.094l-9.938,28.897h-4.098
			l-9.892-29.368h-0.141v29.368h-4.333v-34.525h6.83l8.172,24.445c0.911,2.717,1.437,4.42,1.578,5.11h0.094
			c0.424-1.334,1.036-3.179,1.837-5.534l8.243-24.021h6.076V356.706z"/>
		<path fill="#F57921" stroke="#F47920" stroke-miterlimit="10" d="M200.698,356.706h-4.592v-34.525h4.592V356.706z"/>
		<path fill="#F57921" stroke="#F47920" stroke-miterlimit="10" d="M250.556,356.706h-6.029l-12.247-17.451l-5.699,5.487v11.964
			h-4.569v-34.525h4.569v17.121l17.168-17.121h6.17l-14.46,13.989L250.556,356.706z"/>
		<path fill="#F57921" stroke="#F47920" stroke-miterlimit="10" d="M264.05,331.153c3.376,0,6.174,1.099,8.396,3.297
			c2.221,2.198,3.332,5.322,3.332,9.373c0,4.915-1.201,8.389-3.604,10.422s-5.11,3.05-8.125,3.05c-3.155,0-5.896-1.044-8.219-3.133
			c-2.324-2.088-3.486-5.4-3.486-9.938c0-4.396,1.123-7.673,3.368-9.832S260.738,331.153,264.05,331.153z M264.05,353.81
			c2.418,0,4.255-0.896,5.511-2.686c1.256-1.789,1.885-4.145,1.885-7.064c0-3.125-0.711-5.479-2.132-7.065s-3.176-2.379-5.264-2.379
			c-2.151,0-3.917,0.805-5.299,2.414s-2.072,4.008-2.072,7.194c0,3.172,0.702,5.563,2.107,7.172S261.947,353.81,264.05,353.81z"/>
		<path fill="#F57921" stroke="#F47920" stroke-miterlimit="10" d="M294.172,332.495l-1.46,3.91
			c-1.052-0.612-2.08-0.919-3.085-0.919c-1.586,0-2.787,0.711-3.604,2.132s-1.225,3.411-1.225,5.97v13.118h-4.239v-24.987h3.862
			v3.768h0.095c1.35-2.889,3.116-4.333,5.299-4.333C291.26,331.153,292.712,331.601,294.172,332.495z"/>
		<path fill="#F57921" stroke="#F47920" stroke-miterlimit="10" d="M318.477,345.284h-18.723c0.172,2.764,0.961,4.875,2.366,6.335
			s3.16,2.19,5.264,2.19c1.617,0,2.976-0.428,4.074-1.284c1.1-0.855,1.939-2.146,2.521-3.874l4.356,0.542
			c-0.706,2.606-2.001,4.608-3.886,6.006c-1.884,1.397-4.239,2.096-7.065,2.096c-3.752,0-6.685-1.15-8.796-3.45
			c-2.112-2.3-3.168-5.444-3.168-9.433c0-3.94,1.024-7.136,3.073-9.585c2.05-2.449,4.935-3.674,8.655-3.674
			c1.821,0,3.576,0.4,5.264,1.201s3.121,2.163,4.298,4.086C317.888,338.364,318.477,341.312,318.477,345.284z M314.12,341.798
			c-0.173-2.543-0.962-4.376-2.367-5.499c-1.405-1.122-2.94-1.684-4.604-1.684c-1.994,0-3.635,0.667-4.922,2.002
			c-1.288,1.335-2.033,3.062-2.237,5.181H314.12z"/>
		<path fill="#F57921" stroke="#F47920" stroke-miterlimit="10" d="M345.255,356.706h-4.451c-0.408-0.785-0.699-1.813-0.871-3.085
			c-2.843,2.449-5.912,3.674-9.209,3.674c-2.638,0-4.718-0.659-6.241-1.979c-1.522-1.318-2.284-3.062-2.284-5.229
			c0-2.072,0.733-3.779,2.202-5.122c1.468-1.343,4.016-2.233,7.643-2.673l3.956-0.589c1.476-0.235,2.692-0.526,3.65-0.871
			c0-1.272-0.039-2.171-0.117-2.697c-0.079-0.525-0.311-1.071-0.695-1.637s-1.001-1.021-1.849-1.365
			c-0.848-0.346-1.986-0.519-3.415-0.519c-1.821,0-3.262,0.338-4.321,1.013s-1.786,1.931-2.179,3.769l-4.145-0.542
			c0.455-2.56,1.625-4.482,3.509-5.771c1.884-1.287,4.475-1.931,7.771-1.931c2.999,0,5.201,0.443,6.606,1.33
			c1.405,0.888,2.269,1.959,2.591,3.215c0.321,1.257,0.482,2.873,0.482,4.852v5.699c0,3.471,0.066,5.798,0.2,6.983
			S344.611,355.575,345.255,356.706z M339.65,345.708v-1.531c-2.214,0.738-4.922,1.323-8.125,1.755s-4.805,1.786-4.805,4.063
			c0,1.146,0.432,2.092,1.296,2.838c0.863,0.746,2.104,1.118,3.721,1.118c2.088,0,3.929-0.624,5.522-1.872
			S339.65,348.707,339.65,345.708z"/>
	</g>
</g>
</svg>
