<?xml version="1.0" encoding="utf-8"?>
<!-- Generator: Adobe Illustrator 16.0.0, SVG Export Plug-In . SVG Version: 6.00 Build 0)  -->
<!DOCTYPE svg PUBLIC "-//W3C//DTD SVG 1.1//EN" "http://www.w3.org/Graphics/SVG/1.1/DTD/svg11.dtd">
<svg version="1.1" id="Layer_1" xmlns="http://www.w3.org/2000/svg" xmlns:xlink="http://www.w3.org/1999/xlink" x="0px" y="0px"
	 width="500px" height="500px" viewBox="0 0 500 500" enable-background="new 0 0 500 500" xml:space="preserve">
<g id="Layer_1_1_" display="none">
	
		<image display="inline" overflow="visible" enable-background="new    " width="116" height="53" xlink:href="B279BF48.jpeg"  transform="matrix(4.1373 0 0 4.1373 14.217 136.585)">
	</image>
	
		<image display="inline" overflow="visible" enable-background="new    " width="116" height="53" xlink:href="B279BF48.jpeg"  transform="matrix(0.5597 0 0 0.5597 224.1008 44.71)">
	</image>
</g>
<g id="Layer_2">
	<g>
		<circle fill="#363636" cx="163.241" cy="193.44" r="12.334"/>
		<g>
			<path fill="#363636" d="M233.807,284.928l0.037-0.078v-0.029c0.006-0.014,0.017-0.032,0.031-0.063
				c0.116-0.284,0.099-0.509-0.053-0.671c-0.148-0.162-0.376-0.192-0.75-0.192h-1.378v6.496h13.712v-1.977h-11.603L233.807,284.928z
				"/>
			<path fill="#363636" d="M238.573,282.313c0.223-0.183,0.416-0.381,0.578-0.593v1.073h3.699v2.947h2.13v-14.009
				c0-0.05,0.007-0.098,0.031-0.177c0.001-0.005,0.008-0.035,0.062-0.136c0.043-0.104,0.156-0.379,0.011-0.612l-0.044-0.061
				c-0.146-0.157-0.372-0.188-0.669-0.188h-1.521v6.153h-3.699v0.957c-0.163-0.216-0.355-0.419-0.578-0.606
				c-0.863-0.711-2.047-1.07-3.521-1.07c-1.488,0-2.679,0.359-3.546,1.075c-0.801,0.684-1.207,1.577-1.207,2.65
				c0,1.048,0.407,1.921,1.208,2.59c0.863,0.727,2.057,1.096,3.545,1.096C236.528,283.405,237.714,283.038,238.573,282.313z
				 M232.963,278.415c0.467-0.353,1.171-0.532,2.09-0.532c0.905,0,1.602,0.18,2.074,0.535c0.411,0.304,0.61,0.723,0.61,1.281
				c0,0.548-0.201,0.969-0.613,1.284c-0.468,0.354-1.165,0.534-2.071,0.534c-0.919,0-1.623-0.181-2.083-0.527
				c-0.403-0.32-0.601-0.741-0.601-1.291C232.368,279.139,232.563,278.719,232.963,278.415z M239.67,278.712h3.179v2.083h-3.208
				c0.109-0.335,0.165-0.691,0.165-1.075C239.807,279.364,239.76,279.027,239.67,278.712z"/>
			<rect x="232.036" y="271.038" fill="#363636" width="6.052" height="1.911"/>
			<rect x="228.924" y="273.766" fill="#363636" width="12.297" height="1.935"/>
			<path fill="#363636" d="M263.786,270.559h-1.461v9.016h-1.71v-7.471c0-0.029,0.002-0.06,0.005-0.09
				c0.023-0.043,0.051-0.099,0.081-0.162c0.056-0.12,0.187-0.406,0.026-0.669c-0.154-0.222-0.45-0.253-0.742-0.253h-1.5v13.354
				l-0.329-1.58l-0.403,0.117c-0.983,0.283-2.187,0.513-3.579,0.686c-1.096,0.14-2.145,0.218-3.12,0.233v-9.195h5.76v-1.999h-7.891
				v13.198h0.388c1.797,0,3.429-0.074,4.851-0.221c1.413-0.148,2.777-0.377,4.052-0.685l0.269-0.065v5.052h2.131v-8.272h1.71v9.343
				h2.131v-19.14c0-0.052,0.005-0.084,0.004-0.084c0.009-0.032,0.031-0.081,0.061-0.146c0.076-0.164,0.165-0.408,0.048-0.657
				C264.418,270.592,264.071,270.559,263.786,270.559z"/>
			<polygon fill="#363636" points="270.342,285.106 281.864,285.106 281.864,290.893 283.934,290.893 283.934,283.13 
				270.342,283.13 			"/>
			<path fill="#363636" d="M283.262,270.559h-1.46v5.979h-1.71v-4.611c0-0.025,0.005-0.053,0.024-0.104
				c0.009-0.026,0.024-0.06,0.054-0.11c0.055-0.107,0.201-0.391,0.034-0.661c-0.155-0.222-0.45-0.253-0.742-0.253h-1.501v11.43h2.13
				v-3.69h1.71v3.972h2.131v-10.756c0-0.052,0.005-0.084,0.004-0.084c0.009-0.032,0.03-0.081,0.061-0.146
				c0.076-0.164,0.164-0.407,0.048-0.656C283.895,270.592,283.547,270.559,283.262,270.559z"/>
			<path fill="#363636" d="M276.354,272.474c0-0.043,0.003-0.078,0.003-0.083c0.01-0.026,0.025-0.059,0.063-0.125
				c0.139-0.302,0.131-0.542-0.027-0.711c-0.154-0.165-0.412-0.233-0.891-0.233h-1.277v3.1h-3.731v-2.057c0,0,0-0.02,0-0.024
				c0.012-0.021,0.034-0.052,0.07-0.103c0.177-0.255,0.208-0.479,0.094-0.665l-0.046-0.061c-0.146-0.159-0.384-0.191-0.77-0.191
				h-1.438v9.791h7.951V272.474L276.354,272.474z M270.492,279.202v-2.826h3.731v2.826H270.492z"/>
			<rect x="291.234" y="271.409" fill="#363636" width="5.708" height="1.911"/>
			<path fill="#363636" d="M300.226,284.6c-0.844,0.146-1.718,0.283-2.617,0.412c-0.895,0.134-1.722,0.241-2.466,0.324v-1.586
				c1.029-0.164,1.868-0.567,2.494-1.201c0.679-0.685,1.022-1.503,1.022-2.436c0-1.057-0.404-1.947-1.2-2.647
				c-0.839-0.746-1.973-1.122-3.371-1.122c-1.414,0-2.554,0.376-3.394,1.123c-0.783,0.7-1.18,1.592-1.18,2.646
				c0,0.93,0.329,1.747,0.981,2.435c0.639,0.647,1.491,1.059,2.537,1.225v1.787c-0.807,0.063-1.559,0.109-2.262,0.148
				c-1.069,0.059-2.13,0.088-3.152,0.088h-0.489l0.393,1.671c0.065,0.293,0.157,0.583,0.429,0.697l0.084,0.024h0.068
				c0.13,0,0.262-0.051,0.445-0.169c0.075-0.047,0.14-0.083,0.225-0.12c0.051-0.026,0.104-0.041,0.188-0.041
				c1.745-0.131,3.757-0.329,5.978-0.592c2.233-0.261,4.123-0.52,5.617-0.767l0.388-0.064l-0.339-1.901L300.226,284.6z
				 M294.088,278.231c0.808,0,1.445,0.185,1.896,0.546c0.407,0.333,0.605,0.764,0.605,1.314c0,0.539-0.198,0.961-0.607,1.294
				c-0.452,0.376-1.089,0.566-1.895,0.566c-0.831,0-1.474-0.188-1.914-0.564c-0.396-0.332-0.589-0.757-0.589-1.296
				c0-0.553,0.193-0.986,0.586-1.315C292.611,278.415,293.255,278.231,294.088,278.231z"/>
			<rect x="288.12" y="274.071" fill="#363636" width="11.953" height="1.935"/>
			<path fill="#363636" d="M322.255,270.559h-1.501v4.519h-4.587v1.998h4.587v5.436h2.13V271.71c0-0.036,0.005-0.078,0.004-0.082
				c0.009-0.026,0.025-0.06,0.063-0.126c0.054-0.114,0.176-0.379,0.06-0.613C322.861,270.559,322.423,270.559,322.255,270.559z"/>
			<path fill="#363636" d="M312.861,276.988c0.404,0.68,0.937,1.334,1.59,1.947c0.955,0.897,2.126,1.664,3.48,2.275l0.291,0.13
				l1.307-1.824l-0.472-0.179c-1.722-0.658-3.057-1.53-3.963-2.594c-0.89-1.062-1.24-2.162-1.065-3.357h4.37v-1.978h-11.005v1.977
				h4.507c-0.178,1.362-0.707,2.642-1.579,3.811c-0.941,1.253-2.158,2.242-3.615,2.938l-0.285,0.137v-0.479h-3.012v-8.149
				c0-0.028,0.005-0.057,0.005-0.063c0.012-0.037,0.027-0.086,0.033-0.108c0.056-0.107,0.201-0.392,0.046-0.643l-0.046-0.062
				c-0.14-0.149-0.362-0.209-0.769-0.209h-1.399v20.334h2.13v-9.146h3.012v-1.197l1.282,1.537l0.286-0.181
				c1.25-0.786,2.302-1.63,3.129-2.508C311.793,278.679,312.377,277.87,312.861,276.988z"/>
			<path fill="#363636" d="M309.598,290.653h2.129v-0.611h9.027v0.611h2.13v-8.133h-13.286V290.653z M320.754,284.519v3.524h-9.027
				v-3.524H320.754z"/>
			<path fill="#363636" d="M341.976,280.558c0.148-2.011,0.224-4.717,0.224-8.04v-0.388h-13.428v1.998h11.298
				c-0.005,2.702-0.061,4.845-0.161,6.373c-0.138,1.979-0.386,3.854-0.736,5.577h-12.461v2.021h17.835v-2.021h-3.287
				C341.599,284.378,341.839,282.522,341.976,280.558z"/>
			<polygon fill="#363636" points="361.959,276.845 350.579,276.845 350.579,275.722 361.675,275.722 361.675,270.798 
				348.53,270.798 348.53,272.774 359.605,272.774 359.605,273.745 348.53,273.745 348.53,278.821 361.959,278.821 			"/>
			<path fill="#363636" d="M360.823,282.215h-1.278v2.313h-8.926v-1.27c0,0,0.001-0.021,0-0.025
				c0.013-0.022,0.035-0.051,0.072-0.104c0.27-0.388,0.109-0.634,0.025-0.725c-0.132-0.142-0.325-0.188-0.77-0.188h-1.418v8.437
				h2.089v-0.589h8.926v0.589h2.13v-7.285c0-0.024,0.002-0.053,0.007-0.082l0.06-0.126c0.14-0.301,0.13-0.542-0.027-0.711
				C361.56,282.282,361.302,282.215,360.823,282.215z M359.545,286.483v1.669h-8.926v-1.669H359.545z"/>
			<polygon fill="#363636" points="346.185,279.508 346.185,281.484 354.047,281.484 354.047,284.126 356.179,284.126 
				356.179,281.484 364.021,281.484 364.021,279.508 			"/>
		</g>
		<g>
			<path fill="#363636" d="M125.74,193.731h4.126v21.862c1.308-2.429,2.953-4.25,4.938-5.465c1.938-1.216,4.147-1.822,6.629-1.822
				c2.254,0,4.329,0.481,6.222,1.443c1.848,1.012,3.269,2.404,4.262,4.175c0.631,1.164,1.06,2.732,1.286,4.706
				c0.135,1.215,0.202,3.367,0.202,6.453v24.443h-4.126v-24.443c0-4.604-0.541-7.818-1.624-9.64
				c-1.263-2.075-3.608-3.112-7.035-3.112c-3.156,0-5.726,1.214-7.71,3.643c-2.029,2.48-3.043,5.77-3.043,9.869v23.684h-4.126
				V193.731z"/>
		</g>
		<path fill="#363636" d="M206.838,212.277h4.792v6.314c1.623-2.292,3.639-4.046,6.051-5.262c2.514-1.263,5.315-1.894,8.407-1.894
			c5.657,0,10.135,2.034,13.435,6.103c3.037,3.648,4.558,8.163,4.558,13.54c0,5.286-1.521,9.775-4.558,13.469
			c-3.3,4.069-7.778,6.104-13.435,6.104c-3.091,0-5.867-0.632-8.33-1.894c-2.514-1.262-4.557-3.062-6.129-5.403v20.7h-4.792
			L206.838,212.277L206.838,212.277z M214.695,220.065c-2.306,2.947-3.458,6.594-3.458,10.943c0,4.256,1.152,7.857,3.458,10.804
			c2.566,3.32,6.102,4.98,10.608,4.98c4.294,0,7.726-1.66,10.293-4.98c2.303-2.947,3.458-6.548,3.458-10.804
			c0-4.301-1.153-7.95-3.458-10.943c-2.567-3.272-5.998-4.911-10.293-4.911C220.797,215.155,217.261,216.793,214.695,220.065z"/>
		<path fill="#363636" d="M286.526,217.54c3.194,3.647,4.792,8.162,4.792,13.539c0,5.286-1.598,9.753-4.792,13.399
			c-3.563,4.067-8.356,6.104-14.38,6.104c-6.024,0-10.793-2.036-14.3-6.104c-3.142-3.694-4.714-8.161-4.714-13.399
			c0-5.377,1.572-9.892,4.714-13.539c3.508-4.069,8.275-6.103,14.3-6.103C278.169,211.437,282.962,213.471,286.526,217.54z
			 M261.539,220.065c-2.358,2.994-3.535,6.642-3.535,10.943c0,4.209,1.177,7.812,3.535,10.804c2.617,3.273,6.153,4.911,10.606,4.911
			c4.452,0,8.015-1.637,10.687-4.911c2.408-2.992,3.613-6.595,3.613-10.804c0-4.301-1.205-7.95-3.613-10.943
			c-2.672-3.272-6.235-4.911-10.687-4.911C267.694,215.155,264.157,216.793,261.539,220.065z"/>
		<path fill="#363636" d="M302.253,194.345h4.794v7.879h-4.794V194.345z M302.253,212.277h4.794v37.252h-4.794V212.277z"/>
		<path fill="#363636" d="M318.741,212.277h4.636v6.034c1.518-2.339,3.431-4.07,5.736-5.192c2.304-1.122,2.931-1.683,6.021-1.683
			c2.829,0,4.311,0.444,6.509,1.333c2.2,0.889,3.85,2.175,4.949,3.858c0.681,1.076,1.152,2.409,1.415,3.999
			c0.157,1.077,0.236,2.806,0.236,5.191v23.711h-4.793v-23.221c0-4.069-0.656-6.875-1.964-8.418
			c-1.521-1.824-3.262-2.736-7.294-2.736c-3.877,0-4.897,1.099-7.202,3.297c-2.307,2.246-3.458,5.309-3.458,9.191v21.888h-4.793
			L318.741,212.277L318.741,212.277z"/>
		<path fill="#363636" d="M366.48,211.761h7.779v3.508h-7.779v27.29c0,1.403,0.184,2.362,0.55,2.876
			c0.472,0.702,1.362,1.053,2.672,1.053c0.471,0,1.072-0.07,1.808-0.21c0.471-0.093,1.178-0.235,2.121-0.42l0.63-0.071v3.367
			c-1.049,0.235-2.07,0.445-3.064,0.633c-0.996,0.141-1.913,0.21-2.751,0.21c-2.671,0-4.505-0.607-5.499-1.823
			c-0.839-1.076-1.257-2.947-1.257-5.613v-27.29h-5.579v-3.508h5.579v-10.663h4.793v10.662H366.48z"/>
	</g>
</g>
</svg>
