<?xml version="1.0" encoding="utf-8"?>
<!-- Generator: Adobe Illustrator 16.0.0, SVG Export Plug-In . SVG Version: 6.00 Build 0)  -->
<!DOCTYPE svg PUBLIC "-//W3C//DTD SVG 1.1//EN" "http://www.w3.org/Graphics/SVG/1.1/DTD/svg11.dtd">
<svg version="1.1" id="Layer_1" xmlns="http://www.w3.org/2000/svg" xmlns:xlink="http://www.w3.org/1999/xlink" x="0px" y="0px"
	 width="500px" height="500px" viewBox="0 0 500 500" enable-background="new 0 0 500 500" xml:space="preserve">
<g>
	<path fill="#363636" d="M76.404,227.89v44.221h-6.633v-25.595l0.536-12.193H70.24l-13.468,37.786H50.81l-13.467-37.788h-0.067
		l0.536,12.193v25.594H31.18V227.89h10.653l8.91,25.594l3.082,10.521h0.135l3.147-10.521l8.845-25.594H76.404z"/>
	<path fill="#363636" d="M118.078,227.89l-15.813,27.27v16.951h-7.169V255.16l-15.745-27.27h7.975l7.904,14.271l3.484,6.566
		l3.483-6.566l7.84-14.271H118.078L118.078,227.89z"/>
	<path fill="#363636" d="M152.917,227.89c3.171,0,5.906,0.56,8.207,1.676c2.3,1.116,4.098,2.703,5.394,4.757
		c1.295,2.055,1.943,4.534,1.943,7.437c0,2.859-0.648,5.327-1.943,7.404c-1.296,2.076-3.094,3.674-5.394,4.79
		c-2.301,1.116-5.036,1.676-8.207,1.676h-9.851v16.481h-7.169V227.89H152.917z M151.777,249.464c3.173,0,5.506-0.658,7.002-1.977
		c1.496-1.316,2.244-3.227,2.244-5.729c0-2.546-0.748-4.478-2.244-5.795s-3.829-1.977-7.002-1.977h-8.71v15.477L151.777,249.464
		L151.777,249.464z"/>
	<path fill="#363636" d="M191.978,227.22c4.288,0,7.995,0.916,11.122,2.747c3.126,1.832,5.538,4.445,7.236,7.839
		c1.696,3.396,2.546,7.461,2.546,12.194c0,4.734-0.85,8.801-2.546,12.193c-1.698,3.396-4.11,6.009-7.236,7.84
		c-3.127,1.832-6.834,2.746-11.122,2.746c-4.243,0-7.929-0.914-11.055-2.746c-3.127-1.831-5.539-4.443-7.236-7.84
		c-1.696-3.394-2.546-7.459-2.546-12.193c0-4.733,0.85-8.799,2.546-12.194c1.697-3.394,4.109-6.007,7.236-7.839
		C184.049,228.136,187.734,227.22,191.978,227.22z M191.978,233.451c-2.77,0-5.147,0.648-7.135,1.943
		c-1.988,1.296-3.518,3.172-4.59,5.628c-1.072,2.457-1.608,5.449-1.608,8.978c0,3.484,0.536,6.466,1.608,8.945
		c1.072,2.479,2.602,4.365,4.59,5.66c1.986,1.297,4.365,1.942,7.135,1.942c2.814,0,5.215-0.646,7.203-1.942
		c1.986-1.295,3.517-3.183,4.589-5.66c1.072-2.479,1.608-5.461,1.608-8.945c0-3.528-0.536-6.521-1.608-8.978
		c-1.072-2.456-2.603-4.332-4.589-5.628C197.192,234.1,194.792,233.451,191.978,233.451z"/>
	<path fill="#363636" d="M237.269,227.89c4.734,0,8.498,1.185,11.29,3.552c2.791,2.368,4.188,5.561,4.188,9.581
		c0,4.153-1.396,7.359-4.188,9.614c-2.792,2.256-6.556,3.385-11.29,3.385l-0.67,0.4h-10.251v17.688h-7.102V227.89H237.269z
		 M236.732,248.459c2.903,0,5.06-0.592,6.466-1.775c1.407-1.183,2.11-3.004,2.11-5.461c0-2.411-0.703-4.221-2.11-5.427
		c-1.406-1.206-3.563-1.809-6.466-1.809h-10.385v14.472H236.732z M240.954,249.934l14.403,22.177h-8.239l-12.328-19.363
		L240.954,249.934z"/>
	<path fill="#363636" d="M291.808,227.89v6.164h-15.142v38.057h-7.169v-38.057h-15.144v-6.164H291.808L291.808,227.89z"/>
	<path fill="#363636" d="M328.054,234.054h-24.79v12.864h19.43v6.164h-19.43v19.027h-7.169V227.89h31.959V234.054L328.054,234.054z"
		/>
	<path fill="#363636" d="M350.432,227.22c4.288,0,7.995,0.916,11.122,2.747c3.126,1.832,5.538,4.445,7.235,7.839
		c1.696,3.396,2.547,7.461,2.547,12.194c0,4.734-0.851,8.801-2.547,12.193c-1.697,3.396-4.109,6.009-7.235,7.84
		c-3.127,1.832-6.834,2.746-11.122,2.746c-4.244,0-7.929-0.914-11.055-2.746c-3.127-1.831-5.539-4.443-7.236-7.84
		c-1.698-3.394-2.546-7.459-2.546-12.193c0-4.733,0.848-8.799,2.546-12.194c1.697-3.394,4.109-6.007,7.236-7.839
		C342.503,228.136,346.188,227.22,350.432,227.22z M350.432,233.451c-2.771,0-5.148,0.648-7.136,1.943
		c-1.987,1.296-3.518,3.172-4.589,5.628c-1.072,2.457-1.608,5.449-1.608,8.978c0,3.484,0.536,6.466,1.608,8.945
		c1.071,2.479,2.602,4.365,4.589,5.66c1.986,1.297,4.365,1.942,7.136,1.942c2.813,0,5.215-0.646,7.203-1.942
		c1.985-1.295,3.517-3.183,4.589-5.66c1.072-2.479,1.607-5.461,1.607-8.945c0-3.528-0.535-6.521-1.607-8.978
		c-1.072-2.456-2.604-4.332-4.589-5.628C355.646,234.1,353.245,233.451,350.432,233.451z"/>
	<path fill="#363636" d="M384.868,265.945h24.389v6.164h-31.558V227.89h7.169V265.945L384.868,265.945z"/>
	<path fill="#363636" d="M420.715,227.89v44.221h-7.169V227.89H420.715z"/>
	<path fill="#363636" d="M447.915,227.22c4.288,0,7.995,0.916,11.122,2.747c3.126,1.832,5.538,4.445,7.236,7.839
		c1.696,3.396,2.546,7.461,2.546,12.194c0,4.734-0.85,8.801-2.546,12.193c-1.698,3.396-4.11,6.009-7.236,7.84
		c-3.127,1.832-6.834,2.746-11.122,2.746c-4.243,0-7.929-0.914-11.055-2.746c-3.127-1.831-5.539-4.443-7.235-7.84
		c-1.698-3.394-2.547-7.459-2.547-12.193c0-4.733,0.849-8.799,2.547-12.194c1.696-3.394,4.108-6.007,7.235-7.839
		C439.987,228.136,443.672,227.22,447.915,227.22z M447.915,233.451c-2.77,0-5.147,0.648-7.136,1.943
		c-1.986,1.296-3.517,3.172-4.589,5.628c-1.072,2.457-1.608,5.449-1.608,8.978c0,3.484,0.536,6.466,1.608,8.945
		c1.072,2.479,2.603,4.365,4.589,5.66c1.987,1.297,4.366,1.942,7.136,1.942c2.814,0,5.216-0.646,7.203-1.942
		c1.986-1.295,3.518-3.183,4.589-5.66c1.072-2.479,1.608-5.461,1.608-8.945c0-3.528-0.536-6.521-1.608-8.978
		c-1.071-2.456-2.603-4.332-4.589-5.628C453.131,234.1,450.73,233.451,447.915,233.451z"/>
</g>
</svg>
