<?xml version="1.0" encoding="utf-8"?>
<!-- Generator: Adobe Illustrator 16.0.0, SVG Export Plug-In . SVG Version: 6.00 Build 0)  -->
<!DOCTYPE svg PUBLIC "-//W3C//DTD SVG 1.1//EN" "http://www.w3.org/Graphics/SVG/1.1/DTD/svg11.dtd">
<svg version="1.1" id="Layer_1" xmlns="http://www.w3.org/2000/svg" xmlns:xlink="http://www.w3.org/1999/xlink" x="0px" y="0px"
	 width="500px" height="500px" viewBox="0 0 500 500" enable-background="new 0 0 500 500" xml:space="preserve">
<g>
	<g>
		<path fill="#394754" d="M170.563,348.411c0.661-0.572,1.292-0.572,1.889,0c0.314,0.284,0.685,0.708,1.108,1.276
			c0.424,0.564,0.857,1.197,1.301,1.888c0.444,0.694,0.877,1.428,1.302,2.202c0.423,0.769,0.813,1.482,1.163,2.145
			c0.122-0.971,0.296-2.07,0.513-3.281c0.227-1.214,0.453-2.412,0.689-3.595c0.236-1.178,0.444-2.28,0.637-3.307
			c0.191-1.024,0.32-1.849,0.379-2.482c0.187-0.094,0.385-0.174,0.591-0.235c0.207-0.064,0.434-0.064,0.68,0
			c0.474,0.256,0.779,0.871,0.902,1.842c0.123,0.98,0.173,2.091,0.143,3.338c-0.034,1.24-0.107,2.507-0.235,3.803
			c-0.128,1.292-0.188,2.36-0.188,3.213c-0.034,1.321-0.167,2.775-0.404,4.352c-0.235,1.578-0.605,3.119-1.107,4.635
			c-0.251,0.783-0.616,1.202-1.089,1.251c-0.474,0.045-0.946-0.153-1.419-0.592c-0.252-0.253-0.439-0.532-0.567-0.828
			c-0.123-0.302-0.202-0.57-0.236-0.826c-0.438-0.76-0.873-1.612-1.297-2.573c-0.428-0.966-0.847-1.947-1.251-2.955
			c-0.415-1.008-0.817-1.994-1.231-2.953c-0.409-0.967-0.854-1.823-1.326-2.582c-0.473,0.759-0.921,1.615-1.345,2.582
			c-0.425,0.959-0.844,1.945-1.252,2.953c-0.414,1.008-0.818,1.989-1.231,2.955c-0.409,0.961-0.833,1.813-1.277,2.573
			c-0.028,0.256-0.107,0.524-0.23,0.826c-0.128,0.296-0.315,0.575-0.572,0.828c-0.473,0.438-0.946,0.637-1.419,0.592
			c-0.473-0.049-0.838-0.468-1.084-1.251c-0.502-1.516-0.877-3.057-1.114-4.635c-0.235-1.575-0.365-3.029-0.403-4.352
			c0-0.853-0.06-1.921-0.188-3.213c-0.124-1.296-0.202-2.563-0.236-3.803c-0.029-1.247,0.021-2.355,0.147-3.338
			c0.124-0.971,0.424-1.586,0.896-1.842c0.252-0.064,0.479-0.064,0.686,0c0.202,0.063,0.398,0.143,0.587,0.235
			c0.034,0.636,0.147,1.458,0.335,2.482c0.188,1.026,0.399,2.129,0.64,3.307c0.231,1.183,0.474,2.382,0.705,3.595
			c0.242,1.211,0.419,2.312,0.547,3.281c0.315-0.66,0.681-1.376,1.109-2.145c0.429-0.774,0.862-1.508,1.326-2.202
			c0.454-0.688,0.896-1.322,1.321-1.888C169.874,349.119,170.249,348.695,170.563,348.411z"/>
		<path fill="#394754" d="M198.639,354.506c0-1.641,0.192-3.156,0.586-4.558c0.399-1.403,0.937-2.607,1.637-3.616
			c0.689-1.007,1.527-1.805,2.504-2.393c0.976-0.58,2.029-0.871,3.163-0.871c1.017,0,1.963,0.218,2.864,0.66
			c0.902,0.438,1.686,1.084,2.36,1.912c0.68,0.838,1.212,1.848,1.605,3.03c0.399,1.179,0.597,2.511,0.597,3.992
			c0,1.922-0.262,3.681-0.783,5.269c-0.519,1.598-1.193,2.967-2.031,4.115c-0.838,1.151-1.773,2.04-2.813,2.67
			c-1.04,0.631-2.065,0.946-3.07,0.946c-0.946,0-1.818-0.325-2.622-0.972c-0.808-0.646-1.508-1.486-2.109-2.526
			c-0.592-1.04-1.064-2.229-1.39-3.569C198.802,357.256,198.639,355.896,198.639,354.506z M202.275,354.506
			c0,1.104,0.074,2.124,0.212,3.051c0.147,0.926,0.354,1.741,0.642,2.437c0.286,0.69,0.641,1.235,1.063,1.63
			c0.424,0.391,0.907,0.593,1.439,0.593c0.542,0,1.083-0.271,1.631-0.804c0.552-0.537,1.05-1.23,1.494-2.084
			c0.438-0.85,0.798-1.805,1.084-2.859c0.286-1.06,0.429-2.113,0.429-3.193c0-1.791-0.389-3.207-1.158-4.248
			c-0.773-1.045-1.666-1.562-2.671-1.562c-0.571,0-1.104,0.183-1.605,0.541c-0.508,0.365-0.946,0.856-1.331,1.49
			c-0.375,0.635-0.675,1.378-0.897,2.241C202.39,352.607,202.275,353.529,202.275,354.506z"/>
		<path fill="#394754" d="M231.017,354.506c0-1.641,0.202-3.156,0.591-4.558c0.396-1.403,0.941-2.607,1.631-3.616
			c0.69-1.007,1.527-1.805,2.509-2.393c0.971-0.58,2.029-0.871,3.164-0.871c1.01,0,1.966,0.218,2.862,0.66
			c0.897,0.438,1.687,1.084,2.366,1.912c0.675,0.838,1.212,1.848,1.603,3.03c0.394,1.179,0.591,2.511,0.591,3.992
			c0,1.922-0.262,3.681-0.779,5.269c-0.517,1.598-1.198,2.967-2.035,4.115c-0.833,1.151-1.77,2.04-2.809,2.67
			c-1.044,0.631-2.065,0.946-3.075,0.946c-0.946,0-1.823-0.325-2.621-0.972c-0.804-0.646-1.508-1.486-2.104-2.526
			c-0.602-1.04-1.064-2.229-1.396-3.569C231.179,357.256,231.017,355.896,231.017,354.506z M234.658,354.506
			c0,1.104,0.068,2.124,0.212,3.051c0.144,0.926,0.354,1.741,0.636,2.437c0.286,0.69,0.641,1.235,1.063,1.63
			c0.43,0.391,0.907,0.593,1.439,0.593c0.542,0,1.084-0.271,1.636-0.804c0.552-0.537,1.045-1.23,1.488-2.084
			c0.443-0.85,0.804-1.805,1.084-2.859c0.286-1.06,0.429-2.113,0.429-3.193c0-1.791-0.389-3.207-1.158-4.248
			c-0.773-1.045-1.66-1.562-2.671-1.562c-0.566,0-1.104,0.183-1.606,0.541c-0.502,0.365-0.946,0.856-1.321,1.49
			c-0.384,0.635-0.68,1.378-0.902,2.241C234.767,352.607,234.658,353.529,234.658,354.506z"/>
		<path fill="#394754" d="M279.09,349.119c-0.029,0.439-0.094,0.962-0.188,1.563c-0.093,0.598-0.274,1.228-0.541,1.889
			c-0.271,0.66-0.62,1.315-1.064,1.955c-0.443,0.649-1.025,1.242-1.749,1.779c0.311,0.783,0.597,1.514,0.853,2.174
			c0.252,0.66,0.522,1.291,0.804,1.893c0.281,0.597,0.598,1.184,0.945,1.746c0.341,0.568,0.754,1.166,1.229,1.797
			c0.286,0.352,0.394,0.686,0.335,1.016c-0.069,0.336-0.229,0.571-0.473,0.734c-0.701,0.443-1.41,0.365-2.13-0.236
			c-1.325-1.074-2.375-2.222-3.145-3.455c-0.778-1.228-1.429-2.58-1.961-4.06c-0.315,0.058-0.641,0.122-0.971,0.187
			c-0.33,0.065-0.677,0.114-1.016,0.144c-0.638,0.062-1.296,0.062-1.985,0c-0.064,1.263-0.154,2.519-0.263,3.784
			c-0.111,1.257-0.212,2.52-0.307,3.779c-0.285,0.158-0.526,0.268-0.733,0.332c-0.207,0.059-0.481,0.059-0.827,0
			c-0.409-0.223-0.738-0.824-0.994-1.795c-0.247-0.979-0.454-2.123-0.612-3.43c-0.157-1.307-0.276-2.643-0.354-3.992
			c-0.079-1.355-0.168-2.521-0.262-3.505c-0.123-1.508-0.173-2.999-0.138-4.46c0.023-1.468,0.33-3.035,0.896-4.709
			c0.25-0.688,0.646-1.053,1.179-1.085c0.538-0.031,1.044,0.176,1.518,0.614c0.158,0.158,0.329,0.361,0.518,0.611l0.192-0.089
			c1.134-0.665,2.365-1.084,3.705-1.256c1.341-0.174,2.583-0.067,3.736,0.306c1.146,0.379,2.099,1.039,2.838,1.986
			S279.188,347.543,279.09,349.119z M269.638,347.607c-0.257,0.088-0.492,0.183-0.734,0.261c-0.23,0.075-0.463,0.149-0.685,0.212
			c0.029,1.133,0.049,2.277,0.049,3.427c0,1.146-0.028,2.32-0.098,3.522c0.222-0.064,0.453-0.104,0.689-0.118
			c0.236-0.021,0.492-0.04,0.777-0.073c0.631-0.031,1.242-0.193,1.844-0.499c0.602-0.296,1.133-0.666,1.606-1.108
			c0.473-0.438,0.867-0.951,1.184-1.537c0.314-0.58,0.502-1.188,0.565-1.818c0.094-0.755,0-1.355-0.28-1.794
			c-0.285-0.442-0.68-0.739-1.183-0.901c-0.504-0.156-1.089-0.188-1.75-0.095C270.959,347.178,270.299,347.355,269.638,347.607z"/>
		<path fill="#394754" d="M302.399,343.871c0.563,1.673,0.863,3.236,0.894,4.703c0.033,1.467-0.016,2.957-0.144,4.469
			c-0.094,0.982-0.179,2.141-0.257,3.494c-0.078,1.355-0.197,2.681-0.354,3.972c-0.157,1.296-0.363,2.425-0.61,3.405
			c-0.256,0.98-0.591,1.578-0.995,1.794c-0.257,0.065-0.522,0.054-0.81-0.024c-0.284-0.08-0.531-0.19-0.754-0.35
			c-0.28-3.342-0.513-6.607-0.685-9.807c-0.178-3.203-0.183-6.377-0.021-9.532c0.028-0.536,0.107-1.004,0.231-1.418
			c0.122-0.41,0.39-0.8,0.804-1.179c0.473-0.442,0.976-0.646,1.513-0.609C301.747,342.813,302.144,343.177,302.399,343.871z"/>
		<path fill="#394754" d="M332.511,360.273c-0.603,0.564-1.233,0.564-1.895,0c-0.313-0.252-0.648-0.643-0.995-1.158
			c-0.345-0.52-0.698-1.109-1.063-1.771c-0.365-0.664-0.719-1.349-1.064-2.06c-0.345-0.703-0.659-1.394-0.945-2.056
			c-0.029,0.981-0.079,2.052-0.139,3.218c-0.068,1.165-0.128,2.317-0.191,3.452c-0.063,1.133-0.123,2.187-0.188,3.16
			c-0.063,0.979-0.113,1.768-0.143,2.367c-0.188,0.094-0.384,0.172-0.591,0.236c-0.207,0.061-0.436,0.061-0.682,0
			c-0.473-0.223-0.847-0.85-1.112-1.893c-0.267-1.041-0.474-2.198-0.611-3.471c-0.147-1.279-0.247-2.543-0.312-3.785
			c-0.063-1.24-0.123-2.218-0.191-2.912c-0.122-1.508-0.157-3.023-0.089-4.559c0.06-1.521,0.345-3.051,0.849-4.559
			c0.256-0.793,0.61-1.207,1.084-1.252c0.474-0.053,0.946,0.147,1.418,0.586c0.258,0.257,0.444,0.527,0.567,0.828
			c0.123,0.297,0.202,0.578,0.24,0.828c0.436,0.76,0.863,1.662,1.271,2.723c0.414,1.053,0.818,2.133,1.232,3.23
			c0.408,1.104,0.827,2.192,1.252,3.264c0.424,1.074,0.877,2,1.351,2.789c0.473-0.789,0.906-1.715,1.32-2.789
			c0.409-1.07,0.817-2.159,1.227-3.264c0.41-1.099,0.828-2.179,1.257-3.23c0.425-1.061,0.857-1.963,1.296-2.723
			c0.035-0.25,0.113-0.531,0.237-0.828c0.122-0.301,0.312-0.571,0.566-0.828c0.474-0.438,0.945-0.639,1.42-0.586
			c0.472,0.045,0.837,0.459,1.089,1.252c0.497,1.508,0.783,3.035,0.847,4.559c0.065,1.534,0.035,3.051-0.093,4.559
			c-0.063,0.694-0.128,1.672-0.188,2.912c-0.069,1.242-0.169,2.506-0.307,3.785c-0.146,1.271-0.35,2.43-0.62,3.471
			c-0.267,1.043-0.632,1.67-1.104,1.893c-0.257,0.061-0.483,0.061-0.689,0c-0.207-0.064-0.398-0.143-0.593-0.236
			c-0.059-0.601-0.117-1.39-0.167-2.367c-0.04-0.975-0.108-2.027-0.187-3.16c-0.079-1.135-0.148-2.287-0.214-3.452
			c-0.063-1.166-0.111-2.235-0.143-3.218c-0.28,0.662-0.587,1.353-0.916,2.056c-0.335,0.711-0.681,1.396-1.046,2.06
			c-0.363,0.661-0.714,1.252-1.063,1.771C333.15,359.632,332.821,360.021,332.511,360.273z"/>
	</g>
	<path fill="#394754" d="M336.837,281.941c0,22.033-17.864,39.896-39.898,39.896H206.5c-22.033,0-39.897-17.862-39.897-39.896
		v-90.44c0-22.028,17.864-39.895,39.897-39.895h90.438c22.034,0,39.898,17.867,39.898,39.895V281.941z"/>
	<path fill="#DBB07A" d="M210.309,322.779c-8.086-52.139-0.655-105.174-8.742-157.362c-1.438-9.262-15.479-5.315-14.055,3.875
		c8.087,52.137,0.655,105.172,8.742,157.366C197.692,335.918,211.733,331.973,210.309,322.779L210.309,322.779z"/>
	<path fill="#DBB07A" d="M193.844,231.004c-6.175-3.168-11.127-7.101-16.006-11.98c-6.658-6.643-16.962,3.657-10.304,10.305
		c5.682,5.683,11.772,10.581,18.958,14.257C194.84,247.858,202.212,235.287,193.844,231.004L193.844,231.004z"/>
	<path fill="#DBB07A" d="M233.78,304.797c8.596-52.152,0.711-105.263,9.296-157.365c1.507-9.19-12.527-13.128-14.051-3.873
		c-8.6,52.156-0.705,105.26-9.29,157.366C218.219,310.114,232.264,314.053,233.78,304.797L233.78,304.797z"/>
	<path fill="#DBB07A" d="M244.372,221.725c7.544-3.637,13.971-8.535,20.053-14.251c6.859-6.452-3.471-16.736-10.301-10.305
		c-5.233,4.918-10.605,8.841-17.11,11.979c-3.573,1.72-4.495,6.747-2.612,9.965C236.525,222.74,240.794,223.45,244.372,221.725
		L244.372,221.725z"/>
</g>
</svg>
