<?xml version="1.0" encoding="utf-8"?>
<!-- Generator: Adobe Illustrator 16.0.0, SVG Export Plug-In . SVG Version: 6.00 Build 0)  -->
<!DOCTYPE svg PUBLIC "-//W3C//DTD SVG 1.1//EN" "http://www.w3.org/Graphics/SVG/1.1/DTD/svg11.dtd">
<svg version="1.1" id="Layer_1" xmlns="http://www.w3.org/2000/svg" xmlns:xlink="http://www.w3.org/1999/xlink" x="0px" y="0px"
	 width="452.979px" height="442.477px" viewBox="0 0 452.979 442.477" enable-background="new 0 0 452.979 442.477"
	 xml:space="preserve">
<radialGradient id="SVGID_1_" cx="274.0896" cy="51.2798" r="214.0275" gradientTransform="matrix(1 0 0 -1 -47.6001 272.5176)" gradientUnits="userSpaceOnUse">
	<stop  offset="0.7688" style="stop-color:#FFFFFF;stop-opacity:0"/>
	<stop  offset="1" style="stop-color:#2E459C;stop-opacity:0.6"/>
</radialGradient>
<ellipse opacity="0.8" fill="url(#SVGID_1_)" stroke="#2E459C" stroke-miterlimit="10" enable-background="new    " cx="226.489" cy="221.238" rx="216.269" ry="211.763"/>
<g>
	<g id="txt_x5F_g">
		<g id="g1">
			<g>
				<defs>
					<path id="SVGID_2_" d="M203.738,187.372c8.646-10.749,16.013-23.456,22.649-35.634c2.902-5.326-5.576-10.893-9.309-12.366
						c-4.865-1.921-12.309-2.715-15.246,2.672c-11.112,20.394-23.171,40.306-43.253,53.034c-3.971,2.517-8.948,5.051-12.963,5.989
						c-0.037,0.009-1.742,0.241-2.201,0.354c-0.274-0.497-0.772-1.32-0.811-1.406c-0.838-1.896-1.119-3.675-1.345-5.703
						c-0.676-6.091,0.499-12.229,2.153-18.062c5.297-18.661,17.348-37.75,33.238-49.038c2.917-2.073,7.756-4.307,10.38-5.097
						c2.326-0.7,4.725-1.121,7.128-1.445c0.375-0.051,0.661-0.091,0.877-0.123c0.025-0.002,0.045-0.002,0.072-0.004
						c1.057-0.064,2.114-0.104,3.171-0.136c1.782-0.053,3.563-0.008,5.342,0.09c0.234,0.013,0.863,0.085,1.342,0.14
						c0.655,0.117,1.308,0.251,1.958,0.395c0.1,0.04,0.208,0.081,0.339,0.129c0.028,0.011,0.051,0.018,0.078,0.028
						c0.032,0.019,0.064,0.039,0.098,0.058c0.11,0.118,0.264,0.269,0.507,0.49c-2.056-1.87,0.573,1.463,0.343,0.764
						c0.284,0.611,0.542,1.233,0.761,1.872c2.214,5.843,9.937,9.146,15.732,9.329c5.001,0.158,10.669-2.731,8.466-8.548
						c-8.098-21.381-34.933-24.813-54.68-21.612c-21.775,3.529-37.491,20.279-48.371,38.305
						c-10.902,18.062-21.166,43.676-8.54,63.269c6.929,10.752,21.527,15.248,33.666,13.958c6.855-0.728,13.257-3.296,19.225-6.698
						C184.62,204.041,193.165,196.927,203.738,187.372z"/>
				</defs>
				<clipPath id="SVGID_3_">
					<use xlink:href="#SVGID_2_"  overflow="visible"/>
				</clipPath>
				<g id="p_x5F_g1_2_" clip-path="url(#SVGID_3_)">
					<path fill="none" stroke="#2E459C" stroke-width="30" stroke-linecap="round" stroke-miterlimit="10" d="M221.148,124.763
						c-4.986-14.373-22.292-13.658-31.091-13.071c-28.401,1.895-46.718,29.217-56.603,53.114
						c-3.371,8.149-5.848,19.323-4.672,28.174c1.793,13.496,11.351,19.916,24.611,16.551c12.829-3.256,27.278-15.252,36.078-24.639
						c8.799-9.972,17.679-25.19,24.638-38.002"/>
				</g>
			</g>
		</g>
		<g id="g2">
			<g>
				<defs>
					<path id="SVGID_4_" d="M174.663,212.312c-2.248,5.968-4.379,11.984-6.4,18.048c-0.976,2.924-1.948,5.84-2.926,8.75
						l-3.276,9.642c-6.228,18.078-12.937,35.836-21.795,53.013c-4.563,8.85-9.276,18.125-16.022,25.538
						c-0.675,0.741-1.889,1.907-3.209,3.123c-0.742,0.684-1.51,1.338-2.277,1.994c-0.132,0.112-0.236,0.201-0.333,0.285
						c-0.144,0.103-0.375,0.276-0.761,0.569c-0.052,0.039-0.177,0.129-0.325,0.235c-1.995,3.613-4.013,7.45-6.586,10.62
						c7.345-2.902,14.345-7.074,18.86-10.199c11.382-7.878,19.615-17.408,26.642-29.201c9.728-16.321,17.538-33.77,24.266-51.515
						c2.345-6.186,4.469-12.443,6.532-18.721l3.465-10.647c2.529-7.803,5.087-15.598,7.969-23.286
						c1.651-4.403,5.085-12.983,5.25-13.188c-12.141,8.043-19.51,14.313-29.189,25.002
						C174.586,212.353,174.625,212.333,174.663,212.312z"/>
				</defs>
				<clipPath id="SVGID_5_">
					<use xlink:href="#SVGID_4_"  overflow="visible"/>
				</clipPath>
				<g id="p_x5F_g2_1_" clip-path="url(#SVGID_5_)">
					<path fill="none" stroke="#2E459C" stroke-width="30" stroke-linecap="round" stroke-miterlimit="10" d="M191.817,190.686
						c-2.658,8.318-9.913,28.602-12.905,37.616c-9.822,29.599-22,62.771-39.011,89.17c-7.117,10.948-15.126,16.3-25.25,20.853"/>
				</g>
			</g>
		</g>
		<g id="g3">
			<g>
				<defs>
					<path id="SVGID_6_" d="M246.974,168.543c-4.534,2.003-10.864,4.976-13.281,9.625c-10.431,20.058-25.778,33.918-43.014,45.532
						l-25.182,15.264c-17.597,9.952-35.626,19.536-51.417,32.239c-10.038,8.076-20.925,16.93-26.498,28.3
						c-5.858,11.95-7.724,19.583-7.681,28.937c0.006,1.44,0.144,2.893,0.356,4.357c0.085,0.586,0.186,1.147,0.297,1.693
						c0.035,0.174,0.078,0.336,0.116,0.505c0.081,0.362,0.164,0.723,0.258,1.067c0.052,0.193,0.111,0.378,0.166,0.564
						c0.091,0.305,0.183,0.604,0.283,0.893c0.065,0.189,0.135,0.373,0.205,0.555c0.103,0.271,0.207,0.534,0.318,0.792
						c0.076,0.176,0.155,0.35,0.235,0.52c0.116,0.247,0.236,0.487,0.361,0.722c0.084,0.158,0.168,0.317,0.257,0.47
						c0.132,0.233,0.271,0.455,0.413,0.673c0.088,0.136,0.176,0.277,0.267,0.409c0.159,0.228,0.324,0.442,0.492,0.655
						c0.083,0.106,0.164,0.218,0.249,0.321c0.232,0.275,0.472,0.537,0.718,0.787c0.028,0.027,0.052,0.059,0.079,0.086
						c0.278,0.275,0.565,0.533,0.86,0.776c0.088,0.072,0.181,0.136,0.27,0.206c0.21,0.164,0.422,0.323,0.641,0.474
						c0.119,0.08,0.24,0.152,0.36,0.229c0.198,0.125,0.398,0.248,0.603,0.361c0.132,0.074,0.268,0.142,0.404,0.211
						c0.2,0.101,0.402,0.201,0.606,0.292c0.142,0.063,0.285,0.124,0.43,0.182c0.208,0.086,0.417,0.164,0.63,0.239
						c0.147,0.052,0.295,0.104,0.444,0.149c0.22,0.069,0.442,0.131,0.667,0.19c0.147,0.04,0.294,0.081,0.443,0.115
						c0.241,0.057,0.489,0.105,0.735,0.151c0.136,0.026,0.27,0.056,0.407,0.078c0.31,0.051,0.624,0.091,0.94,0.125
						c0.08,0.01,0.156,0.022,0.235,0.03c0.398,0.038,0.8,0.065,1.208,0.081c0.119,0.006,0.241,0.004,0.362,0.007
						c0.291,0.007,0.58,0.013,0.875,0.009c0.162-0.003,0.324-0.01,0.487-0.017c0.258-0.008,0.516-0.018,0.777-0.033
						c0.176-0.012,0.354-0.025,0.53-0.041c0.253-0.021,0.505-0.043,0.76-0.069c0.182-0.021,0.365-0.043,0.548-0.064
						c0.255-0.031,0.51-0.067,0.767-0.105c0.184-0.026,0.367-0.055,0.551-0.086c0.263-0.043,0.527-0.091,0.792-0.141
						c0.179-0.032,0.357-0.065,0.536-0.102c0.282-0.057,0.565-0.12,0.848-0.184c0.164-0.036,0.326-0.069,0.491-0.108
						c0.34-0.081,0.681-0.168,1.024-0.258c0.107-0.026,0.212-0.052,0.319-0.081c0.453-0.122,0.906-0.249,1.359-0.386
						c0.094-0.028,0.189-0.06,0.282-0.088c0.36-0.11,0.719-0.223,1.079-0.339c0.151-0.05,0.304-0.102,0.456-0.154
						c0.303-0.101,0.607-0.203,0.911-0.312c0.164-0.058,0.329-0.119,0.493-0.177c0.293-0.106,0.587-0.214,0.879-0.326
						c0.164-0.061,0.328-0.124,0.492-0.188c0.149-0.057,0.299-0.118,0.448-0.177c2.569-3.171,4.586-7.002,6.58-10.614
						c-0.234,0.167-0.538,0.384-0.81,0.577c-0.464,0.061-1.109,0.165-1.146,0.166c-0.825,0.053-0.806-0.011-1.608-0.138
						c-1.435-0.228-2.94-0.818-4.113-1.676c-4.022-2.947-5.73-8.472-6.41-13.153c-0.159-1.1-0.242-2.198-0.257-3.296
						c-0.137-10.611,6.153-21.088,11.871-29.452c8.282-12.119,18.559-21.33,31.092-28.657c0.001-0.001,0.002-0.001,0.004-0.003
						c5.161-3.017,10.587-6.054,16.097-9.125l24.992-14.259c0.569-0.342,1.15-0.679,1.715-1.022
						c27.264-16.548,53.129-36.667,68.105-65.466C258.86,164.345,247.385,168.361,246.974,168.543z"/>
				</defs>
				<clipPath id="SVGID_7_">
					<use xlink:href="#SVGID_6_"  overflow="visible"/>
				</clipPath>
				<g id="p_x5F_g2_2_" clip-path="url(#SVGID_7_)">
					<path fill="none" stroke="#2E459C" stroke-width="32" stroke-linecap="round" stroke-miterlimit="10" d="M113.476,340.383
						c-11.633,0.607-15.277-0.465-18.159-4.58c-8.212-11.732-2.513-27.5,3.754-37.813c6.269-10.31,13.715-20.158,23.005-27.93
						c5.538-4.635,11.636-8.876,17.858-12.542c5.719-3.368,11.57-6.502,17.355-9.755c21.576-12.13,43.53-24.235,61.913-41.011
						c10.56-9.636,19.471-20.824,26-33.592"/>
				</g>
			</g>
		</g>
	</g>
	<g id="txt_x5F_y_1_">
		<g id="y1">
			<g>
				<defs>
					<path id="SVGID_8_" d="M333.653,155.758c0.004-0.007,5.727-11.875,8.366-17.895c5.481-12.498,11.342-24.851,16.042-37.728
						c1.964-5.38-7.833-5.266-10.05-4.94c-4.778,0.7-11.521,3.009-13.482,8.381c-3.897,10.671-8.658,20.917-13.228,31.259
						c-4.428,10.02-8.806,19.948-14.182,29.426c-4.959,8.743-10.657,17.021-17.686,23.928c-3.369,3.31-7.007,6.182-10.887,8.736
						c-2.934,1.933-6.902,4.906-10.281,5.616c0.319-0.067-0.381,0.128-1.239,0.008c-1.667-0.235-3.025-0.762-4.538-1.526
						c-3.205-1.621-4.798-7.109-5.704-10.457c-2.388-8.816,0.103-18.291,2.911-26.616c2.921-8.665,6.992-16.909,10.895-25.089
						c4.7-9.853,10.041-19.272,16.604-27.803c3.666-4.765-3.099-6.912-6.248-6.929c-5.505-0.027-11.983,2.115-15.61,6.831
						c-7.313,9.501-12.982,20.094-18.163,31.084c-4.759,10.093-9.709,20.174-12.78,31.053c-2.844,10.063-3.402,21.397,1.277,30.89
						c5.268,10.685,17.041,13.567,27.545,12.101c10.41-1.454,20.399-5.727,29.535-11.779c-0.138,0.32,0.139-0.318,0,0
						C304.966,195.609,330.162,163.261,333.653,155.758z"/>
				</defs>
				<clipPath id="SVGID_9_">
					<use xlink:href="#SVGID_8_"  overflow="visible"/>
				</clipPath>
				<g id="p_x5F_y1_1_" clip-path="url(#SVGID_9_)">
					<path fill="none" stroke="#2E459C" stroke-width="30" stroke-miterlimit="10" d="M282.594,100.221
						c-6.105,12.755-19.58,31.305-25.092,43.171c-8.067,17.369-21.089,42.709-7.699,60.9c2.963,4.027,10.764,5.586,15.127,5.139
						c5.966-0.609,11.716-3.719,16.938-6.709c11.06-6.329,20.364-14.925,28.029-25.633c5.215-7.286,9.683-15.141,13.747-23.233
						c2.87-5.718,5.457-11.59,8.003-17.483c4.925-11.395,17.262-32.966,19.021-43.265"/>
				</g>
			</g>
		</g>
		<g id="y3">
			<g>
				<defs>
					<path id="SVGID_10_" d="M189.514,333.664c-3.865-7.897-0.527-18.489,4.417-25.794c7.677-11.348,18.923-20.979,29.317-29.276
						c18.139-14.482,37.169-27.433,55.29-41.898l39.482-35.434c1.225-1.213,2.461-2.413,3.674-3.641
						c9.559-9.678,20.143-18.189,29.444-28.15c4.328-4.634,10.673-7.276,16.682-4.849c4.845,1.957,7.27,8.493,3.182,12.871
						c-7.589,8.126-15.817,15.375-23.88,22.926c-7.445,6.971-14.478,14.438-21.895,21.449c-8.494,8.031-17.214,15.784-26.131,23.257
						l-36.826,28.388c-5.999,4.318-12,8.632-17.875,13.144c-10.016,7.692-21.147,16.162-28.825,26.705
						c-0.351,0.482-0.692,0.977-1.027,1.475c-0.659,0.976-1.285,1.978-1.856,3.017c-0.784,1.425-1.802,3.135-1.333,4.91
						c0.565,2.146,4.609,0.366,5.936-0.168c0.989-0.399,1.866-0.751,3.542-1.658C214.252,325.582,201.12,334.351,189.514,333.664"/>
				</defs>
				<clipPath id="SVGID_11_">
					<use xlink:href="#SVGID_10_"  overflow="visible"/>
				</clipPath>
				<g id="p_x5F_y2_2_" clip-path="url(#SVGID_11_)">
					<path fill="none" stroke="#2E459C" stroke-width="30" stroke-miterlimit="10" d="M223.377,319.604
						c-58.61,28.852,0.388-30.238,15.158-42.61c10.297-8.624,16.203-11.465,26.942-19.396
						c24.641-18.203,47.754-38.057,69.444-60.228c9.387-9.594,31.068-24.107,40.169-33.977"/>
				</g>
			</g>
		</g>
		<g id="y2">
			<g>
				<defs>
					<path id="SVGID_12_" d="M318.02,201.26c0.66-1.629,1.305-3.265,1.924-4.917c2.601-6.937,11.579-34.117,13.704-40.586
						c-11.873,10.302-29.005,36.201-40.766,48.16c-4.152,9.522-9.253,20.209-13.161,29.854c-0.395,0.973-0.79,1.947-1.184,2.921
						l-16.268,36.818c-5.474,10.616-11.752,20.71-19.577,29.852c-6.309,7.367-13.858,13.682-21.861,17.571
						c-9.956,5.723-20.598,9.745-31.318,12.729c1.117,2.282,2.831,4.342,5.289,6.027c12.466,8.558,29.759,0.995,41.382-5.768
						c11.2-6.514,20.824-15.65,29.208-25.935c14.985-18.382,24.664-40.6,33.704-62.864L318.02,201.26z"/>
				</defs>
				<clipPath id="SVGID_13_">
					<use xlink:href="#SVGID_12_"  overflow="visible"/>
				</clipPath>
				<g id="p_x5F_y2_3_" clip-path="url(#SVGID_13_)">
					<path fill="none" stroke="#2E459C" stroke-width="30" stroke-miterlimit="10" d="M329.86,150.75
						c-4.167,11.049-28.595,63.129-33.137,73.994c-5.382,12.871-10.184,26.039-16.113,38.637
						c-11.886,25.247-28.801,48.056-51.917,64.47c-7.949,5.644-26.838,11.283-28.195-0.491"/>
				</g>
			</g>
		</g>
	</g>
</g>
</svg>
