<?xml version="1.0" encoding="utf-8"?>
<!-- Generator: Adobe Illustrator 16.0.0, SVG Export Plug-In . SVG Version: 6.00 Build 0)  -->
<!DOCTYPE svg PUBLIC "-//W3C//DTD SVG 1.1//EN" "http://www.w3.org/Graphics/SVG/1.1/DTD/svg11.dtd">
<svg version="1.1" id="Layer_1" xmlns="http://www.w3.org/2000/svg" xmlns:xlink="http://www.w3.org/1999/xlink" x="0px" y="0px"
	 width="350px" height="350px" viewBox="102.047 0 350 350" enable-background="new 102.047 0 350 350" xml:space="preserve">
<linearGradient id="SVGID_1_" gradientUnits="userSpaceOnUse" x1="109.8923" y1="175.3455" x2="444.8928" y2="175.3455">
	<stop  offset="0" style="stop-color:#2E459C;stop-opacity:0.5"/>
	<stop  offset="0.4409" style="stop-color:#FFFFFF;stop-opacity:0"/>
	<stop  offset="1" style="stop-color:#2E459C;stop-opacity:0.7"/>
</linearGradient>
<path opacity="0.8" fill="url(#SVGID_1_)" stroke="#2E459C" stroke-miterlimit="10" d="M444.893,308.973
	c0,18.706-13.593,33.873-30.36,33.873h-274.28c-16.768,0-30.36-15.167-30.36-33.873V41.717c0-18.708,13.592-33.872,30.36-33.872
	h274.28c16.768,0,30.36,15.165,30.36,33.872V308.973z"/>
<g>
	<g id="txt_x5F_g">
		<g id="g1">
			<g>
				<defs>
					<path id="SVGID_2_" d="M253.713,136.446c8.867-11.024,16.423-24.056,23.23-36.547c2.976-5.463-5.72-11.173-9.548-12.684
						c-4.99-1.97-12.626-2.785-15.638,2.741c-11.396,20.916-23.766,41.34-44.362,54.395c-4.072,2.581-9.178,5.18-13.295,6.142
						c-0.037,0.009-1.787,0.248-2.257,0.364c-0.282-0.51-0.791-1.354-0.832-1.443c-0.859-1.943-1.147-3.769-1.378-5.849
						c-0.695-6.247,0.51-12.542,2.208-18.525c5.432-19.14,17.793-38.718,34.089-50.294c2.993-2.127,7.956-4.418,10.646-5.228
						c2.387-0.719,4.847-1.15,7.312-1.482c0.384-0.052,0.678-0.094,0.899-0.126c0.025-0.001,0.047-0.002,0.073-0.004
						c1.084-0.066,2.168-0.106,3.253-0.139c1.828-0.054,3.654-0.009,5.479,0.093c0.24,0.013,0.885,0.087,1.376,0.143
						c0.673,0.121,1.342,0.257,2.009,0.405c0.102,0.04,0.213,0.082,0.348,0.132c0.029,0.011,0.052,0.019,0.08,0.028
						c0.032,0.02,0.066,0.04,0.101,0.06c0.113,0.12,0.271,0.275,0.521,0.502c-2.11-1.918,0.587,1.5,0.351,0.783
						c0.292,0.627,0.557,1.266,0.782,1.92c2.27,5.993,10.19,9.381,16.136,9.568c5.128,0.162,10.942-2.802,8.683-8.768
						c-8.305-21.931-35.829-25.449-56.083-22.167c-22.333,3.619-38.451,20.799-49.61,39.288
						c-11.181,18.524-21.708,44.795-8.759,64.89c7.106,11.028,22.079,15.639,34.528,14.316c7.031-0.746,13.597-3.381,19.719-6.87
						C234.105,153.544,242.868,146.247,253.713,136.446z"/>
				</defs>
				<clipPath id="SVGID_3_">
					<use xlink:href="#SVGID_2_"  overflow="visible"/>
				</clipPath>
				<g id="p_x5F_g1_2_" clip-path="url(#SVGID_3_)">
					<path fill="none" stroke="#2E459C" stroke-width="30" stroke-linecap="round" stroke-miterlimit="10" d="M271.571,72.233
						c-5.113-14.742-22.862-14.007-31.889-13.405c-29.13,1.943-47.915,29.966-58.055,54.476c-3.457,8.358-5.998,19.818-4.791,28.896
						c1.838,13.842,11.641,20.427,25.242,16.976c13.158-3.339,27.978-15.643,37.003-25.27c9.024-10.228,18.131-25.836,25.27-38.977"
						/>
				</g>
			</g>
		</g>
		<g id="g2">
			<g>
				<defs>
					<path id="SVGID_4_" d="M223.893,162.026c-2.305,6.12-4.492,12.292-6.565,18.511c-0.999,2.998-1.998,5.989-3.001,8.975
						l-3.359,9.889c-6.388,18.542-13.269,36.754-22.354,54.371c-4.681,9.076-9.514,18.59-16.433,26.193
						c-0.692,0.76-1.938,1.956-3.292,3.203c-0.762,0.701-1.549,1.373-2.336,2.045c-0.136,0.116-0.241,0.207-0.342,0.293
						c-0.147,0.104-0.384,0.283-0.78,0.583c-0.053,0.041-0.182,0.133-0.333,0.241c-2.046,3.707-4.116,7.642-6.753,10.894
						c7.532-2.978,14.711-7.257,19.342-10.461c11.676-8.08,20.118-17.854,27.326-29.95c9.977-16.739,17.987-34.637,24.888-52.836
						c2.405-6.343,4.584-12.763,6.699-19.2l3.554-10.921c2.594-8.003,5.218-15.997,8.175-23.882
						c1.693-4.516,5.214-13.316,5.384-13.527c-12.451,8.25-20.01,14.681-29.937,25.644
						C223.815,162.068,223.854,162.048,223.893,162.026z"/>
				</defs>
				<clipPath id="SVGID_5_">
					<use xlink:href="#SVGID_4_"  overflow="visible"/>
				</clipPath>
				<g id="p_x5F_g2_1_" clip-path="url(#SVGID_5_)">
					<path fill="none" stroke="#2E459C" stroke-width="30" stroke-linecap="round" stroke-miterlimit="10" d="M241.488,139.845
						c-2.728,8.532-10.169,29.335-13.236,38.581c-10.073,30.357-22.563,64.38-40.012,91.455c-7.3,11.23-15.516,16.719-25.898,21.388
						"/>
				</g>
			</g>
		</g>
		<g id="g3">
			<g>
				<defs>
					<path id="SVGID_6_" d="M298.058,117.135c-4.65,2.055-11.143,5.104-13.621,9.871c-10.699,20.573-26.439,34.789-44.116,46.699
						l-25.828,15.656c-18.049,10.206-36.54,20.035-52.735,33.065c-10.295,8.282-21.461,17.364-27.177,29.025
						c-6.009,12.257-7.922,20.085-7.878,29.679c0.006,1.477,0.148,2.967,0.366,4.469c0.087,0.601,0.19,1.177,0.305,1.736
						c0.036,0.179,0.08,0.345,0.119,0.519c0.084,0.372,0.169,0.741,0.265,1.095c0.055,0.198,0.114,0.386,0.171,0.578
						c0.093,0.313,0.188,0.62,0.29,0.917c0.066,0.193,0.138,0.381,0.209,0.568c0.105,0.277,0.213,0.548,0.327,0.812
						c0.078,0.181,0.158,0.358,0.24,0.534c0.119,0.252,0.244,0.499,0.371,0.738c0.086,0.164,0.173,0.326,0.263,0.483
						c0.137,0.237,0.279,0.465,0.423,0.689c0.091,0.14,0.181,0.284,0.275,0.42c0.162,0.233,0.331,0.454,0.503,0.671
						c0.086,0.109,0.169,0.224,0.257,0.329c0.237,0.283,0.484,0.552,0.736,0.809c0.028,0.027,0.054,0.06,0.082,0.088
						c0.284,0.282,0.579,0.547,0.881,0.796c0.09,0.075,0.186,0.141,0.277,0.212c0.216,0.168,0.434,0.333,0.658,0.485
						c0.121,0.083,0.245,0.157,0.369,0.234c0.203,0.129,0.408,0.255,0.617,0.371c0.136,0.076,0.275,0.146,0.414,0.217
						c0.206,0.104,0.413,0.205,0.623,0.3c0.146,0.064,0.292,0.127,0.44,0.186c0.213,0.088,0.429,0.169,0.647,0.245
						c0.15,0.053,0.302,0.106,0.456,0.153c0.226,0.071,0.454,0.135,0.684,0.196c0.15,0.04,0.301,0.083,0.454,0.118
						c0.249,0.058,0.501,0.107,0.754,0.155c0.14,0.026,0.277,0.057,0.418,0.08c0.318,0.052,0.64,0.092,0.965,0.127
						c0.081,0.01,0.16,0.023,0.241,0.031c0.408,0.04,0.821,0.067,1.238,0.084c0.123,0.005,0.249,0.003,0.372,0.006
						c0.298,0.007,0.596,0.014,0.898,0.01c0.165-0.004,0.333-0.012,0.499-0.017c0.264-0.009,0.53-0.019,0.797-0.035
						c0.181-0.012,0.362-0.026,0.545-0.042c0.259-0.02,0.518-0.044,0.779-0.071c0.187-0.02,0.375-0.043,0.563-0.065
						c0.262-0.032,0.522-0.068,0.785-0.107c0.189-0.027,0.376-0.057,0.566-0.089c0.271-0.044,0.541-0.093,0.812-0.145
						c0.183-0.034,0.366-0.066,0.551-0.104c0.288-0.059,0.579-0.124,0.869-0.188c0.167-0.037,0.335-0.072,0.502-0.112
						c0.349-0.084,0.7-0.172,1.051-0.264c0.109-0.028,0.219-0.055,0.328-0.085c0.464-0.124,0.929-0.254,1.394-0.395
						c0.096-0.029,0.193-0.061,0.289-0.09c0.369-0.113,0.737-0.229,1.106-0.348c0.155-0.052,0.312-0.105,0.467-0.158
						c0.312-0.104,0.623-0.209,0.934-0.319c0.169-0.06,0.338-0.122,0.507-0.183c0.301-0.108,0.602-0.219,0.902-0.334
						c0.167-0.063,0.336-0.128,0.503-0.192c0.154-0.06,0.307-0.121,0.46-0.182c2.635-3.252,4.704-7.183,6.749-10.888
						c-0.24,0.172-0.552,0.396-0.83,0.593c-0.477,0.063-1.139,0.17-1.176,0.171c-0.846,0.054-0.827-0.013-1.649-0.143
						c-1.473-0.232-3.016-0.838-4.219-1.719c-4.125-3.021-5.876-8.688-6.573-13.49c-0.164-1.127-0.249-2.254-0.264-3.38
						c-0.14-10.884,6.311-21.629,12.174-30.209c8.494-12.429,19.035-21.875,31.889-29.39c0.002-0.001,0.003-0.002,0.006-0.003
						c5.292-3.096,10.857-6.21,16.509-9.36l25.633-14.624c0.584-0.351,1.18-0.697,1.759-1.049
						c27.964-16.972,54.492-37.606,69.852-67.145C310.248,112.829,298.48,116.948,298.058,117.135z"/>
				</defs>
				<clipPath id="SVGID_7_">
					<use xlink:href="#SVGID_6_"  overflow="visible"/>
				</clipPath>
				<g id="p_x5F_g2_2_" clip-path="url(#SVGID_7_)">
					<path fill="none" stroke="#2E459C" stroke-width="32" stroke-linecap="round" stroke-miterlimit="10" d="M161.136,293.382
						c-11.93,0.622-15.669-0.478-18.623-4.698c-8.423-12.033-2.579-28.205,3.85-38.782c6.43-10.576,14.066-20.676,23.596-28.647
						c5.68-4.753,11.934-9.104,18.315-12.862c5.866-3.455,11.865-6.67,17.8-10.005c22.129-12.441,44.646-24.856,63.502-42.063
						c10.83-9.883,19.97-21.358,26.666-34.453"/>
				</g>
			</g>
		</g>
	</g>
	<g id="txt_x5F_y_1_">
		<g id="y1">
			<g>
				<defs>
					<path id="SVGID_8_" d="M386.959,109.841c0.003-0.007,5.873-12.18,8.58-18.354c5.623-12.818,11.632-25.489,16.453-38.695
						c2.016-5.518-8.033-5.4-10.307-5.067c-4.9,0.717-11.817,3.086-13.829,8.597c-3.997,10.945-8.879,21.454-13.566,32.061
						c-4.54,10.276-9.031,20.459-14.544,30.18c-5.087,8.968-10.932,17.458-18.14,24.542c-3.455,3.395-7.187,6.34-11.166,8.96
						c-3.009,1.982-7.079,5.032-10.544,5.76c0.327-0.069-0.391,0.132-1.271,0.008c-1.709-0.241-3.103-0.78-4.654-1.564
						c-3.287-1.662-4.922-7.292-5.85-10.724c-2.449-9.043,0.104-18.761,2.984-27.298c2.996-8.888,7.172-17.342,11.174-25.734
						c4.82-10.104,10.298-19.766,17.03-28.515c3.761-4.887-3.178-7.089-6.408-7.106c-5.646-0.028-12.29,2.169-16.011,7.005
						c-7.499,9.746-13.314,20.61-18.628,31.881c-4.881,10.353-9.958,20.691-13.109,31.85c-2.916,10.322-3.489,21.946,1.312,31.683
						c5.403,10.958,17.479,13.914,28.25,12.411c10.677-1.491,20.924-5.874,30.293-12.082c-0.142,0.329,0.143-0.326,0,0
						C357.535,150.715,383.378,117.536,386.959,109.841z"/>
				</defs>
				<clipPath id="SVGID_9_">
					<use xlink:href="#SVGID_8_"  overflow="visible"/>
				</clipPath>
				<g id="p_x5F_y1_1_" clip-path="url(#SVGID_9_)">
					<path fill="none" stroke="#2E459C" stroke-width="30" stroke-miterlimit="10" d="M334.591,52.88
						c-6.264,13.082-20.082,32.108-25.736,44.278c-8.273,17.815-21.63,43.804-7.896,62.461c3.039,4.13,11.041,5.729,15.517,5.271
						c6.118-0.626,12.015-3.814,17.371-6.881c11.342-6.49,20.886-15.307,28.747-26.29c5.35-7.473,9.931-15.529,14.1-23.829
						c2.944-5.864,5.597-11.888,8.208-17.932c5.052-11.686,17.704-33.811,19.508-44.374"/>
				</g>
			</g>
		</g>
		<g id="y3">
			<g>
				<defs>
					<path id="SVGID_10_" d="M239.124,292.308c-3.964-8.101-0.539-18.964,4.53-26.455c7.875-11.64,19.409-21.518,30.069-30.027
						c18.605-14.854,38.123-28.137,56.708-42.973l40.494-36.343c1.256-1.244,2.524-2.475,3.768-3.733
						c9.805-9.926,20.66-18.655,30.2-28.872c4.439-4.752,10.946-7.462,17.109-4.973c4.969,2.007,7.455,8.711,3.263,13.201
						c-7.783,8.335-16.223,15.769-24.492,23.513c-7.636,7.15-14.849,14.81-22.455,22c-8.713,8.237-17.655,16.188-26.802,23.854
						l-37.771,29.114c-6.151,4.429-12.307,8.853-18.332,13.48c-10.272,7.89-21.689,16.575-29.563,27.39
						c-0.361,0.495-0.71,1.002-1.054,1.513c-0.676,1-1.317,2.027-1.904,3.093c-0.804,1.463-1.848,3.217-1.366,5.037
						c0.579,2.202,4.727,0.376,6.088-0.172c1.015-0.41,1.913-0.771,3.633-1.702C264.496,284.02,251.028,293.013,239.124,292.308"/>
				</defs>
				<clipPath id="SVGID_11_">
					<use xlink:href="#SVGID_10_"  overflow="visible"/>
				</clipPath>
				<g id="p_x5F_y2_2_" clip-path="url(#SVGID_11_)">
					<path fill="none" stroke="#2E459C" stroke-width="30" stroke-miterlimit="10" d="M273.856,277.888
						c-60.113,29.592,0.397-31.014,15.546-43.702c10.562-8.845,16.62-11.758,27.634-19.893
						c25.272-18.671,48.979-39.033,71.225-61.772c9.628-9.839,31.865-24.725,41.198-34.848"/>
				</g>
			</g>
		</g>
		<g id="y2">
			<g>
				<defs>
					<path id="SVGID_12_" d="M370.925,156.51c0.677-1.67,1.338-3.349,1.974-5.042c2.667-7.114,11.875-34.991,14.055-41.627
						c-12.178,10.566-29.748,37.13-41.811,49.396c-4.259,9.766-9.489,20.728-13.498,30.62c-0.404,0.997-0.81,1.997-1.214,2.995
						l-16.686,37.763c-5.614,10.888-12.052,21.24-20.078,30.616c-6.471,7.557-14.214,14.033-22.422,18.021
						c-10.211,5.87-21.126,9.996-32.121,13.057c1.146,2.341,2.904,4.453,5.425,6.183c12.786,8.775,30.523,1.021,42.444-5.915
						c11.485-6.682,21.357-16.053,29.955-26.602c15.37-18.853,25.297-41.64,34.568-64.474L370.925,156.51z"/>
				</defs>
				<clipPath id="SVGID_13_">
					<use xlink:href="#SVGID_12_"  overflow="visible"/>
				</clipPath>
				<g id="p_x5F_y2_3_" clip-path="url(#SVGID_13_)">
					<path fill="none" stroke="#2E459C" stroke-width="30" stroke-miterlimit="10" d="M383.069,104.707
						c-4.273,11.332-29.328,64.747-33.986,75.891c-5.52,13.201-10.444,26.707-16.525,39.628
						c-12.191,25.895-29.541,49.287-53.248,66.123c-8.152,5.788-27.526,11.572-28.919-0.504"/>
				</g>
			</g>
		</g>
	</g>
</g>
</svg>
