<?xml version="1.0" encoding="utf-8"?>
<!-- Generator: Adobe Illustrator 16.0.0, SVG Export Plug-In . SVG Version: 6.00 Build 0)  -->
<!DOCTYPE svg PUBLIC "-//W3C//DTD SVG 1.1//EN" "http://www.w3.org/Graphics/SVG/1.1/DTD/svg11.dtd">
<svg version="1.1" id="Layer_1" xmlns="http://www.w3.org/2000/svg" xmlns:xlink="http://www.w3.org/1999/xlink" x="0px" y="0px"
	 width="881.067px" height="371.981px" viewBox="0 0 881.067 371.981" enable-background="new 0 0 881.067 371.981"
	 xml:space="preserve">
	<style>

	#p_g1{
	stroke-dasharray:350;
	stroke-dashoffset:350;
	animation:txtani .7s forwards ease-in;
	}
	#p_g2{
	stroke-dasharray:550;
	stroke-dashoffset:550;
	animation:txtani .5s .5s forwards ease-in;
	}
	#p_a1{
	stroke-dasharray:370;
	stroke-dashoffset:370;
	animation:txtani .7s 1s forwards ease-in;
	}
	#p_a2{
	stroke-dasharray:200;
	stroke-dashoffset:200;
	animation:txtani .5s 1.5s forwards ease-in;
	}
	#p_y1{
	stroke-dasharray:350;
	stroke-dashoffset:350;
	animation:txtani .7s 2s forwards ease-in;
	}
	#p_y2{
	stroke-dasharray:550;
	stroke-dashoffset:550;
	animation:txtani .7s 2.5s forwards ease-in;
	}
	#p_e{
	stroke-dasharray:600;
	stroke-dashoffset:600;
	animation:txtani 1s 3s forwards ease-in;
	}
	#p_o{
	stroke-dasharray:650;
	stroke-dashoffset:650;
	animation:txtani 1.3s 3.7s forwards ease-in;
	}
	#p_n1{
	stroke-dasharray:200;
	stroke-dashoffset:200;
	animation:txtani .5s 4.5s forwards ease-in;
	}
	#p_n2{
	stroke-dasharray:300;
	stroke-dashoffset:300;
	animation:txtani .7s 4.7s forwards ease-in;
	}


	@keyframes txtani{
		100%{stroke-dashoffset:0}
	}
	</style>

<g id="txt_g">
	<defs>
		<path id="clipping_g" d="M198.498,127.154c-5.152,2.277-12.346,5.655-15.093,10.938
			c-11.854,22.795-29.295,38.546-48.882,51.744c2.874-8.867,5.781-17.725,9.057-26.462c1.876-5.004,3.843-9.971,5.893-14.902
			c10.089-12.385,18.126-26.477,25.813-40.582c3.298-6.053-6.337-12.379-10.579-14.053c-5.529-2.183-13.989-3.086-17.326,3.037
			c-12.628,23.176-26.333,45.805-49.155,60.27c-4.512,2.86-10.169,5.74-14.731,6.806c-0.042,0.01-1.98,0.274-2.501,0.403
			c-0.312-0.565-0.877-1.5-0.921-1.598c-0.953-2.154-1.272-4.176-1.528-6.481c-0.769-6.922,0.566-13.897,2.447-20.526
			c6.019-21.207,19.715-42.901,37.772-55.728c3.316-2.356,8.815-4.895,11.796-5.793c2.644-0.796,5.37-1.274,8.101-1.642
			c0.426-0.058,0.751-0.104,0.997-0.14c0.028-0.002,0.052-0.003,0.082-0.005c1.201-0.073,2.402-0.118,3.604-0.154
			c2.025-0.06,4.049-0.01,6.071,0.102c0.266,0.015,0.98,0.097,1.525,0.159c0.745,0.133,1.486,0.285,2.225,0.449
			c0.113,0.044,0.237,0.091,0.385,0.146c0.033,0.012,0.058,0.021,0.089,0.032c0.036,0.021,0.074,0.044,0.112,0.066
			c0.125,0.133,0.299,0.305,0.576,0.557c-2.337-2.125,0.651,1.662,0.389,0.868c0.323,0.695,0.616,1.402,0.866,2.127
			c2.515,6.64,11.292,10.394,17.879,10.602c5.683,0.179,12.125-3.104,9.621-9.715c-9.202-24.299-39.7-28.198-62.141-24.561
			c-24.746,4.01-42.605,23.046-54.97,43.531c-12.389,20.526-24.053,49.635-9.705,71.901c7.874,12.219,24.464,17.328,38.259,15.863
			c7.84-0.833,15.158-3.781,21.978-7.683c-2.554,6.782-4.977,13.62-7.274,20.51c-1.108,3.322-2.214,6.637-3.325,9.944
			c-19.998,11.309-40.487,22.2-58.432,36.637c-11.407,9.178-20.588,20.823-28.323,33.171c-6.944,11.087-12.047,23.51-10.115,36.826
			c4.476,30.837,41.727,11.19,56.271,1.123c12.936-8.953,22.291-19.783,30.278-33.185c11.054-18.548,19.93-38.378,27.576-58.544
			c2.665-7.028,5.079-14.141,7.423-21.275c0.647-0.388,1.307-0.772,1.949-1.162c30.984-18.804,60.378-41.669,77.397-74.398
			C212.006,122.382,198.966,126.947,198.498,127.154z M77.415,278.385c-5.186,10.056-10.542,20.597-18.208,29.022
			c-0.767,0.842-2.147,2.167-3.647,3.549c-0.844,0.777-1.716,1.521-2.588,2.266c-0.15,0.128-0.268,0.229-0.379,0.325
			c-0.163,0.116-0.426,0.313-0.864,0.646c-0.152,0.115-0.788,0.564-1.289,0.923c-0.528,0.069-1.261,0.188-1.302,0.189
			c-0.938,0.06-0.916-0.013-1.828-0.157c-1.631-0.258-3.341-0.929-4.674-1.905c-4.571-3.348-6.512-9.626-7.284-14.947
			c-1.933-13.315,6.03-26.726,13.199-37.216c9.413-13.774,21.094-24.242,35.339-32.569c5.865-3.429,12.031-6.88,18.293-10.371
			C95.106,238.684,87.481,258.863,77.415,278.385z"/>
	</defs>
	<clipPath id="clipping_g1">
		<use xlink:href="#clipping_g"  overflow="visible"/>
	</clipPath>
	<path id="p_g1" clip-path="url(#clipping_g1)" fill="none" stroke="#363636" stroke-width="30" stroke-linecap="round" stroke-miterlimit="0" d="M169.333,77.234
	C163.667,60.899,144.001,61.713,134,62.38c-32.277,2.153-53.092,33.203-64.326,60.361c-3.831,9.261-6.645,21.959-5.309,32.018
	c2.037,15.337,12.899,22.633,27.969,18.809c14.579-3.7,31-17.333,41-28c10-11.333,20.09-28.627,28-43.187"/>
	<path id="p_g2" clip-path="url(#clipping_g1)" fill="none" stroke="#363636" stroke-width="22" stroke-linecap="round" stroke-miterlimit="10" d="M157.667,109.567
	c-15.333,28-26.332,54.666-36.332,85.332c-10,34-25.001,71.335-44.334,101.335c-8.088,12.443-39.559,40.033-51.553,19.354
	c-7.508-12.948-1.971-29.774,5.152-41.493c7.124-11.718,15.586-22.91,26.144-31.742c6.293-5.266,13.223-10.087,20.294-14.252
	c6.5-3.828,13.148-7.39,19.723-11.086c24.52-13.785,49.469-27.542,70.361-46.607c12-10.951,22.127-23.665,29.547-38.175"/>
</g>
<g id="txt_a">
	<defs>
		<path id="clipping_a" d="M328.172,130.223c-3.403,0.645-6.786,1.637-9.953,3.049c-1.256,0.561-4.966,2.055-5.425,3.723
			c-3.367,12.228-10.603,25.043-21.31,32.328c-0.255-0.163-0.49-0.313-0.593-0.388c-2.888-2.112-3.527-6.864-3.869-10.13
			c-0.894-8.522,0.972-17.41,2.958-25.659c1.524-6.329,3.333-12.574,5.349-18.75c4.815-8.197,9.429-16.5,13.16-25.273
			c1.036-2.436-2.618-2.661-5.872-2.419c-2.832-0.403-7.268,0.366-8.066,0.518c-3.794,0.719-13.568,2.492-15.378,6.772
			c-3.537,8.363-6.764,16.857-9.572,25.486c-2.674,4.549-5.413,9.061-8.113,13.588c-5.928,9.938-12.139,19.99-20.097,28.457
			c-3.556,3.784-7.542,7.309-11.962,10.049c-1.769,1.096-2.74,1.568-3.819,1.979c-0.161-0.009-0.414-0.025-0.778-0.068
			c-8.264-0.98-12.333-9.108-14.003-16.341c-1.892-8.19-1.222-17.271,1.073-25.302c3.747-13.107,10.345-25.807,18.193-36.897
			c6.971-9.85,15.667-18.94,26.247-24.899c0.787-0.443,1.652-0.808,2.491-1.17c0.179-0.05,0.379-0.104,0.625-0.171
			c-2.513,0.68,1.446,0.125,2.183,0.207c5.926,0.658,11.826,3.514,16.251,7.449c0.288,0.296,0.575,0.591,0.863,0.887
			c1.176,1.208,5.244,0.616,6.551,0.476c3.447-0.369,6.872-1.202,10.142-2.341c1.714-0.597,10.913-3.692,7.959-6.726
			c-8.839-9.08-22.97-10.648-34.893-9.06c-15.458,2.06-30.006,8.069-42.464,17.403c-19.642,14.717-35.316,39.567-40.737,63.425
			c-3.546,15.608-2.229,37.083,15.926,42.213c5.927,1.675,12.713,0.625,18.639-0.354c7.961-1.315,15.97-3.968,23.224-7.487
			c6.497-3.153,12.264-7.16,17.497-11.833c0.132,3.46,0.72,6.822,2.031,9.908c1.855,4.366,6.002,6.714,10.59,7.1
			c11.475,0.964,23.725-2.915,33.82-8.125c15.412-7.954,26.833-23.097,31.407-39.706
			C339.586,128.002,329.908,129.894,328.172,130.223z M258.628,68.932C258.024,69.129,257.404,69.271,258.628,68.932L258.628,68.932
			z"/>
	</defs>
	<clipPath id="clipping_a1">
		<use xlink:href="#clipping_a"  overflow="visible"/>
	</clipPath>
	<path id="p_a1" clip-path="url(#clipping_a1)" fill="none" stroke="#363636" stroke-width="30" stroke-linecap="round" stroke-miterlimit="10" d="M293.5,78.15
		c-6-14.242-16.849-14.034-23.555-14.226c-24.861-0.709-46.282,22.055-58.046,41.637c-5.418,9.02-9.497,18.757-12.819,28.723
		c-5.154,17.396-3.177,47.251,21.92,43.949c26.667-4,42.037-28.615,54.704-49.948c7.079-11.922,14.615-23.887,19.963-36.719"
	/>
	<path id="p_a2" clip-path="url(#clipping_a1)" fill="none" stroke="#363636" stroke-width="30" stroke-linecap="round" stroke-miterlimit="10" d="M295.082,92.936
		c-5.556,13.046-13.451,25.055-16.964,38.801c-2.268,8.876-12.044,45.991,8.587,43.307c19.093-2.484,34.322-22.945,38.916-40.476"
	/>
</g>
<g id="txt_y">
	<defs>
		<path id="clipping_y" d="M462.463,122.538c-6.643-2.474-13.656,0.218-18.441,4.941
			c-10.281,10.152-21.982,18.827-32.549,28.691c-1.34,1.251-2.707,2.473-4.061,3.71c0.729-1.661,1.442-3.329,2.126-5.011
			c5.82-14.309,9.678-26.336,15.154-41.366c0.003-0.007,0.004-0.015,0.007-0.022c3.293-5.965,6.324-12.081,9.242-18.216
			c6.059-12.737,12.537-25.328,17.732-38.452c2.172-5.483-8.658-5.367-11.109-5.035c-5.281,0.713-12.736,3.067-14.904,8.543
			c-4.308,10.876-9.57,21.318-14.622,31.859c-4.894,10.212-9.735,20.332-15.677,29.991c-5.481,8.911-11.782,17.348-19.551,24.388
			c-3.724,3.374-7.746,6.3-12.034,8.904c-3.243,1.969-7.63,5-11.364,5.724c0.352-0.068-0.421,0.131-1.371,0.008
			c-1.842-0.239-3.343-0.775-5.016-1.555c-3.543-1.652-5.304-7.246-6.306-10.657c-2.639-8.985,0.114-18.642,3.217-27.126
			c3.229-8.831,7.73-17.233,12.043-25.571c5.196-10.042,11.099-19.644,18.354-28.336c4.053-4.856-3.425-7.045-6.906-7.062
			c-6.085-0.028-13.246,2.155-17.257,6.961c-8.083,9.685-14.35,20.481-20.077,31.681c-5.261,10.287-10.733,20.562-14.129,31.649
			c-3.143,10.257-3.76,21.809,1.414,31.484c5.823,10.89,18.838,13.828,30.448,12.333c11.507-1.482,22.551-5.836,32.649-12.005
			c-4.713,10.045-9.936,19.865-14.401,30.025c-0.436,0.992-0.872,1.984-1.308,2.977c-20.031,14.744-41.068,27.943-61.12,42.703
			c-11.489,8.456-23.92,18.273-32.407,29.839c-7.044,9.599-11.149,24.767,0.964,32.433c13.78,8.721,32.897,1.014,45.746-5.878
			c12.379-6.64,23.019-15.952,32.286-26.433c16.565-18.734,27.264-41.379,37.257-64.071c9.857-7.617,19.496-15.518,28.887-23.703
			c8.198-7.146,15.972-14.756,24.203-21.862c8.912-7.694,18.008-15.083,26.396-23.365
			C470.498,131.194,467.818,124.532,462.463,122.538z M289.867,284.82C288.186,284.707,289.11,284.615,289.867,284.82
			L289.867,284.82z M290.197,284.938c0.007,0.003,0.013,0.007,0.02,0.01c0.021,0.079,0.051,0.172,0.108,0.3
			C290.274,285.135,290.24,285.042,290.197,284.938z M324.144,263.941c-7.825,8.427-17.374,15.51-27.424,19.253
			c-2.06,0.768-4.424,1.664-6.185,1.649c-0.177-0.141-0.361-0.218-0.343-0.004c-0.013-0.001-0.025-0.002-0.038-0.003
			c-0.633-1.569-0.393-2.128,0.057-4.451c0.241-1.247,2.61-4.559,3.949-6.254c8.487-10.747,20.792-19.377,31.864-27.218
			c6.494-4.6,13.127-8.996,19.759-13.396C339.733,244.338,332.794,254.626,324.144,263.941z"/>
	</defs>
	<clipPath id="clipping_y1">
		<use xlink:href="#clipping_y"  overflow="visible"/>
	</clipPath>
	<path id="p_y1" clip-path="url(#clipping_y1)" fill="none" stroke="#363636" stroke-width="30" stroke-linecap="round" stroke-miterlimit="10" d="M361.254,67.899
			c-8.628,10.18-14.648,20.907-20.741,33.001c-8.918,17.703-23.313,43.529-8.512,62.069c3.275,4.103,11.899,5.692,16.724,5.237
			c6.594-0.622,12.949-3.791,18.723-6.838c12.224-6.45,22.51-15.211,30.983-26.125c5.766-7.426,10.704-15.431,15.197-23.679
			c3.173-5.827,6.032-11.813,8.847-17.819c5.443-11.613,11.534-23.232,16.192-35.178"
	/>
	<path id="p_y2" clip-path="url(#clipping_y1)" fill="none" stroke="#363636" stroke-width="30" stroke-linecap="round" stroke-miterlimit="10" d="M425.784,86.813
		c-6.667,14.667-20.225,49.42-26.225,64.087c-4.607,11.261-10.669,21.841-15.69,32.915c-5.949,13.119-11.256,26.539-17.812,39.378
		c-13.139,25.732-28.007,50.607-53.558,67.336c-8.786,5.752-38.299,14.686-38.421-6.734c-0.08-13.895,29.14-34.119,45.467-46.729
		c11.382-8.789,17.913-11.684,29.784-19.768c27.238-18.553,52.788-38.786,76.765-61.383c10.377-9.778,23.865-22.954,33.926-33.015"
	/>
</g>
<g id="txt_e">
	<defs>
		<path id="clipping_e" d="M459.285,144.27c14.482-0.147,28.619-3.88,41.619-10.185c13.107-6.357,25.568-14.717,34.852-26.052
			c12.781-15.603,23.441-44.388-2.725-52.811c-26.754-8.612-51.936,10.061-66.521,30.645c-6.707,9.464-11.508,20.103-15.748,30.849
			c-5.219,13.23-8.34,26.253-7.035,40.515c1.289,14.079,9.445,24.289,22.227,29.72c13.729,5.833,31.17,2.467,44.584-2.377
			c12.887-4.652,24.777-14.443,34.213-24.125c9.658-9.911,17.432-21.823,23.6-34.163c2.846-5.688-2.451-9.332-7.633-9.777
			c-5.883-0.505-14.207,1.956-17.066,7.672c-5.689,11.378-12.588,21.793-21.482,30.921c-4.02,4.125-8.473,7.627-13.268,10.811
			c-4.527,3.004-9.254,5.125-13.586,5.773c-9.908,1.482-19.625-1.157-23.691-12.704c-4.16-11.807-1.498-25.409,2.584-36.832
			c3.982-11.148,9.027-22.038,15.496-31.964c2.668-4.093,5.813-7.812,9.271-11.317c3.596-3.642,6.496-5.508,10.461-7.208
			c-2.75,1.18,0.924-0.234,1.328-0.345c3.846-1.05-2.602,0.243,1.396-0.222c0.68-0.079,2.848-0.142,4.215,0.139
			c3.602,0.74,5.426,2.312,6.418,5.772c2.09,7.274-2.811,16.923-7.52,23.267c-6.342,8.544-15.141,14.747-24.078,19.421
			c-10.076,5.27-17.574,7.052-29.143,7.17c-5.369,0.055-13.596,4.004-14.533,9.929C446.479,143.382,454.803,144.315,459.285,144.27
			L459.285,144.27z"/>
	</defs>
	<clipPath id="clipping_e1">
		<use xlink:href="#clipping_e"  overflow="visible"/>
	</clipPath>
	<path id="p_e" clip-path="url(#clipping_e1)" fill="none" stroke="#363636" stroke-width="30" stroke-linecap="round" stroke-miterlimit="10" d="M461,132.15
			c19.333,0,34-6.667,50-17.333c7.936-5.429,15.047-13.18,19.873-21.485c7.216-12.417,10.75-30.628-7.826-33.964
			c-27.145-4.875-46.29,24.033-55.604,45.369c-3.801,8.706-7.827,18.703-9.568,28.049c-1.982,10.633-1.689,24.822,4.815,33.915
			c6.143,8.585,16.77,11.601,26.905,10.78c5.433-0.44,12.132-1.484,17.127-3.758c22.497-10.242,38.854-30.109,49.61-51.905"
	/>
</g>
<g id="txt_o">
	<defs>
		<path id="clipping_o" d="M603.039,62.148c-13.287-0.098-22.619,8.561-30.686,18.129c-8.883,10.536-15.951,22.551-20.84,35.429
			c-4.723,12.444-8.742,25.88-4.502,38.963c3.479,10.73,14.605,18.039,24.934,21.028c18.328,5.306,38.904-1.961,53.34-13.601
			c17.105-13.793,26.646-38.734,29.775-59.859c2.289-15.458-4.521-29.334-19.148-35.659c-9.297-4.02-18.725-4.384-26.939,2.034
			c-7.197,5.624-8.076,14.795-7.219,23.292c1.822,18.053,13.77,33.374,29.83,41.31c17.506,8.649,37.473,6.567,52.699-5.84
			c6.775-5.521-14.479-17.908-20.563-12.949c-5.158,4.203-10.957,7.015-17.34,8.833c-1.855,0.529-4.143,0.939-6.012,0.744
			c0.189,0.02-3.783-0.884-2.189-0.412c1.035,0.493,0.848,0.418-0.561-0.223c0.965,0.607,0.785,0.506-0.541-0.301
			c-7.932-4.749-11.803-17.174-12.451-27.02c-0.406-6.137,1.1-11.509,6.004-15.341c0.908-0.709,2.045-1.495,3.117-1.939
			c1.863-0.771,2.027-0.217-0.688-0.917c-1.521-0.392-2.975-1.375-4.049-2.482c0.758,0.78,0.973,1.34,1.561,2.556
			c4.072,8.446,1.119,19.768-1.328,28.198c-5.893,20.303-16.238,39.81-35.309,50.106c-7.227,3.901-15.74,6.667-23.355,6.449
			c-3.086-0.088,1.855,0.322-1.119-0.169c-3.035-0.501,2.262,0.746-0.602-0.217c0.197,0.067,4.332,2.259,2.002,0.797
			c2.988,1.876-0.811-1.203,0.93,0.665c-2.762-2.963-3.697-9.018-3.615-13.914c0.123-7.511,2.965-14.97,5.422-21.973
			c2.846-8.116,6.73-15.793,11.26-23.092c3.994-6.437,8.648-12.63,13.912-18.084c4.326-4.481,10.266-9.753,16.861-9.705
			c4.988,0.037,6.65-3.585,3.434-7.374C615.342,65.224,608.789,62.19,603.039,62.148L603.039,62.148z"/>
	</defs>
	<clipPath id="clipping_o1">
		<use xlink:href="#clipping_o"  overflow="visible"/>
	</clipPath>
	<path id="p_o" clip-path="url(#clipping_o1)" fill="none" stroke="#363636" stroke-width="30" stroke-linecap="round" stroke-miterlimit="10" d="M609.335,69.566
		c-11.985-0.571-22.392,11.629-28.938,20.104c-7.646,9.898-13.978,21.122-18.132,32.918c-3.45,9.796-7.734,22.509-4.603,32.902
		c8.279,27.479,48.248,10.297,61.005-3.257c12-12,22-35.999,24.667-52.665c1.739-10.87,0.14-26.744-13.336-28.669
		c-5.198-0.742-12.532,4.555-14.747,8.86c-3.126,6.078-2.443,14.055-1.189,20.527c3.757,19.395,21.989,36.059,42.29,29.758
		c6.265-1.944,12.632-4.854,17.648-9.145"
	/>
</g>
<g id="txt_n">
	<defs>
		<path id="clipping_n" d="M704.379,162.291c9.152-15.88,17.441-32.224,25.643-48.609c4.016-8.027,8.645-15.709,12.734-23.695
			c2.834-5.533,7.283-11.822,6.285-18.336c-1.574-10.273-19.875-5.799-25.658-4.182c-9.047,2.529-16.449,7.934-23.535,13.911
			c-13.063,11.018-23.82,24.57-34.893,37.497c-3.229,3.768,10.697,2.993,11.34,2.906c5.645-0.761,13.486-2.188,17.418-6.777
			c7.742-9.039,11.729-15.326,20.1-23.792c1.196-1.21,3.826-4.344,2.633-2.106c-13.672,25.626-26.314,51.883-40.824,77.055
			c-2.49,4.323,10.121,3.07,11.342,2.906C691.684,168.432,701.627,167.042,704.379,162.291
			c7.635-13.181,15.393-26.259,24.436-38.536c8.764-11.899,17.988-23.447,26.736-35.363c3.336-4.543,3.704-6.057,8.185-9.511
			c0.973-0.75,2.386-0.539,2.386-0.539c7.265,5.25,4.174,21.66,1.633,29.422c-4.469,13.656-11.059,26.812-13.186,41.132
			c-1.293,8.698,0.516,16.217,9.236,19.452c9.594,3.558,21.254,1.581,31.002-0.248c10.027-1.881,19.832-5.029,29.346-8.672
			c15.021-5.751,28.529-14.074,42.184-22.491c1.033-0.637,4.057-2.036,3.664-3.859c-0.379-1.77-3.738-1.936-4.926-2.013
			c-6.529-0.419-15.092,0.976-20.74,4.458c-6.426,3.961-12.83,7.958-19.381,11.716c-2.424,1.391-4.879,2.738-7.371,4.002
			c-0.891,0.452-5.088,2.377-1.406,0.713c-4.186,1.893-8.555,3.326-12.774,5.134c0.473-0.137,0.939-0.3,1.396-0.48
			c-5.99,2.368-15.118,5.896-19.734-0.793c-0.49-0.712-0.806-1.523-1.032-2.354c-0.489-1.796-0.716-3.704-0.771-5.563
			c-0.03-0.99,0.012-1.981,0.116-2.966c0.107-1.009,0.278-2.009,0.472-3.005c0.189-0.974,0.4-1.943,0.619-2.911
			c0.2-0.885,0.409-1.768,0.638-2.645c0.206-0.791,0.432-1.576,0.666-2.359c0.055-0.181,0.111-0.362,0.164-0.543
			c3.998-13.663,10.914-26.519,13.389-40.616c1.529-8.716,0.428-20.438-8.539-24.757c-5.977-2.879-13.256-2.563-19.66-1.773
			c-8.998,1.109-18.137,3.568-26,8.187c-11.361,6.673-18.301,17.954-25.99,28.25c-7.715,10.331-15.943,20.268-23.367,30.816
			c-7.354,10.445-13.748,21.543-20.146,32.587"/>
	</defs>
	<clipPath id="clipping_n1">
		<use xlink:href="#clipping_n"  overflow="visible"/>
	</clipPath>
	<path id="p_n1" clip-path="url(#clipping_n1)" fill="none" stroke="#363636" stroke-width="30" stroke-linecap="round" stroke-miterlimit="10" d="M674.001,120.899
		c13.321-15.515,38.145-39.006,55.407-50.312c2.996-1.962,7.161-3.623,9.692-0.021c3.607,5.138-7.495,21.295-9.768,26
		c-3.611,7.477-7.287,13.173-10.999,20.599c-8.744,17.493-20.864,32.304-30.667,49.234"
	/>
	<path id="p_n2" clip-path="url(#clipping_n1)" fill="none" stroke="#363636" stroke-width="36" stroke-linecap="round" stroke-miterlimit="10" d="M720.564,114.815
		c7.67-10.598,11.251-12.234,19.251-22.581c8.649-11.187,20.683-19.151,33.519-20c6.228-0.412,15.016,5.983,13.916,18.667
		c-1.426,16.44-4.893,26.16-13.25,40c-7.258,12.02-12.65,24.125-4,31.333c5,4.167,27.333,3.834,39.436-2.813
		c12.422-6.822,38.387-16.859,50.564-24.854"
	/>
</g>
</svg>
