<?xml version="1.0" encoding="utf-8"?>
<!-- Generator: Adobe Illustrator 16.0.0, SVG Export Plug-In . SVG Version: 6.00 Build 0)  -->
<!DOCTYPE svg PUBLIC "-//W3C//DTD SVG 1.1//EN" "http://www.w3.org/Graphics/SVG/1.1/DTD/svg11.dtd">
<svg version="1.1" id="Layer_1" xmlns="http://www.w3.org/2000/svg" xmlns:xlink="http://www.w3.org/1999/xlink" x="0px" y="0px"
	 width="500px" height="500px" viewBox="0 0 500 500" enable-background="new 0 0 500 500" xml:space="preserve">
<g>
	<g>
		<polygon opacity="0.5" fill="none" stroke="#C0C0C0" stroke-width="0.3" stroke-miterlimit="10" points="297.559,335.598 
			270.948,357.057 236.96,353.423 215.496,326.813 219.137,292.824 245.745,271.36 279.737,275 301.199,301.611 		"/>
		<polygon opacity="0.9" fill="#C0C0C0" points="297.559,335.598 270.948,357.057 236.96,353.423 215.496,326.813 219.137,292.824 
			245.745,271.36 279.737,275 301.199,301.611 		"/>
	</g>
	<g>
		<polygon opacity="0.5" fill="none" stroke="#747474" stroke-width="0.3" stroke-miterlimit="10" points="347.656,294.006 
			314.365,321.718 271.227,317.776 243.511,284.483 247.46,241.345 280.752,213.636 323.889,217.577 351.606,250.87 		"/>
		<polygon opacity="0.9" fill="#747474" points="347.656,294.006 314.365,321.718 271.227,317.776 243.511,284.483 247.46,241.345 
			280.752,213.636 323.889,217.577 351.606,250.87 		"/>
	</g>
	<g>
		<polygon opacity="0.5" fill="none" stroke="#949494" stroke-width="0.3" stroke-miterlimit="10" points="291.807,252.423 
			239.829,287.991 177.935,276.378 142.365,224.407 153.97,162.506 205.951,126.943 267.844,138.543 303.412,190.522 		"/>
		<polygon opacity="0.9" fill="#949494" points="291.807,252.423 239.829,287.991 177.935,276.378 142.365,224.407 153.97,162.506 
			205.951,126.943 267.844,138.543 303.412,190.522 		"/>
	</g>
	<g>
		<polygon opacity="0.5" fill="none" stroke="#DBDBDB" stroke-width="0.3" stroke-miterlimit="10" points="332.209,272.619 
			280.334,288.536 232.399,263.108 216.484,211.234 241.91,163.3 293.783,147.385 341.719,172.81 357.635,224.685 		"/>
		<polygon opacity="0.9" fill="#DBDBDB" points="332.209,272.619 280.334,288.536 232.399,263.108 216.484,211.234 241.91,163.3 
			293.783,147.385 341.719,172.81 357.635,224.685 		"/>
	</g>
</g>
</svg>
