<?xml version="1.0" encoding="utf-8"?>
<!-- Generator: Adobe Illustrator 16.0.0, SVG Export Plug-In . SVG Version: 6.00 Build 0)  -->
<!DOCTYPE svg PUBLIC "-//W3C//DTD SVG 1.1//EN" "http://www.w3.org/Graphics/SVG/1.1/DTD/svg11.dtd">
<svg version="1.1" id="Layer_1" xmlns="http://www.w3.org/2000/svg" xmlns:xlink="http://www.w3.org/1999/xlink" x="0px" y="0px"
	 width="500px" height="500px" viewBox="0 0 500 500" enable-background="new 0 0 500 500" xml:space="preserve">
<path d="M125.5,119.5v249h249v-249H125.5z M237.532,307.32c0,0.807-0.649,1.46-1.46,1.46h-28.027c-0.81,0-1.464-0.653-1.464-1.46
	v-76.178c0-0.807,0.655-1.461,1.464-1.461h28.027c0.811,0,1.46,0.655,1.46,1.461V307.32z M292.682,308.776h-27.619
	c-0.806,0-1.461-0.652-1.461-1.459v-80.371c0-11.322-9.182-20.498-20.499-20.498h-60.284c-0.809,0-1.464,0.655-1.464,1.462v99.41
	c0,0.806-0.655,1.459-1.464,1.459h-28.034c-0.808,0-1.464-0.649-1.464-1.45V180.672c0-0.801,0.657-1.452,1.464-1.452h104.95
	c20.621,0,37.335,16.721,37.335,37.343v90.767l0.002-0.004C294.143,308.125,293.486,308.776,292.682,308.776z M349.608,307.32
	c0,0.807-0.657,1.46-1.467,1.46H320.12c-0.811,0-1.472-0.653-1.472-1.46V180.686c0-0.811,0.661-1.464,1.472-1.464h28.021
	c0.81,0,1.467,0.654,1.467,1.464V307.32z"/>
</svg>
