<?xml version="1.0" encoding="utf-8"?>
<!-- Generator: Adobe Illustrator 16.0.0, SVG Export Plug-In . SVG Version: 6.00 Build 0)  -->
<!DOCTYPE svg PUBLIC "-//W3C//DTD SVG 1.1//EN" "http://www.w3.org/Graphics/SVG/1.1/DTD/svg11.dtd">
<svg version="1.1" id="Layer_1" xmlns="http://www.w3.org/2000/svg" xmlns:xlink="http://www.w3.org/1999/xlink" x="0px" y="0px"
	 width="500px" height="500px" viewBox="0 0 500 500" enable-background="new 0 0 500 500" xml:space="preserve">
<g display="none">
	<path display="inline" fill="#394754" d="M335.837,265.941c0,22.034-17.864,39.896-39.898,39.896H205.5
		c-22.033,0-39.897-17.862-39.897-39.896v-90.44c0-22.028,17.864-39.895,39.897-39.895h90.439c22.034,0,39.898,17.867,39.898,39.895
		V265.941z"/>
	<path display="inline" fill="#DBB07A" d="M209.309,306.78c-8.086-52.139-0.655-105.175-8.742-157.363
		c-1.439-9.262-15.479-5.315-14.055,3.875c8.087,52.137,0.655,105.172,8.742,157.366
		C196.693,319.918,210.734,315.972,209.309,306.78L209.309,306.78z"/>
	<path display="inline" fill="#DBB07A" d="M192.844,215.004c-6.175-3.168-11.127-7.101-16.006-11.98
		c-6.658-6.643-16.962,3.657-10.304,10.305c5.682,5.683,11.773,10.581,18.958,14.257
		C193.84,231.858,201.212,219.287,192.844,215.004L192.844,215.004z"/>
	<path display="inline" fill="#DBB07A" d="M232.781,288.797c8.595-52.153,0.71-105.263,9.295-157.365
		c1.507-9.19-12.527-13.128-14.05-3.873c-8.6,52.156-0.705,105.26-9.29,157.366C217.219,294.114,231.264,298.053,232.781,288.797
		L232.781,288.797z"/>
	<path display="inline" fill="#DBB07A" d="M243.372,205.725c7.544-3.637,13.971-8.535,20.053-14.251
		c6.859-6.452-3.471-16.736-10.301-10.305c-5.233,4.918-10.605,8.841-17.11,11.979c-3.573,1.72-4.495,6.747-2.612,9.965
		C235.526,206.74,239.794,207.45,243.372,205.725L243.372,205.725z"/>
</g>
<g>
	<path stroke="#000000" stroke-width="2" stroke-miterlimit="10" d="M312.864,123.453h-74.781c0.284-1.91,0.578-3.819,0.893-5.727
		c2.067-12.607-17.185-18.008-19.273-5.313c-0.606,3.676-1.139,7.356-1.632,11.039h-29.27c-30.225,0-54.73,24.509-54.73,54.727
		v39.844c-1.985,3.051-2.443,7.011,0,10.515v73.704c0,24.913,16.654,45.923,39.429,52.546c0.386,2.934,0.792,5.866,1.247,8.797
		c1.974,12.701,21.234,7.288,19.28-5.32c-0.067-0.431-0.123-0.861-0.188-1.293h119.026c30.227,0,54.732-24.503,54.732-54.729V178.18
		C367.596,147.962,343.09,123.453,312.864,123.453z"/>
	<g>
		<path fill="#FCFCFC" d="M168.716,250.438c-2.227,0.651-4.758,0.522-7.362-0.811c-9.856-5.042-18.212-11.761-26.006-19.557
			c-0.498-0.497-0.914-1.011-1.278-1.532v73.704c0,24.913,16.654,45.923,39.429,52.546
			C168.948,320.162,168.946,285.289,168.716,250.438z"/>
		<path fill="#FCFCFC" d="M312.864,123.453h-74.781c-3.825,25.814-4.867,51.8-5.247,77.829c7.955-4.114,14.712-9.141,21.296-15.328
			c9.369-8.822,23.54,5.286,14.13,14.136c-8.343,7.842-17.159,14.561-27.509,19.55c-2.633,1.269-5.535,1.567-8.112,0.812
			c-0.267,37.816-0.239,75.659-6.417,113.144c-2.081,12.697-21.348,7.295-19.267-5.312c11.172-67.804,2.014-136.841,11.112-204.831
			h-29.27c-30.225,0-54.73,24.509-54.73,54.727v39.844c3.148-4.836,10.118-7.372,15.413-2.088
			c5.907,5.908,11.896,10.8,19.044,14.856c-0.389-27.784-1.5-55.522-5.774-83.077c-1.954-12.608,17.306-18.022,19.28-5.316
			c11.027,71.159,1.03,143.467,11.803,214.574h119.026c30.227,0,54.732-24.503,54.732-54.729V178.18
			C367.596,147.962,343.09,123.453,312.864,123.453z"/>
	</g>
	<g>
		<path fill="#231916" d="M264.161,324.541c0.201-0.802,0.453-1.354,0.754-1.655c0.301-0.3,0.627-0.477,0.979-0.526
			c0.35-0.05,0.728-0.013,1.129,0.112c0.402,0.126,0.802,0.213,1.204,0.264c1.403,0.15,2.734,0.263,3.988,0.338
			c1.254,0.076,2.535,0.102,3.84,0.076c1.303-0.025,2.671-0.087,4.101-0.188c1.431-0.101,2.998-0.251,4.703-0.452
			c0.854-0.1,1.469,0.063,1.846,0.489c0.376,0.426,0.564,0.916,0.564,1.469c0,0.401-0.076,0.804-0.227,1.202
			c-0.15,0.403-0.627,0.729-1.43,0.979c-2.058,0.603-3.939,0.98-5.644,1.131c-0.051,1.856-0.127,3.574-0.228,5.154
			c-0.101,1.581-0.276,3.099-0.526,4.554c-0.101,0.451-0.251,0.93-0.451,1.431c-0.201,0.501-0.491,0.966-0.866,1.391
			c-0.376,0.427-0.865,0.781-1.467,1.054c-0.603,0.277-1.33,0.416-2.184,0.416c-0.602,0-1.09-0.176-1.467-0.528
			c-0.376-0.35-0.565-0.952-0.565-1.806c0.051-1.604,0.063-3.373,0.038-5.307c-0.024-1.93-0.139-3.976-0.338-6.134
			c-0.804-0.048-1.594-0.086-2.371-0.112c-0.778-0.024-1.595-0.087-2.446-0.189c-0.903-0.098-1.693-0.362-2.371-0.789
			C264.05,326.486,263.862,325.696,264.161,324.541z M268.679,310.166c0-2.207,0.753-4.014,2.259-5.419
			c1.504-1.404,3.359-2.107,5.567-2.107c0.804,0,1.644,0.14,2.522,0.414c0.877,0.276,1.655,0.678,2.332,1.204
			c0.678,0.526,1.243,1.194,1.693,1.995c0.453,0.804,0.678,1.706,0.678,2.709c0,1.154-0.252,2.232-0.753,3.236
			c-0.501,1.005-1.154,1.907-1.956,2.709c-0.804,0.805-1.72,1.431-2.749,1.881c-1.028,0.452-2.095,0.678-3.197,0.678
			c-1.104,0-2.058-0.212-2.86-0.638c-0.802-0.427-1.468-0.98-1.993-1.656c-0.527-0.678-0.916-1.455-1.167-2.333
			C268.802,311.961,268.679,311.07,268.679,310.166z M273.947,310.09c0,1.406,0.527,2.108,1.58,2.108
			c0.703,0,1.343-0.227,1.919-0.677c0.578-0.451,0.868-1.129,0.868-2.033c0-0.551-0.19-0.951-0.565-1.205
			c-0.377-0.249-0.865-0.375-1.469-0.375c-0.702,0-1.268,0.189-1.693,0.565C274.16,308.849,273.947,309.391,273.947,310.09z"/>
		<path fill="#231916" d="M312.426,308.51c0,0.302,0,0.728,0,1.279c0,0.554-0.014,1.169-0.038,1.847
			c-0.026,0.675-0.051,1.38-0.075,2.105c-0.026,0.729-0.064,1.366-0.112,1.919c-0.102,0.703-0.188,1.256-0.264,1.655
			c-0.076,0.403-0.227,0.691-0.451,0.865c-0.227,0.177-0.553,0.277-0.979,0.303c-0.427,0.025-1.017,0.036-1.77,0.036
			c-1.154,0-2.434,0.015-3.838,0.038c-1.405,0.025-2.76,0.088-4.064,0.188c1.003,1.656,2.296,2.886,3.876,3.687
			c1.582,0.806,3.425,1.407,5.532,1.809c1.153,0.249,1.931,0.601,2.332,1.053c0.402,0.453,0.501,1.029,0.303,1.731
			c-0.102,0.45-0.354,0.778-0.753,0.978c-0.403,0.202-0.841,0.327-1.318,0.377c-0.477,0.051-0.939,0.051-1.393,0
			c-0.45-0.05-0.828-0.101-1.128-0.15c-2.961-0.552-5.433-1.453-7.414-2.71c-1.982-1.253-3.676-3.261-5.079-6.021
			c-0.503-1.002-0.704-1.83-0.604-2.482s0.402-1.179,0.903-1.581c0.502-0.4,1.179-0.688,2.032-0.865s1.78-0.313,2.785-0.414
			c0.852-0.101,1.655-0.138,2.408-0.114c0.753,0.027,1.68,0.014,2.784-0.036c0.051-0.4,0.076-0.966,0.076-1.694
			c0-0.726,0-1.391,0-1.995c-0.854-0.099-1.606-0.138-2.257-0.112c-0.654,0.025-1.482,0.063-2.484,0.112
			c-0.804,0.053-1.632,0.089-2.483,0.114c-0.854,0.025-1.557-0.075-2.108-0.3c-0.552-0.227-0.853-0.615-0.903-1.168
			s0.326-1.38,1.13-2.484c0.501-0.65,0.979-1.165,1.429-1.542c0.453-0.376,1.23-0.64,2.334-0.79c1.206-0.15,2.446-0.199,3.726-0.15
			c1.279,0.05,2.295,0.101,3.048,0.15c0.801,0.051,1.506,0.112,2.108,0.188c0.602,0.074,1.103,0.251,1.506,0.525
			c0.398,0.277,0.7,0.703,0.902,1.281C312.323,306.717,312.426,307.508,312.426,308.51z M317.844,332.293
			c1.304,0,2.346,0.113,3.123,0.339c0.778,0.226,1.343,0.653,1.693,1.279c0.351,0.628,0.527,1.493,0.527,2.597
			c0,1.104-0.102,2.56-0.3,4.365c-0.102,0.704-0.177,1.306-0.228,1.807c-0.051,0.5-0.125,0.979-0.225,1.43
			c-0.101,0.453-0.215,0.927-0.34,1.431c-0.124,0.501-0.264,1.078-0.413,1.73c-1.254,0.5-2.773,0.839-4.553,1.016
			c-1.781,0.176-3.727,0.264-5.834,0.264c-1.103,0-1.806-0.188-2.107-0.563c-0.3-0.377-0.477-0.916-0.526-1.618
			c-0.101-1.204-0.175-2.259-0.227-3.162c-0.051-0.904-0.099-1.768-0.149-2.596s-0.102-1.693-0.15-2.598
			c-0.051-0.903-0.102-1.931-0.151-3.085c-0.05-1.153,0.138-1.957,0.564-2.409c0.426-0.451,1.442-0.627,3.049-0.526
			c0.902,0.05,1.943,0.112,3.124,0.188C315.9,332.256,316.94,332.293,317.844,332.293z M317.166,336.432
			c-0.552-0.048-1.143-0.087-1.768-0.111c-0.629-0.025-1.217-0.012-1.771,0.038c-0.049,1.455-0.062,2.785-0.036,3.988
			c0.025,1.204,0.088,2.533,0.189,3.989c0.4,0.099,0.902,0.138,1.503,0.112c0.603-0.025,1.104-0.088,1.506-0.188L317.166,336.432z
			 M328.984,324.919c-0.101,1.554-0.439,2.771-1.017,3.649c-0.578,0.877-1.418,1.344-2.521,1.391
			c-1.255,0.052-2.259-0.4-3.011-1.354c-0.753-0.953-1.129-2.258-1.129-3.914c0-2.86,0-5.732,0-8.618
			c0-2.884-0.177-5.681-0.527-8.39c-0.15-1.056-0.526-1.782-1.128-2.184c-0.653-0.45-1.067-0.94-1.243-1.469
			c-0.176-0.527-0.15-1.015,0.075-1.468c0.228-0.45,0.64-0.801,1.243-1.052c0.602-0.25,1.38-0.351,2.333-0.302
			c0.601,0.052,1.253,0.14,1.956,0.263c0.702,0.128,1.38,0.364,2.032,0.716c0.651,0.353,1.229,0.817,1.731,1.394
			c0.501,0.575,0.827,1.342,0.979,2.296c0.452,2.508,0.64,5.481,0.564,8.916C329.247,318.231,329.133,321.604,328.984,324.919z"/>
	</g>
</g>
</svg>
