<?xml version="1.0" encoding="utf-8"?>
<!-- Generator: Adobe Illustrator 16.0.0, SVG Export Plug-In . SVG Version: 6.00 Build 0)  -->
<!DOCTYPE svg PUBLIC "-//W3C//DTD SVG 1.1//EN" "http://www.w3.org/Graphics/SVG/1.1/DTD/svg11.dtd">
<svg version="1.1" id="Layer_1" xmlns="http://www.w3.org/2000/svg" xmlns:xlink="http://www.w3.org/1999/xlink" x="0px" y="0px"
	 width="500px" height="500px" viewBox="0 0 500 500" enable-background="new 0 0 500 500" xml:space="preserve">
<g>
	<path d="M250.915,286.343c2.034,0,4.94,0,6.974-0.289c13.073-1.454,22.371-7.848,22.371-22.374
		c0-15.399-10.46-20.338-27.891-28.472c-8.717-4.069-10.752-5.521-10.752-8.135c0-2.324,1.453-3.487,4.068-3.487h31.669v-18.885
		h-28.764c-3.487,0-6.682,0.289-8.716,0.58c-12.493,1.743-20.047,10.459-20.047,21.5c0,14.818,9.007,20.047,27.311,28.763
		c8.134,4.067,11.04,5.23,11.04,8.428c0,2.032-1.163,3.775-4.649,3.775h-32.249v18.597H250.915z"/>
	<path d="M360.74,120.733H139.928c-8.135,0-14.528,6.392-14.528,14.526V356.07c0,8.137,6.393,14.529,14.528,14.529H360.74
		c8.137,0,14.527-6.393,14.527-14.529V135.259C375.267,127.125,368.876,120.733,360.74,120.733z M310.476,303.774
		c-11.62,13.073-30.797,19.759-53.169,19.759h-36.026v18.883l-44.744-37.479l44.744-37.191h-21.21
		c-14.527-8.136-24.696-22.952-24.696-42.417c0-36.899,29.055-57.528,66.244-57.528l35.737,0.291v-18.886l45.034,37.189
		l-45.034,37.19h21.21C335.464,245.957,327.328,285.18,310.476,303.774z"/>
</g>
</svg>
