<?xml version="1.0" encoding="utf-8"?>
<!-- Generator: Adobe Illustrator 16.0.0, SVG Export Plug-In . SVG Version: 6.00 Build 0)  -->
<!DOCTYPE svg PUBLIC "-//W3C//DTD SVG 1.1//EN" "http://www.w3.org/Graphics/SVG/1.1/DTD/svg11.dtd">
<svg version="1.1" id="Layer_1" xmlns="http://www.w3.org/2000/svg" xmlns:xlink="http://www.w3.org/1999/xlink" x="0px" y="0px"
	 width="500px" height="500px" viewBox="0 0 500 500" enable-background="new 0 0 500 500" xml:space="preserve">
<g>
	<g>
		<path d="M103.272,167.964v53.519h-8.027v-30.977l0.649-14.757h-0.081L79.513,221.48h-7.217l-16.298-45.732h-0.082l0.649,14.757
			v30.975h-8.026v-53.516h12.893l10.784,30.975l3.73,12.732h0.163l3.81-12.732l10.704-30.975H103.272z"/>
		<path fill="#020202" d="M104.272,222.482H94.244v-31.977l0.37-8.415L80.219,222.48h-8.627l-14.395-40.391l0.368,8.372
			l0.001,32.019H47.539v-55.516h14.604L73.16,198.61l2.876,9.814l2.924-9.772l10.95-31.688h14.361V222.482z M96.244,220.482h6.027
			v-51.519H91.335l-10.471,30.302l-4.01,13.406h-1.657l-3.94-13.451l-10.535-30.256H49.539v51.516h6.026v-29.975l-0.694-15.757h1.75
			l0.318,0.664l16.062,45.068h5.807l16.299-45.731h1.75l0.035,1.044l-0.649,14.757L96.244,220.482z"/>
	</g>
	<g>
		<path d="M153.709,167.964l-19.139,33.003v20.516h-8.676v-20.516l-19.056-33.003h9.651l9.566,17.271l4.217,7.947l4.216-7.947
			l9.488-17.271H153.709L153.709,167.964z"/>
		<path fill="#020202" d="M135.571,222.482h-10.676v-21.248l-19.788-34.271h11.973l9.852,17.787l3.342,6.298l3.333-6.282
			l9.78-17.802h12.06l-19.875,34.272V222.482z M126.894,220.482h6.676v-19.785l18.403-31.734h-7.404l-9.204,16.752l-5.092,9.6
			l-5.1-9.612l-9.272-16.74h-7.33l18.324,31.735V220.482z"/>
	</g>
</g>
<g>
	<g>
		<path d="M69.137,249.191c3.837,0,7.148,0.678,9.933,2.028c2.783,1.351,4.959,3.271,6.527,5.757c1.567,2.487,2.352,5.487,2.352,9
			c0,3.461-0.785,6.447-2.352,8.962c-1.568,2.513-3.744,4.446-6.527,5.797c-2.785,1.351-6.095,2.028-9.933,2.028H57.216v19.946
			h-8.676v-53.519H69.137z M67.757,275.301c3.84,0,6.664-0.795,8.474-2.392c1.811-1.594,2.716-3.906,2.716-6.935
			c0-3.081-0.905-5.419-2.716-7.014c-1.811-1.593-4.634-2.392-8.474-2.392H57.216v18.73L67.757,275.301L67.757,275.301z"/>
		<path fill="#020202" d="M58.216,303.71H47.539v-55.519h21.598c3.968,0,7.457,0.716,10.369,2.128
			c2.939,1.426,5.272,3.487,6.937,6.124c1.663,2.639,2.506,5.847,2.506,9.533c0,3.633-0.842,6.826-2.503,9.491
			c-1.664,2.665-3.999,4.74-6.939,6.167c-2.912,1.413-6.401,2.129-10.369,2.129H58.216V303.71z M49.539,301.71h6.676v-19.946h12.922
			c3.664,0,6.858-0.648,9.496-1.928c2.597-1.261,4.655-3.086,6.116-5.427c1.46-2.343,2.2-5.18,2.2-8.433
			c0-3.304-0.74-6.152-2.198-8.467c-1.461-2.315-3.52-4.13-6.118-5.391c-2.638-1.279-5.833-1.928-9.496-1.928H49.539V301.71z
			 M67.757,276.301L56.216,276.3v-20.73h11.542c4.069,0,7.143,0.889,9.135,2.641c2.027,1.786,3.055,4.398,3.055,7.765
			c0,3.315-1.028,5.9-3.055,7.686C74.905,275.412,71.831,276.301,67.757,276.301z M58.216,274.3h9.542c0.002,0,0.004,0,0.007,0
			c3.569,0,6.195-0.72,7.806-2.141c1.6-1.408,2.377-3.431,2.377-6.185c0-2.806-0.777-4.854-2.377-6.264
			c-1.615-1.421-4.244-2.142-7.813-2.142h-9.542V274.3z"/>
	</g>
	<g>
		<path d="M116.411,248.381c5.189,0,9.676,1.107,13.46,3.323c3.783,2.218,6.703,5.38,8.758,9.488
			c2.053,4.109,3.081,9.03,3.081,14.758c0,5.729-1.028,10.65-3.081,14.757c-2.055,4.11-4.975,7.272-8.758,9.488
			c-3.784,2.217-8.271,3.323-13.46,3.323c-5.135,0-9.596-1.106-13.379-3.323c-3.784-2.216-6.704-5.378-8.758-9.488
			c-2.053-4.107-3.081-9.027-3.081-14.757c0-5.728,1.028-10.649,3.081-14.758c2.054-4.108,4.974-7.271,8.758-9.488
			C106.815,249.488,111.274,248.381,116.411,248.381z M116.411,255.921c-3.352,0-6.23,0.785-8.635,2.353
			c-2.406,1.568-4.257,3.839-5.555,6.812c-1.298,2.974-1.947,6.595-1.947,10.865c0,4.217,0.649,7.825,1.947,10.825
			s3.148,5.283,5.555,6.851c2.404,1.569,5.283,2.351,8.635,2.351c3.406,0,6.311-0.781,8.717-2.351
			c2.404-1.567,4.256-3.852,5.554-6.851c1.297-3,1.946-6.608,1.946-10.825c0-4.27-0.649-7.892-1.946-10.865
			c-1.298-2.973-3.15-5.243-5.554-6.812C122.721,256.707,119.817,255.921,116.411,255.921z"/>
		<path fill="#020202" d="M116.411,304.519c-5.294,0-9.966-1.164-13.885-3.46c-3.937-2.306-7.015-5.638-9.147-9.904
			c-2.114-4.231-3.187-9.347-3.187-15.204s1.072-10.973,3.187-15.205c2.132-4.265,5.209-7.597,9.146-9.903
			c3.921-2.297,8.593-3.461,13.885-3.461c5.346,0,10.044,1.164,13.966,3.46c3.937,2.308,7.014,5.64,9.147,9.904
			c2.114,4.232,3.187,9.348,3.187,15.205c0,5.859-1.072,10.975-3.187,15.204c-2.133,4.267-5.211,7.599-9.147,9.904
			C126.457,303.354,121.759,304.519,116.411,304.519z M116.411,249.381c-4.933,0-9.264,1.072-12.874,3.187
			c-3.597,2.107-6.413,5.16-8.369,9.072c-1.975,3.951-2.976,8.767-2.976,14.311c0,5.545,1.001,10.359,2.976,14.31
			c1.956,3.914,4.771,6.967,8.369,9.072c3.608,2.114,7.94,3.187,12.874,3.187c4.987,0,9.346-1.072,12.955-3.187
			c3.596-2.105,6.412-5.158,8.369-9.072c1.975-3.948,2.976-8.763,2.976-14.31c0-5.544-1.001-10.359-2.976-14.311
			c-1.957-3.912-4.772-6.965-8.369-9.073C125.756,250.453,121.397,249.381,116.411,249.381z M116.411,296.977
			c-3.538,0-6.627-0.846-9.182-2.514c-2.561-1.667-4.555-4.12-5.926-7.29c-1.346-3.112-2.029-6.889-2.029-11.223
			c0-4.389,0.683-8.179,2.03-11.266c1.372-3.142,3.365-5.58,5.925-7.249c2.561-1.669,5.649-2.515,9.181-2.515
			c3.583,0,6.699,0.846,9.263,2.515c2.561,1.67,4.554,4.109,5.925,7.249c1.347,3.088,2.03,6.878,2.03,11.266
			c0,4.334-0.683,8.109-2.028,11.222c-1.372,3.169-3.365,5.622-5.926,7.292C123.118,296.131,120.001,296.977,116.411,296.977z
			 M116.411,256.921c-3.137,0-5.859,0.737-8.089,2.19c-2.227,1.451-3.971,3.596-5.184,6.374c-1.236,2.832-1.863,6.354-1.863,10.465
			c0,4.06,0.627,7.568,1.865,10.428c1.212,2.804,2.956,4.96,5.183,6.41c2.225,1.452,4.946,2.188,8.089,2.188
			c3.196,0,5.945-0.736,8.171-2.188c2.227-1.451,3.97-3.607,5.183-6.41c1.237-2.859,1.864-6.368,1.864-10.428
			c0-4.111-0.627-7.632-1.863-10.466c-1.212-2.775-2.956-4.92-5.184-6.373C122.349,257.658,119.599,256.921,116.411,256.921z"/>
	</g>
	<g>
		<path d="M171.225,249.191c5.729,0,10.285,1.434,13.664,4.299c3.378,2.866,5.069,6.729,5.069,11.596
			c0,5.025-1.69,8.905-5.069,11.635s-7.934,4.096-13.664,4.096l-0.811,0.485h-12.406v21.406h-8.595v-53.517H171.225z
			 M170.574,274.085c3.514,0,6.124-0.717,7.826-2.147c1.703-1.433,2.554-3.636,2.554-6.609c0-2.918-0.851-5.109-2.554-6.569
			c-1.702-1.459-4.312-2.188-7.826-2.188h-12.568v17.515H170.574z M175.685,275.87l17.432,26.84h-9.972l-14.92-23.435
			L175.685,275.87z"/>
		<path fill="#020202" d="M194.959,303.71h-12.362l-13.63-21.408h-9.958v21.406h-10.595v-55.517h22.812
			c5.946,0,10.761,1.526,14.311,4.536c3.598,3.053,5.422,7.211,5.422,12.358c0,5.32-1.831,9.496-5.441,12.413
			c-1.612,1.302-3.495,2.319-5.611,3.034L194.959,303.71z M183.694,301.71h7.581l-13.383-20.605
			c-1.943,0.454-4.087,0.693-6.389,0.711l-0.345,0.206L183.694,301.71z M150.413,301.708h6.595v-21.406h10.685l-0.929-1.459
			l9.291-4.24l2.723,4.193c2.092-0.645,3.934-1.603,5.482-2.854c3.161-2.553,4.698-6.104,4.698-10.856
			c0-4.597-1.542-8.141-4.716-10.833c-3.178-2.695-7.558-4.062-13.017-4.062h-20.812V301.708z M170.064,280.302h0.074l0.811-0.485
			h0.276c1.974,0,3.818-0.17,5.502-0.506l-1.411-2.173l-5.63,2.57L170.064,280.302z M170.574,275.085h-13.568V255.57h13.568
			c3.744,0,6.596,0.817,8.477,2.43c1.926,1.65,2.903,4.116,2.903,7.328c0,3.27-0.979,5.75-2.91,7.375
			C177.163,274.283,174.314,275.085,170.574,275.085z M159.006,273.085h11.568c3.255,0,5.672-0.644,7.182-1.913
			c1.479-1.243,2.197-3.155,2.197-5.844c0-2.638-0.721-4.538-2.205-5.811c-1.508-1.292-3.922-1.947-7.175-1.947h-11.568V273.085z"/>
	</g>
	<g>
		<path d="M237.231,249.191v7.46h-18.325v46.059h-8.676v-46.059h-18.328v-7.46H237.231L237.231,249.191z"/>
		<path fill="#020202" d="M219.906,303.71H209.23v-46.059h-18.328v-9.46h47.329v9.46h-18.325V303.71z M211.23,301.71h6.676v-46.059
			h18.325v-5.46h-43.329v5.46h18.328V301.71z"/>
	</g>
	<g>
		<path d="M281.098,256.651h-30.001v15.568h23.515v7.46h-23.515v23.028h-8.677v-53.517h38.678V256.651L281.098,256.651z"/>
		<path fill="#020202" d="M252.097,303.708H241.42v-55.517h40.678v9.46h-30.001v13.568h23.515v9.46h-23.515V303.708z
			 M243.42,301.708h6.677V278.68h23.515v-5.46h-23.515v-17.568h30.001v-5.46H243.42V301.708z"/>
	</g>
	<g>
		<path d="M308.183,248.381c5.188,0,9.675,1.107,13.459,3.323c3.784,2.218,6.704,5.38,8.758,9.488
			c2.052,4.109,3.083,9.03,3.083,14.758c0,5.729-1.031,10.65-3.083,14.757c-2.054,4.11-4.974,7.272-8.758,9.488
			c-3.784,2.217-8.271,3.323-13.459,3.323c-5.137,0-9.598-1.106-13.379-3.323c-3.785-2.216-6.704-5.378-8.759-9.488
			c-2.056-4.107-3.082-9.027-3.082-14.757c0-5.728,1.026-10.649,3.082-14.758c2.055-4.108,4.974-7.271,8.759-9.488
			C298.585,249.488,303.046,248.381,308.183,248.381z M308.183,255.921c-3.354,0-6.231,0.785-8.638,2.353
			c-2.404,1.568-4.257,3.839-5.553,6.812c-1.298,2.974-1.947,6.595-1.947,10.865c0,4.217,0.649,7.825,1.947,10.825
			c1.296,3,3.148,5.283,5.553,6.851c2.404,1.569,5.283,2.351,8.638,2.351c3.403,0,6.311-0.781,8.718-2.351
			c2.401-1.567,4.254-3.852,5.552-6.851c1.298-3,1.945-6.608,1.945-10.825c0-4.27-0.647-7.892-1.945-10.865
			c-1.298-2.973-3.15-5.243-5.552-6.812C314.491,256.707,311.586,255.921,308.183,255.921z"/>
		<path fill="#020202" d="M308.183,304.519c-5.297,0-9.968-1.164-13.885-3.461c-3.937-2.304-7.015-5.637-9.147-9.903
			c-2.115-4.227-3.188-9.342-3.188-15.204s1.072-10.978,3.188-15.205c2.133-4.265,5.211-7.597,9.147-9.904
			c3.919-2.296,8.59-3.46,13.885-3.46c5.345,0,10.043,1.164,13.964,3.46c3.938,2.309,7.016,5.641,9.147,9.904
			c2.116,4.238,3.188,9.354,3.188,15.205c0,5.854-1.072,10.97-3.188,15.204c-2.132,4.266-5.209,7.598-9.147,9.904
			C318.228,303.354,313.53,304.519,308.183,304.519z M308.183,249.381c-4.935,0-9.266,1.072-12.873,3.186
			c-3.598,2.108-6.413,5.16-8.37,9.073c-1.976,3.947-2.977,8.762-2.977,14.311s1.001,10.363,2.977,14.31
			c1.957,3.914,4.772,6.967,8.369,9.072c3.606,2.114,7.938,3.187,12.874,3.187c4.986,0,9.345-1.072,12.953-3.187
			c3.599-2.106,6.414-5.158,8.369-9.072c1.976-3.954,2.978-8.769,2.978-14.31c0-5.539-1.002-10.354-2.978-14.312
			c-1.955-3.911-4.771-6.963-8.369-9.072C317.526,250.453,313.167,249.381,308.183,249.381z M308.183,296.977
			c-3.539,0-6.63-0.846-9.185-2.514c-2.563-1.67-4.556-4.123-5.924-7.291c-1.347-3.112-2.029-6.888-2.029-11.222
			c0-4.388,0.684-8.178,2.03-11.266c1.369-3.139,3.361-5.578,5.924-7.249c2.562-1.669,5.651-2.515,9.184-2.515
			c3.58,0,6.697,0.846,9.263,2.515c2.561,1.672,4.553,4.11,5.923,7.249c1.347,3.085,2.029,6.875,2.029,11.266
			c0,4.337-0.683,8.112-2.027,11.223c-1.371,3.167-3.363,5.62-5.923,7.291C314.889,296.131,311.773,296.977,308.183,296.977z
			 M308.183,256.921c-3.138,0-5.86,0.737-8.092,2.19c-2.229,1.454-3.972,3.598-5.182,6.373c-1.237,2.834-1.864,6.355-1.864,10.466
			c0,4.059,0.628,7.567,1.865,10.428c1.21,2.802,2.953,4.958,5.181,6.41c2.225,1.452,4.947,2.188,8.092,2.188
			c3.195,0,5.944-0.736,8.172-2.188c2.225-1.452,3.968-3.608,5.18-6.41c1.236-2.857,1.863-6.366,1.863-10.428
			c0-4.113-0.626-7.635-1.862-10.465c-1.211-2.775-2.955-4.92-5.182-6.375C314.119,257.658,311.37,256.921,308.183,256.921z"/>
	</g>
	<g>
		<path d="M349.859,295.248h29.517v7.46h-38.191v-53.517h8.675V295.248L349.859,295.248z"/>
		<path fill="#020202" d="M380.375,303.708h-40.191v-55.517h10.675v46.057h29.517V303.708z M342.184,301.708h36.191v-5.46h-29.517
			v-46.057h-6.675V301.708z"/>
	</g>
	<g>
		<path d="M393.243,249.191v53.519h-8.678v-53.519H393.243z"/>
		<path fill="#020202" d="M394.243,303.71h-10.678v-55.519h10.678V303.71z M385.566,301.71h6.678v-51.519h-6.678V301.71z"/>
	</g>
	<g>
		<path d="M426.161,248.381c5.191,0,9.678,1.107,13.462,3.323c3.782,2.218,6.701,5.38,8.758,9.488
			c2.052,4.109,3.08,9.03,3.08,14.758c0,5.729-1.028,10.65-3.08,14.757c-2.057,4.11-4.976,7.272-8.758,9.488
			c-3.784,2.217-8.271,3.323-13.462,3.323c-5.134,0-9.595-1.106-13.379-3.323c-3.784-2.216-6.704-5.378-8.756-9.488
			c-2.056-4.107-3.082-9.027-3.082-14.757c0-5.728,1.026-10.649,3.082-14.758c2.052-4.108,4.972-7.271,8.756-9.488
			C416.567,249.488,421.028,248.381,426.161,248.381z M426.161,255.921c-3.352,0-6.229,0.785-8.635,2.353
			c-2.404,1.568-4.257,3.839-5.555,6.812c-1.298,2.974-1.945,6.595-1.945,10.865c0,4.217,0.647,7.825,1.945,10.825
			s3.15,5.283,5.555,6.851c2.404,1.569,5.283,2.351,8.635,2.351c3.406,0,6.313-0.781,8.718-2.351
			c2.404-1.567,4.257-3.852,5.555-6.851c1.298-3,1.945-6.608,1.945-10.825c0-4.27-0.647-7.892-1.945-10.865
			c-1.298-2.973-3.15-5.243-5.555-6.812C432.475,256.707,429.568,255.921,426.161,255.921z"/>
		<path fill="#020202" d="M426.161,304.519c-5.293,0-9.965-1.164-13.885-3.46c-3.938-2.307-7.016-5.64-9.145-9.905
			c-2.115-4.226-3.188-9.341-3.188-15.203s1.072-10.978,3.188-15.205c2.129-4.263,5.206-7.596,9.145-9.903
			c3.922-2.297,8.593-3.461,13.885-3.461c5.347,0,10.046,1.164,13.967,3.46c3.936,2.308,7.013,5.64,9.147,9.904
			c2.114,4.234,3.186,9.35,3.186,15.205c0,5.858-1.071,10.974-3.186,15.204c-2.135,4.267-5.213,7.599-9.146,9.904
			C436.209,303.354,431.51,304.519,426.161,304.519z M426.161,249.381c-4.932,0-9.263,1.072-12.874,3.187
			c-3.598,2.108-6.413,5.161-8.366,9.072c-1.976,3.947-2.977,8.762-2.977,14.311s1.001,10.363,2.977,14.31
			c1.953,3.913,4.769,6.966,8.366,9.072c3.609,2.114,7.94,3.187,12.874,3.187c4.988,0,9.348-1.072,12.956-3.187
			c3.595-2.105,6.411-5.158,8.369-9.072c1.974-3.95,2.975-8.765,2.975-14.31c0-5.543-1.001-10.357-2.975-14.312
			c-1.958-3.911-4.774-6.964-8.369-9.072C435.507,250.453,431.148,249.381,426.161,249.381z M426.161,296.977
			c-3.537,0-6.627-0.846-9.182-2.514c-2.562-1.669-4.555-4.122-5.926-7.29c-1.345-3.11-2.027-6.886-2.027-11.223
			c0-4.391,0.683-8.181,2.028-11.266c1.371-3.14,3.364-5.578,5.926-7.249c2.562-1.669,5.65-2.515,9.181-2.515
			c3.586,0,6.702,0.846,9.264,2.515c2.562,1.671,4.555,4.109,5.925,7.249c1.347,3.085,2.029,6.875,2.029,11.266
			c0,4.337-0.683,8.112-2.027,11.223c-1.371,3.168-3.365,5.621-5.927,7.291C432.87,296.131,429.754,296.977,426.161,296.977z
			 M426.161,256.921c-3.136,0-5.857,0.737-8.089,2.19c-2.228,1.453-3.972,3.598-5.185,6.374c-1.235,2.83-1.861,6.352-1.861,10.465
			c0,4.062,0.627,7.57,1.863,10.428c1.212,2.802,2.955,4.958,5.183,6.41c2.225,1.452,4.946,2.188,8.089,2.188
			c3.197,0,5.947-0.736,8.171-2.188c2.228-1.452,3.972-3.609,5.184-6.411c1.236-2.857,1.863-6.366,1.863-10.428
			c0-4.113-0.626-7.635-1.862-10.465c-1.212-2.776-2.956-4.921-5.184-6.374C432.103,257.658,429.353,256.921,426.161,256.921z"/>
	</g>
</g>
</svg>
