<?xml version="1.0" encoding="utf-8"?>
<!-- Generator: Adobe Illustrator 16.0.0, SVG Export Plug-In . SVG Version: 6.00 Build 0)  -->
<!DOCTYPE svg PUBLIC "-//W3C//DTD SVG 1.1//EN" "http://www.w3.org/Graphics/SVG/1.1/DTD/svg11.dtd">
<svg version="1.1" id="Layer_1" xmlns="http://www.w3.org/2000/svg" xmlns:xlink="http://www.w3.org/1999/xlink" x="0px" y="0px"
	 width="500px" height="500px" viewBox="0 0 500 500" enable-background="new 0 0 500 500" xml:space="preserve">
<g>
	<g>
		<g>
			
				<polygon opacity="0.5" fill="none" stroke="#F4B379" stroke-width="0.3" stroke-miterlimit="10" enable-background="new    " points="
				128.983,262.338 121.49,268.381 111.918,267.356 105.873,259.865 106.899,250.292 114.392,244.247 123.965,245.273 
				130.009,252.768 			"/>
			<polygon opacity="0.9" fill="#F4B379" enable-background="new    " points="128.983,262.338 121.49,268.381 111.918,267.356 
				105.873,259.865 106.899,250.292 114.392,244.247 123.965,245.273 130.009,252.768 			"/>
		</g>
		<g>
			
				<polygon opacity="0.5" fill="none" stroke="#8957DA" stroke-width="0.3" stroke-miterlimit="10" enable-background="new    " points="
				143.093,250.625 133.717,258.429 121.569,257.318 113.763,247.943 114.875,235.795 124.251,227.991 136.399,229.102 
				144.204,238.477 			"/>
			<polygon opacity="0.9" fill="#8957DA" enable-background="new    " points="143.093,250.625 133.717,258.429 121.569,257.318 
				113.763,247.943 114.875,235.795 124.251,227.991 136.399,229.102 144.204,238.477 			"/>
		</g>
		<g>
			
				<polygon opacity="0.5" fill="none" stroke="#65B07E" stroke-width="0.3" stroke-miterlimit="10" enable-background="new    " points="
				127.364,238.915 112.726,248.93 95.296,245.659 85.279,231.025 88.547,213.593 103.185,203.578 120.615,206.844 130.632,221.482 
							"/>
			<polygon opacity="0.9" fill="#65B07E" enable-background="new    " points="127.364,238.915 112.726,248.93 95.296,245.659 
				85.279,231.025 88.547,213.593 103.185,203.578 120.615,206.844 130.632,221.482 			"/>
		</g>
		<g>
			
				<polygon opacity="0.5" fill="none" stroke="#FBDF70" stroke-width="0.3" stroke-miterlimit="10" enable-background="new    " points="
				138.742,244.602 124.133,249.085 110.634,241.924 106.152,227.314 113.312,213.817 127.92,209.333 141.42,216.495 
				145.902,231.103 			"/>
			<polygon opacity="0.9" fill="#FBDF70" enable-background="new    " points="138.742,244.602 124.133,249.085 110.634,241.924 
				106.152,227.314 113.312,213.817 127.92,209.333 141.42,216.495 145.902,231.103 			"/>
		</g>
	</g>
	<g>
		<g>
			<path d="M168.47,228.25c-0.321-0.19-0.745-0.229-1.144-0.133l-13.914,2.668v-11.837l9.167-0.001
				c0.32-0.023,0.677-0.048,1.07-0.073c0.449-0.026,0.853-0.114,1.167-0.246c0.434-0.146,0.75-0.436,0.916-0.841
				c0.165-0.403,0.109-0.917-0.17-1.57l-0.06-0.141l-0.127-0.083c-0.472-0.304-0.985-0.514-1.526-0.625
				c-0.547-0.111-1.102-0.111-1.628,0c-0.29,0.057-0.54,0.137-0.763,0.241c-0.209,0.099-0.398,0.203-0.538,0.297
				c-0.16,0.093-0.315,0.172-0.463,0.239c-0.117,0.055-0.239,0.091-0.293,0.105h-7.088c-0.534-0.368-1.114-0.573-1.726-0.614
				c-0.605-0.04-1.214-0.008-1.89,0.105c-0.369,0.087-0.759,0.246-1.16,0.482c-0.194,0.114-0.784,0.459-0.784,1.041
				c0,0.443,0.252,0.78,0.67,0.903c0.213,0.064,0.458,0.131,0.745,0.209c0.245,0.062,0.497,0.173,0.749,0.33
				c0.197,0.125,0.381,0.342,0.548,0.649c0,0.421,0.002,0.84,0.002,1.261c0.003,0.982-0.01,1.964-0.004,2.948
				c0.009,1.149,0.011,2.299-0.001,3.449c-0.012,1.151-0.003,2.305-0.069,3.456c-0.056,0.957-0.32,2.127,0.274,2.97
				c1.018,1.446,3.204,0.832,4.579,0.443c1.998-0.564,3.962-1.069,6-1.489c1.453-0.3,2.907-0.591,4.354-0.918
				c0.68-0.152,1.426-0.27,2.079-0.512c0.558-0.204,0.959-0.458,1.229-0.777c0.301-0.353,0.434-0.716,0.393-1.088
				C169.034,228.852,168.906,228.507,168.47,228.25z"/>
			<path d="M178.757,225.667c-0.222-0.332-0.622-0.5-1.192-0.5h-4.855v-8.944c0-1.207,0.011-2.186,0.037-2.939
				c0.022-0.73,0.071-1.355,0.144-1.868c0.049-0.39-0.162-0.758-0.629-1.095c-0.326-0.234-0.705-0.462-1.127-0.672
				c-0.738-0.37-1.646-0.8-2.483-0.838c-0.419-0.019-0.858,0.005-1.263,0.13c-0.76,0.239-1.016,0.703-1.104,1.101
				c-0.05,0.393,0.14,0.747,0.518,0.968c0.214,0.128,0.461,0.266,0.74,0.418c0.246,0.133,0.703,0.334,0.966,0.538
				c0.211,0.166,0.375,0.406,0.505,0.744c0.111,0.247,0.202,0.502,0.269,0.756c0.067,0.257,0.112,0.523,0.139,0.831
				c0.045,0.27,0.067,0.561,0.067,0.868c0,0.344,0.014,0.706,0.037,1.057v26.944c0,0.661,0.198,1.106,0.59,1.323
				c0.186,0.105,0.385,0.155,0.593,0.155c0.195,0,0.394-0.047,0.597-0.137c0.345-0.158,0.664-0.427,0.95-0.801
				c0.301-0.397,0.455-0.868,0.455-1.396v-14.443h4.262c0.42,0,0.808-0.118,1.146-0.343c0.339-0.226,0.579-0.498,0.709-0.788
				C179.004,226.383,178.979,226.001,178.757,225.667z"/>
		</g>
		<g>
			<path d="M216.728,237.461c-0.283-0.369-0.709-0.591-1.204-0.645c-0.227-0.059-0.419-0.092-0.577-0.106
				c-0.149-0.014-0.315-0.021-0.581-0.016c-0.166,0.025-0.371,0.048-0.609,0.072c-0.244,0.024-0.559,0.049-1.014,0.08
				c-0.27,0.056-0.546,0.13-0.822,0.223c-0.248,0.083-0.515,0.159-0.849,0.245c-0.249,0.091-0.507,0.166-0.772,0.224
				c-0.247,0.054-0.505,0.08-0.767,0.08h-9.618l-0.033-3.683c0.023-0.562,0.07-1.024,0.14-1.372
				c0.074-0.368,0.134-0.662,0.186-0.893c0.056-0.283,0.083-0.51,0.083-0.693c0-0.208-0.046-0.438-0.154-0.725
				c-0.184-0.4-0.627-0.735-1.397-1.052c-0.668-0.276-1.205-0.45-1.64-0.531c-0.985-0.183-1.604-0.112-1.983,0.231
				c-0.261,0.234-0.321,0.493-0.325,0.665c-0.008,0.294,0.133,0.587,0.381,0.829c0.128,0.164,0.253,0.286,0.378,0.375l0.269,0.196
				c0.07,0.052,0.139,0.118,0.204,0.191c0.075,0.085,0.162,0.179,0.262,0.282c0.025,0.064,0.058,0.132,0.095,0.207
				c0.047,0.094,0.106,0.201,0.175,0.317c0.037,0.12,0.07,0.25,0.099,0.395c0.035,0.173,0.063,0.365,0.083,0.517v4.744
				l-12.399,0.002c-0.649-0.025-1.159-0.068-1.52-0.126c-0.354-0.056-0.633-0.12-0.883-0.2c-0.624-0.137-1.661-0.462-1.922,0.413
				c-0.238,0.794,0.552,1.739,1.057,2.243c0.296,0.296,0.623,0.562,0.972,0.789c0.392,0.257,0.729,0.398,1.05,0.433
				c0.093,0.007,0.187,0.01,0.279,0.01c0.279,0,0.566-0.031,0.85-0.097l1.062-0.231c0.325-0.102,0.638-0.2,0.939-0.3
				c0.265-0.089,0.52-0.168,0.764-0.236l28.375-0.001c0.528-0.033,0.955-0.226,1.266-0.57c0.296-0.329,0.465-0.701,0.5-1.15
				C217.127,238.19,216.991,237.809,216.728,237.461z"/>
			<path d="M184.775,229.658c0.294,0.062,0.598,0.094,0.903,0.094c0.104,0,0.207-0.003,0.311-0.01
				c0.458-0.031,0.813-0.128,1.065-0.286c2.118-1.195,3.425-1.801,5.465-3.382c1.124-0.87,2.226-1.766,3.307-2.69
				c0.48-0.411,0.989-0.808,1.438-1.257c0.305-0.306,0.487-0.751,0.965-0.604c0.378,0.114,0.815,0.646,1.156,0.866
				c0.535,0.345,1.075,0.687,1.61,1.034c1.128,0.731,2.238,1.445,3.318,2.134c1.062,0.715,2.118,1.399,3.137,2.035
				c1.021,0.633,1.191,0.406,2.061,0.888c0.87,0.541,1.6,0.678,2.198,0.426c1.111-0.464,0.481-2.115,0.272-2.659l-0.084-0.143
				c-0.705-0.833-0.738-0.72-1.678-1.244c-0.919-0.511-1.916-0.926-2.9-1.21c-0.695-0.31-1.411-0.684-2.124-1.105
				c-0.708-0.419-1.408-0.86-2.077-1.306c-0.663-0.442-1.27-0.864-1.821-1.268c-0.363-0.268-0.685-0.507-0.967-0.726
				c0.041-0.047,0.083-0.091,0.127-0.137c0.168-0.182,0.349-0.368,0.544-0.561l0.558-0.56c0.194-0.194,0.388-0.398,0.583-0.616
				c0.337-0.262,0.604-0.584,0.791-0.96c0.238-0.476,0.191-1.017-0.139-1.614l-0.092-0.12c-0.46-0.433-0.982-0.867-1.553-1.285
				c-0.493-0.358-1.03-0.646-1.639-0.735c-0.518-0.074-1.17-0.061-1.613,0.257c-0.344,0.248-0.481,0.606-0.377,0.967
				c0.208,0.726,0.922,0.893,1.064,1.633c0.199,1.038-1.072,1.946-1.702,2.591c-1.748,1.79-3.625,3.456-5.63,4.951
				c-2.649,1.974-4.551,3.035-7.233,4.733l-0.084,0.067c-0.27,0.271-0.4,0.533-0.396,0.801c0.004,0.213,0.094,0.407,0.26,0.562
				C184.044,229.45,184.383,229.599,184.775,229.658z"/>
		</g>
		<g>
			<path d="M246.203,210.359c-0.326-0.233-0.707-0.459-1.127-0.672c-0.417-0.207-0.827-0.379-1.218-0.511
				c-0.474-0.158-0.604-0.214-0.639-0.232l-0.14-0.045c-0.522-0.087-1.049-0.05-1.566,0.109c-0.777,0.238-1.038,0.701-1.127,1.097
				c-0.05,0.394,0.14,0.748,0.518,0.972c0.219,0.128,0.482,0.271,0.776,0.416c0.249,0.136,0.507,0.31,0.771,0.513
				c0.204,0.16,0.36,0.383,0.478,0.678c0.047,0.239,0.1,0.494,0.159,0.765c0.06,0.279,0.115,0.561,0.161,0.844
				c0.049,0.315,0.09,0.637,0.129,0.966c0.036,0.326,0.065,0.673,0.089,1.002v26.945c0,0.661,0.199,1.104,0.591,1.323
				c0.195,0.111,0.412,0.165,0.632,0.165c0.17,0,0.344-0.03,0.557-0.109c0.344-0.159,0.661-0.42,0.944-0.774
				c0.304-0.387,0.46-0.853,0.46-1.386v-26.164c0-1.206,0.01-2.186,0.035-2.936c0.025-0.741,0.073-1.365,0.145-1.87
				C246.881,211.064,246.668,210.697,246.203,210.359z"/>
			<path d="M240.378,227.863c-0.094,0-0.197,0.006-0.333,0.026l-17.251,3.201v-10.072c0-0.435,0.01-0.847,0.036-1.235
				c0.023-0.378,0.057-0.726,0.111-1.071c0.024-0.324,0.042-0.602,0.056-0.826c0.016-0.262,0.006-0.473-0.042-0.705
				c-0.125-0.375-0.511-0.684-1.212-0.969c-0.472-0.193-0.962-0.338-1.463-0.431c-0.456-0.087-0.929-0.185-1.396-0.127
				c-0.278,0.038-0.515,0.121-0.702,0.255c-0.258,0.176-0.4,0.461-0.4,0.797c0,0.379,0.195,0.625,0.483,0.847
				c0.462,0.353,0.959,0.762,1.093,1.36c0.12,0.537,0.12,1.128,0.161,1.674c0.062,0.866,0.092,1.602,0.092,2.251
				c0,1.274,0,2.549,0,3.824c0,0.952,0,1.904,0,2.854c0,0.446,0.044,0.921,0.017,1.378c-0.024,0.465-0.183,0.916-0.171,1.38
				c0.012,0.482,0.084,1.023,0.353,1.436c0.4,0.619,1.256,0.857,1.952,0.864c0.687,0.008,1.388-0.332,2.043-0.51
				c0.482-0.128,0.967-0.232,1.454-0.334c1.896-0.4,3.794-0.8,5.69-1.198c1.921-0.406,3.844-0.811,5.765-1.216
				c0.879-0.187,1.758-0.369,2.637-0.557c0.603-0.084,1.09-0.268,1.452-0.54c0.386-0.286,0.633-0.609,0.733-0.945
				c0.135-0.401,0.044-0.785-0.25-1.083C241.065,227.974,240.76,227.863,240.378,227.863z"/>
		</g>
	</g>
	<g enable-background="new    ">
		<path stroke="#000000" stroke-width="0.4" stroke-miterlimit="10" d="M265.709,215.909c-0.198-0.313-0.556-0.794-1.075-1.442
			c-0.186-0.26-0.12-0.444,0.203-0.552c0.32-0.107,0.721-0.086,1.198,0.065c0.187,0.087,0.467,0.232,0.841,0.438
			c0.374,0.206,0.717,0.449,1.027,0.729c0.229,0.194,0.384,0.427,0.468,0.697c0.082,0.271,0.031,0.535-0.155,0.794
			c-0.333,0.519-0.713,1.087-1.138,1.703s-0.836,1.194-1.23,1.734c0.52,0.498,1.116,1.034,1.792,1.605
			c0.674,0.574,1.447,1.152,2.319,1.735c0.934,0.433,1.577,0.871,1.931,1.313c0.352,0.443,0.623,0.871,0.81,1.281
			c0.206,0.799,0.186,1.318-0.063,1.556c-0.248,0.239-0.611,0.194-1.089-0.129c-0.54-0.454-1.09-0.925-1.651-1.411
			c-0.56-0.487-1.12-0.979-1.68-1.476c-0.582-0.498-1.158-0.989-1.729-1.476c-0.571-0.486-1.127-0.957-1.667-1.411
			c-0.436,0.519-0.918,1.092-1.447,1.719c-0.529,0.628-1.074,1.265-1.635,1.913c-0.581,0.649-1.147,1.281-1.697,1.897
			s-1.043,1.163-1.479,1.638c-0.312,0.194-0.617,0.308-0.918,0.339c-0.303,0.033-0.546-0.004-0.732-0.113
			c-0.188-0.086-0.301-0.232-0.343-0.438c-0.041-0.205,0.052-0.448,0.28-0.729c0.934-1.016,1.816-1.983,2.647-2.902
			c0.83-0.919,1.618-1.832,2.366-2.74c0.748-0.886,1.457-1.795,2.133-2.724c0.675-0.929,1.313-1.914,1.915-2.952
			C265.973,216.444,265.906,216.222,265.709,215.909z M279.783,234.7c-0.073,0.476-0.141,0.952-0.203,1.427
			c-0.063,0.477-0.12,0.952-0.171,1.428c-0.053,0.475-0.088,0.939-0.108,1.394c0.477,0.174,0.819,0.368,1.027,0.584
			c0.207,0.216,0.311,0.422,0.311,0.616c-0.021,0.194-0.141,0.351-0.357,0.47c-0.219,0.119-0.515,0.178-0.889,0.178
			c-0.954,0-1.966,0-3.034,0c-1.07,0-2.155,0-3.255,0c-1.079,0-2.159,0-3.238,0s-2.097,0-3.051,0l-0.031,0.39
			c-0.042,0.28-0.146,0.523-0.313,0.729c-0.165,0.206-0.342,0.351-0.529,0.438c-0.165,0.086-0.326,0.113-0.482,0.081
			c-0.155-0.032-0.232-0.156-0.232-0.373l-0.281-8.82c-0.062-0.303-0.239-0.507-0.529-0.616c-0.291-0.108-0.561-0.172-0.81-0.195
			c-0.395-0.107-0.535-0.28-0.421-0.518s0.317-0.433,0.608-0.584c0.436-0.065,0.965-0.119,1.588-0.162s1.152,0.065,1.588,0.324
			h10.524c0.146-0.043,0.28-0.091,0.404-0.146c0.125-0.054,0.25-0.102,0.374-0.146c0.104-0.064,0.218-0.113,0.342-0.145
			c0.125-0.033,0.27-0.06,0.437-0.081c0.146,0,0.301,0,0.467,0s0.333,0.011,0.498,0.032c0.146,0.043,0.286,0.109,0.421,0.194
			c0.135,0.087,0.243,0.206,0.327,0.358c0.062,0.194,0.077,0.367,0.047,0.518c-0.031,0.152-0.09,0.293-0.172,0.422
			c-0.083,0.152-0.188,0.293-0.311,0.422c-0.125,0.129-0.229,0.26-0.313,0.389C279.933,233.761,279.855,234.225,279.783,234.7z
			 M266.906,232.982l-0.03,6.291h9.311c0.374,0,0.695-0.022,0.965-0.065s0.468-0.216,0.592-0.518l0.312-5.708H266.906z
			 M280.203,227.081c0,0.368-0.1,0.686-0.296,0.957c-0.197,0.27-0.41,0.47-0.639,0.599c-0.229,0.108-0.436,0.114-0.622,0.017
			c-0.188-0.098-0.271-0.362-0.249-0.794v-9.892c-0.043-0.648-0.11-1.242-0.202-1.783c-0.094-0.54-0.203-1.026-0.327-1.459
			c-0.125-0.345-0.307-0.616-0.546-0.811c-0.238-0.194-0.472-0.357-0.7-0.486c-0.249-0.13-0.462-0.248-0.638-0.357
			c-0.178-0.108-0.255-0.248-0.234-0.421c0.063-0.281,0.281-0.481,0.653-0.601c0.374-0.119,0.748-0.146,1.122-0.081
			c0.082,0.043,0.279,0.119,0.592,0.228c0.311,0.109,0.632,0.248,0.965,0.422c0.331,0.172,0.628,0.356,0.887,0.551
			c0.26,0.194,0.379,0.378,0.359,0.551c-0.063,0.454-0.1,1.01-0.11,1.67c-0.01,0.66-0.015,1.519-0.015,2.578V227.081z"/>
		<path stroke="#000000" stroke-width="0.4" stroke-miterlimit="10" d="M287.333,233.695l14.198-1.751
			c0.229-0.043,0.432-0.01,0.607,0.097c0.176,0.108,0.286,0.238,0.327,0.389c0.021,0.174-0.047,0.352-0.202,0.536
			c-0.156,0.183-0.452,0.329-0.888,0.438l-13.545,2.269c-0.124,0.108-0.255,0.222-0.39,0.34c-0.135,0.119-0.264,0.233-0.389,0.341
			c-0.145,0.087-0.291,0.157-0.436,0.21c-0.146,0.055-0.291,0.061-0.437,0.017c-0.478-0.26-0.783-0.747-0.918-1.46
			c-0.136-0.713-0.047-1.361,0.265-1.945v-5.805c-0.104-0.303-0.254-0.514-0.452-0.632c-0.196-0.119-0.389-0.211-0.576-0.275
			c-0.207-0.043-0.389-0.087-0.544-0.13c-0.155-0.042-0.244-0.129-0.266-0.26c-0.062-0.172-0.03-0.323,0.094-0.454
			c0.125-0.129,0.301-0.238,0.529-0.325c0.229-0.064,0.473-0.113,0.732-0.145c0.259-0.033,0.492-0.049,0.7-0.049
			c0.311,0.043,0.597,0.093,0.856,0.146s0.533,0.156,0.825,0.308c0.561,0,1.162,0,1.806,0c0.643,0,1.286,0,1.931,0
			c0.643,0,1.286-0.005,1.93-0.016c0.644-0.01,1.257-0.016,1.837-0.016c0.063-0.476,0.115-0.951,0.157-1.427
			c0.041-0.476,0.082-0.951,0.124-1.426c0.042-0.454,0.083-0.919,0.125-1.395c0.041-0.475,0.082-0.961,0.125-1.459
			c-0.646,0-1.195,0-1.651,0c-0.457,0-0.902,0-1.338,0c-0.417,0-0.868,0-1.355,0s-1.084,0-1.791,0c-0.519,0-0.924,0.043-1.214,0.13
			s-0.55,0.184-0.778,0.292c-0.208,0.108-0.41,0.206-0.607,0.292c-0.197,0.087-0.451,0.13-0.762,0.13
			c-0.167,0-0.396-0.109-0.687-0.325c-0.29-0.216-0.56-0.464-0.809-0.746c-0.25-0.281-0.441-0.562-0.576-0.843
			c-0.135-0.28-0.119-0.486,0.047-0.616c0.165-0.129,0.296-0.188,0.39-0.178c0.093,0.011,0.243,0.059,0.451,0.146
			c0.207,0.064,0.523,0.129,0.949,0.194c0.425,0.065,1.074,0.076,1.946,0.032c0.498,0,1.079,0,1.743,0s1.349,0,2.056,0
			c0.705,0,1.39,0,2.055,0s1.256,0,1.774,0c0.084,0,0.166-0.021,0.249-0.064c0.084-0.043,0.166-0.099,0.25-0.163
			c0.083-0.065,0.171-0.125,0.265-0.178c0.093-0.054,0.191-0.091,0.295-0.114c0.188-0.021,0.437-0.021,0.748,0
			c0.312,0.023,0.561,0.065,0.747,0.13c0.229,0.281,0.348,0.524,0.358,0.729c0.01,0.206-0.026,0.395-0.109,0.568
			c-0.104,0.194-0.223,0.389-0.357,0.583c-0.136,0.194-0.224,0.412-0.266,0.649c-0.083,0.345-0.165,0.735-0.249,1.167
			c-0.083,0.432-0.165,0.875-0.249,1.33c-0.083,0.454-0.166,0.907-0.249,1.361c-0.082,0.455-0.155,0.855-0.217,1.2
			c0.165,0.043,0.311,0.071,0.435,0.081c0.125,0.012,0.229,0.049,0.312,0.113c0.083,0.065,0.146,0.152,0.188,0.259
			c0.041,0.109,0.051,0.271,0.03,0.487c-0.042,0.172-0.104,0.292-0.186,0.356c-0.084,0.065-0.188,0.119-0.313,0.163
			c-0.124,0.021-0.26,0.038-0.404,0.048c-0.146,0.011-0.291,0.016-0.436,0.016c-0.561,0-1.542,0-2.942,0c-1.401,0-3.348,0-5.839,0
			L287.333,233.695z M306.795,240.765c0,0.367-0.1,0.681-0.297,0.941c-0.197,0.259-0.399,0.442-0.606,0.551
			c-0.229,0.086-0.437,0.076-0.623-0.032c-0.188-0.108-0.28-0.368-0.28-0.778v-23.51c-0.021-0.325-0.053-0.632-0.094-0.925
			c-0.042-0.292-0.083-0.577-0.124-0.858c-0.043-0.26-0.089-0.514-0.141-0.763c-0.052-0.248-0.099-0.481-0.14-0.697
			c-0.125-0.345-0.307-0.616-0.546-0.811c-0.238-0.194-0.472-0.356-0.7-0.487c-0.249-0.129-0.462-0.248-0.638-0.357
			c-0.178-0.107-0.255-0.248-0.233-0.42c0.062-0.281,0.28-0.481,0.653-0.6c0.374-0.119,0.747-0.146,1.121-0.081
			c0.083,0.043,0.279,0.119,0.592,0.226c0.311,0.109,0.633,0.25,0.965,0.422c0.331,0.174,0.628,0.357,0.888,0.551
			c0.259,0.195,0.379,0.379,0.358,0.552c-0.063,0.454-0.104,1.011-0.125,1.67c-0.021,0.659-0.03,1.519-0.03,2.578V240.765z"/>
		<path stroke="#000000" stroke-width="0.4" stroke-miterlimit="10" d="M318.985,216.055c-0.136-0.238-0.296-0.487-0.483-0.747
			c-0.166-0.194-0.311-0.4-0.436-0.616c-0.124-0.216-0.177-0.4-0.155-0.551c0-0.151,0.099-0.248,0.296-0.292
			c0.196-0.043,0.534,0.01,1.012,0.161c0.187,0.087,0.467,0.233,0.84,0.438c0.374,0.206,0.717,0.45,1.028,0.73
			c0.229,0.194,0.384,0.427,0.468,0.697c0.082,0.27,0.03,0.535-0.156,0.794c-0.332,0.518-0.712,1.086-1.137,1.702
			c-0.426,0.616-0.836,1.195-1.23,1.735c0.52,0.498,1.116,1.032,1.791,1.605s1.447,1.151,2.319,1.734
			c0.935,0.433,1.578,0.871,1.931,1.313c0.353,0.444,0.623,0.871,0.81,1.282c0.207,0.8,0.187,1.319-0.063,1.557
			c-0.248,0.238-0.611,0.194-1.09-0.13c-0.539-0.454-1.089-0.924-1.65-1.411c-0.561-0.486-1.12-0.978-1.681-1.476
			c-0.581-0.496-1.157-0.989-1.729-1.475c-0.571-0.487-1.127-0.957-1.666-1.411c-0.436,0.519-0.918,1.092-1.447,1.718
			c-0.529,0.627-1.074,1.264-1.635,1.914c-0.582,0.648-1.147,1.28-1.697,1.896s-1.043,1.163-1.479,1.638
			c-0.311,0.194-0.617,0.307-0.918,0.34c-0.302,0.032-0.545-0.005-0.731-0.113c-0.188-0.087-0.302-0.232-0.343-0.438
			c-0.041-0.206,0.051-0.449,0.28-0.73c0.934-1.015,1.816-1.983,2.647-2.902c0.829-0.918,1.618-1.832,2.366-2.74
			c0.747-0.886,1.457-1.793,2.133-2.724c0.674-0.929,1.313-1.912,1.915-2.95C319.156,216.476,319.118,216.293,318.985,216.055z
			 M324.979,229.707c0.206,0.022,0.404,0.107,0.592,0.259c0.166,0.152,0.301,0.34,0.404,0.568s0.155,0.438,0.155,0.632
			c1.017,0,1.915,0.146,2.693,0.438s1.438,0.697,1.978,1.216c0.519,0.498,0.914,1.076,1.184,1.735s0.404,1.345,0.404,2.059
			c0,0.779-0.188,1.514-0.56,2.205c-0.374,0.692-0.873,1.297-1.495,1.816c-0.623,0.518-1.355,0.924-2.195,1.215
			c-0.841,0.292-1.738,0.438-2.693,0.438c-0.976,0-1.884-0.146-2.725-0.438c-0.841-0.292-1.572-0.697-2.195-1.215
			c-0.623-0.519-1.111-1.125-1.463-1.816c-0.354-0.691-0.529-1.426-0.529-2.205c0-1.318,0.436-2.48,1.308-3.486
			c0.871-1.005,2.117-1.593,3.735-1.767c0.188-0.107,0.322-0.221,0.405-0.341c0.083-0.118,0.145-0.232,0.188-0.339
			c0.041-0.13,0.067-0.254,0.077-0.374c0.011-0.118,0.047-0.232,0.109-0.34C324.564,229.771,324.77,229.686,324.979,229.707z
			 M325.258,232.625c-0.187,0.086-0.348,0.141-0.482,0.163c-0.135,0.021-0.296,0.032-0.482,0.032
			c-1.162-0.085-2.081,0.238-2.756,0.973c-0.674,0.735-1.012,1.676-1.012,2.821c0,0.563,0.125,1.098,0.374,1.605
			c0.249,0.508,0.602,0.945,1.059,1.313c0.436,0.39,0.954,0.691,1.557,0.908c0.602,0.216,1.245,0.313,1.931,0.292
			c1.433,0,2.62-0.362,3.564-1.087c0.945-0.724,1.418-1.734,1.418-3.032c0-0.973-0.317-1.848-0.95-2.626
			c-0.634-0.779-1.696-1.199-3.191-1.265l-0.529-0.356L325.258,232.625z M332.326,223.221l0.032,4.475c0,0.345-0.1,0.66-0.297,0.94
			c-0.197,0.281-0.41,0.477-0.638,0.584c-0.229,0.129-0.437,0.146-0.623,0.049c-0.188-0.099-0.279-0.362-0.279-0.794v-10.54
			c0-0.951-0.032-1.632-0.094-2.043c-0.063-0.41-0.198-0.811-0.405-1.2c-0.188-0.345-0.404-0.616-0.653-0.811
			c-0.25-0.194-0.488-0.356-0.717-0.487c-0.207-0.129-0.389-0.248-0.545-0.357c-0.156-0.107-0.224-0.248-0.202-0.42
			c0.062-0.281,0.28-0.481,0.654-0.6c0.372-0.119,0.746-0.146,1.12-0.081c0.082,0.043,0.28,0.119,0.592,0.226
			c0.312,0.109,0.633,0.25,0.965,0.422c0.332,0.174,0.628,0.357,0.888,0.551c0.259,0.195,0.379,0.379,0.358,0.552
			c-0.063,0.454-0.1,1.011-0.109,1.67c-0.011,0.659-0.015,1.519-0.015,2.578v3.794h4.452c0.331,0,0.55,0.075,0.653,0.228
			c0.104,0.151,0.125,0.323,0.063,0.518c-0.063,0.196-0.203,0.368-0.42,0.519c-0.219,0.152-0.463,0.228-0.731,0.228H332.326z"/>
		<path stroke="#000000" stroke-width="0.4" stroke-miterlimit="10" d="M340.172,226.302l15.039-2.14
			c0.291-0.065,0.487-0.027,0.593,0.113c0.103,0.14,0.134,0.319,0.092,0.535c-0.062,0.194-0.191,0.395-0.389,0.6
			c-0.197,0.206-0.451,0.329-0.764,0.373l-13.855,2.335c-0.187,0.107-0.343,0.248-0.468,0.421c-0.124,0.174-0.248,0.336-0.372,0.487
			c-0.105,0.151-0.229,0.271-0.374,0.357c-0.146,0.086-0.322,0.075-0.529-0.033c-0.519-0.28-0.852-0.805-0.997-1.572
			c-0.145-0.767-0.083-1.454,0.187-2.06v-7.523c-0.145-0.39-0.342-0.665-0.591-0.828c-0.249-0.161-0.488-0.275-0.717-0.339
			c-0.249-0.065-0.456-0.125-0.622-0.178c-0.167-0.054-0.249-0.179-0.249-0.374c0-0.172,0.149-0.351,0.452-0.535
			c0.3-0.183,0.586-0.308,0.855-0.373c0.499-0.085,0.981-0.113,1.447-0.081c0.468,0.032,0.889,0.233,1.262,0.6
			c1.059,0,1.962,0,2.708,0c0.748,0,1.651,0,2.71,0c0.456,0,0.809-0.027,1.059-0.081c0.249-0.054,0.456-0.113,0.623-0.178
			c0.165-0.065,0.316-0.129,0.451-0.194c0.135-0.065,0.316-0.119,0.545-0.163c0.456-0.065,0.935-0.085,1.433-0.065
			c0.498,0.021,0.871,0.119,1.12,0.292c0.437,0.648,0.503,1.124,0.202,1.427s-0.929,0.454-1.884,0.454h-8.967V226.302z
			 M358.653,234.636c-0.073,0.476-0.141,0.951-0.203,1.427s-0.12,0.951-0.171,1.427c-0.052,0.475-0.088,0.94-0.108,1.395
			c0.477,0.172,0.819,0.367,1.027,0.583c0.207,0.216,0.311,0.422,0.311,0.616c-0.021,0.195-0.141,0.352-0.357,0.471
			c-0.219,0.118-0.515,0.178-0.889,0.178c-1.91,0-3.949,0-6.117,0c-2.17,0-4.22,0-6.15,0l-0.031,0.389
			c-0.042,0.281-0.145,0.523-0.311,0.729c-0.167,0.206-0.343,0.352-0.529,0.438c-0.167,0.086-0.327,0.114-0.483,0.081
			c-0.155-0.032-0.233-0.157-0.233-0.373l-0.28-8.82c-0.063-0.303-0.238-0.508-0.529-0.616c-0.291-0.107-0.56-0.173-0.809-0.194
			c-0.396-0.109-0.535-0.281-0.421-0.519c0.113-0.238,0.316-0.432,0.606-0.584c0.436-0.065,0.965-0.119,1.588-0.163
			c0.623-0.042,1.152,0.065,1.588,0.325h10.214c0.146-0.043,0.28-0.091,0.404-0.146c0.125-0.054,0.25-0.102,0.374-0.145
			c0.104-0.065,0.219-0.114,0.342-0.146c0.125-0.032,0.271-0.059,0.437-0.081c0.146,0,0.301,0,0.467,0
			c0.167,0,0.333,0.012,0.498,0.033c0.146,0.043,0.286,0.107,0.421,0.194s0.243,0.206,0.327,0.356
			c0.062,0.194,0.077,0.368,0.047,0.519c-0.031,0.151-0.089,0.292-0.172,0.421c-0.083,0.152-0.187,0.292-0.311,0.422
			c-0.125,0.13-0.229,0.259-0.313,0.39C358.802,233.695,358.724,234.161,358.653,234.636z M346.088,232.917l-0.031,6.324h8.999
			c0.187,0,0.357-0.005,0.514-0.016c0.155-0.011,0.306-0.039,0.451-0.081c0.125-0.021,0.239-0.077,0.343-0.162
			c0.104-0.087,0.187-0.206,0.249-0.357l0.312-5.708H346.088z M358.979,227.437c0,0.346-0.098,0.66-0.296,0.939
			c-0.197,0.281-0.41,0.477-0.638,0.584c-0.229,0.13-0.441,0.146-0.639,0.049s-0.295-0.362-0.295-0.794V218
			c0-0.649-0.053-1.244-0.157-1.784c-0.104-0.54-0.207-1.027-0.311-1.458c-0.125-0.346-0.301-0.616-0.529-0.811
			c-0.229-0.196-0.468-0.357-0.717-0.487c-0.229-0.129-0.431-0.248-0.607-0.356c-0.176-0.107-0.253-0.248-0.232-0.422
			c0.062-0.28,0.274-0.48,0.638-0.6c0.363-0.118,0.732-0.145,1.105-0.08c0.083,0.043,0.281,0.119,0.592,0.227
			c0.311,0.108,0.634,0.249,0.965,0.422c0.354,0.173,0.659,0.356,0.919,0.551s0.379,0.378,0.358,0.551
			c-0.063,0.455-0.104,1.012-0.125,1.67c-0.021,0.659-0.031,1.519-0.031,2.579v3.761h4.453c0.331,0,0.545,0.082,0.639,0.244
			c0.093,0.162,0.108,0.331,0.046,0.503c-0.062,0.194-0.202,0.368-0.42,0.519s-0.463,0.227-0.731,0.227h-3.986V227.437z"/>
		<path stroke="#000000" stroke-width="0.4" stroke-miterlimit="10" d="M366.732,227.259c-0.954,1.178-1.972,2.296-3.051,3.356
			c-0.292,0.151-0.576,0.232-0.856,0.244c-0.28,0.01-0.515-0.027-0.701-0.114c-0.187-0.086-0.311-0.21-0.373-0.373
			c-0.062-0.163,0-0.351,0.187-0.567c1.826-1.902,3.514-3.865,5.061-5.886c1.545-2.021,3.014-4.091,4.405-6.21
			c0-0.064,0.01-0.135,0.03-0.21c0.021-0.075,0.043-0.146,0.063-0.21c0.021-0.065,0.025-0.13,0.015-0.195
			c-0.01-0.064-0.035-0.129-0.078-0.194c-0.082-0.086-0.186-0.172-0.311-0.259c-0.125-0.086-0.239-0.183-0.343-0.292
			c-0.125-0.109-0.223-0.216-0.295-0.325c-0.073-0.107-0.1-0.227-0.078-0.357c0-0.194,0.109-0.297,0.327-0.307
			c0.217-0.012,0.534,0.027,0.949,0.113c0.478,0.129,0.876,0.308,1.199,0.535c0.32,0.228,0.617,0.47,0.887,0.729
			c0.063,0.13,0.083,0.275,0.063,0.438c-0.021,0.163-0.053,0.275-0.094,0.341c-0.124,0.194-0.306,0.487-0.545,0.875
			s-0.503,0.822-0.793,1.297c-0.292,0.454-0.603,0.93-0.935,1.427s-0.634,0.941-0.902,1.33c0.373,0.541,0.813,1.06,1.322,1.557
			c0.509,0.498,0.98,0.94,1.417,1.33c0.851,0.519,1.421,1.026,1.713,1.524c0.29,0.497,0.509,1.038,0.653,1.622
			c0.063,0.562-0.135,0.87-0.592,0.923c-0.456,0.054-0.924-0.2-1.4-0.762c-0.291-0.324-0.598-0.674-0.919-1.054
			c-0.322-0.377-0.659-0.783-1.012-1.215c-0.354-0.411-0.727-0.838-1.121-1.282c-0.395-0.442-0.789-0.88-1.184-1.313
			C368.589,224.919,367.686,226.08,366.732,227.259z M373.582,241.381c-0.789,0.065-1.412-0.076-1.868-0.422
			c-0.457-0.345-0.686-0.919-0.686-1.718v-4.572c-0.104-0.26-0.28-0.476-0.529-0.648c-0.249-0.173-0.498-0.325-0.747-0.455
			c-0.248-0.129-0.462-0.238-0.639-0.324c-0.176-0.087-0.255-0.172-0.232-0.259c-0.022-0.194,0.041-0.347,0.186-0.454
			c0.146-0.108,0.332-0.174,0.562-0.195c0.207-0.042,0.446-0.054,0.716-0.032c0.27,0.022,0.529,0.032,0.778,0.032
			c0.29,0,0.658,0.077,1.105,0.228c0.446,0.151,0.711,0.4,0.795,0.745c-0.022,0.174-0.043,0.325-0.063,0.455
			c-0.021,0.129-0.041,0.248-0.062,0.356c0,0.107-0.006,0.216-0.016,0.324c-0.011,0.108-0.017,0.206-0.017,0.292v4.085
			c0,0.498,0.192,0.805,0.576,0.924c0.384,0.119,0.805,0.179,1.261,0.179h7.848c0.207-0.022,0.415-0.055,0.623-0.098
			c0.207-0.043,0.404-0.097,0.591-0.161c0.166-0.065,0.337-0.125,0.515-0.178c0.176-0.055,0.347-0.103,0.513-0.146
			c0.229-0.043,0.436-0.071,0.623-0.081c0.187-0.011,0.363-0.016,0.529-0.016c0.146,0,0.297,0.01,0.452,0.032
			c0.155,0.021,0.327,0.043,0.513,0.065c0.271,0.065,0.52,0.205,0.748,0.422c0.229,0.215,0.374,0.454,0.436,0.713
			c0.063,0.238,0.032,0.448-0.093,0.632c-0.125,0.183-0.385,0.275-0.778,0.275H373.582z M381.833,232.009
			c0,0.345-0.099,0.654-0.296,0.924c-0.196,0.271-0.409,0.459-0.638,0.568c-0.229,0.129-0.436,0.146-0.623,0.048
			c-0.187-0.097-0.27-0.361-0.249-0.794v-9.696h-2.304c-0.167,0.065-0.333,0.141-0.498,0.227c-0.167,0.086-0.322,0.173-0.468,0.26
			c-0.146,0.064-0.286,0.119-0.42,0.161c-0.136,0.044-0.255,0.033-0.358-0.032c-0.187-0.065-0.409-0.183-0.669-0.356
			c-0.261-0.173-0.494-0.378-0.701-0.616c-0.188-0.216-0.332-0.442-0.437-0.681c-0.104-0.238-0.093-0.442,0.032-0.616
			c0.062-0.107,0.149-0.157,0.264-0.145c0.115,0.01,0.266,0.048,0.452,0.113c0.166,0.065,0.378,0.125,0.639,0.179
			c0.259,0.054,0.564,0.059,0.918,0.016c0.456,0,1.044,0,1.76,0s1.312,0,1.79,0v-4.832c0-0.498-0.067-0.886-0.203-1.167
			c-0.135-0.281-0.295-0.497-0.482-0.648c-0.208-0.173-0.41-0.297-0.606-0.374c-0.198-0.075-0.348-0.178-0.451-0.307
			c-0.187-0.173-0.239-0.345-0.156-0.519c0.083-0.173,0.332-0.281,0.748-0.325c0.187-0.064,0.45-0.07,0.793-0.016
			c0.343,0.055,0.69,0.146,1.044,0.275c0.352,0.13,0.669,0.287,0.949,0.471c0.281,0.184,0.44,0.362,0.483,0.535
			c0.021,0.173,0.021,0.351,0,0.535c-0.022,0.184-0.053,0.362-0.094,0.535c-0.043,0.172-0.09,0.346-0.141,0.519
			c-0.052,0.172-0.078,0.335-0.078,0.486V232.009z M384.791,217.936c0-0.281-0.005-0.6-0.016-0.957
			c-0.01-0.356-0.015-0.697-0.015-1.022c-0.021-0.323-0.042-0.61-0.063-0.858c-0.021-0.248-0.041-0.416-0.062-0.503
			c-0.124-0.389-0.291-0.67-0.498-0.844c-0.208-0.172-0.416-0.313-0.623-0.42c-0.208-0.087-0.389-0.178-0.545-0.275
			c-0.156-0.099-0.244-0.255-0.265-0.471c0-0.238,0.182-0.426,0.546-0.567c0.362-0.141,0.731-0.146,1.104-0.016
			c0.083,0.043,0.25,0.107,0.498,0.194c0.249,0.087,0.519,0.206,0.811,0.357c0.29,0.129,0.564,0.281,0.824,0.454
			c0.259,0.174,0.44,0.335,0.545,0.486c0.021,0.346,0.01,0.639-0.031,0.875c-0.042,0.239-0.083,0.499-0.124,0.779
			c-0.063,0.281-0.12,0.638-0.172,1.07c-0.052,0.433-0.077,1.006-0.077,1.719v14.95c0,0.367-0.099,0.686-0.297,0.956
			c-0.197,0.271-0.409,0.471-0.638,0.6c-0.229,0.108-0.436,0.114-0.623,0.016c-0.187-0.097-0.28-0.361-0.28-0.794V217.936z"/>
		<path stroke="#000000" stroke-width="0.4" stroke-miterlimit="10" d="M393.043,225.654h5.105c0.25-0.065,0.479-0.141,0.687-0.228
			c0.207-0.086,0.425-0.172,0.653-0.259c0.228-0.065,0.493-0.119,0.794-0.163c0.3-0.043,0.67-0.054,1.105-0.032
			c0.705,0.065,1.188,0.21,1.448,0.438c0.259,0.227,0.347,0.47,0.264,0.729c-0.104,0.259-0.348,0.487-0.731,0.681
			s-0.866,0.292-1.447,0.292h-7.878v5.967c1.328-0.065,2.595-0.125,3.798-0.179c1.204-0.054,2.387-0.125,3.551-0.211
			c1.183-0.064,2.371-0.139,3.564-0.226s2.455-0.194,3.783-0.325c0.187,0.043,0.321,0.146,0.405,0.309
			c0.082,0.161,0.104,0.329,0.063,0.502c-0.042,0.174-0.146,0.336-0.313,0.487c-0.165,0.151-0.394,0.238-0.685,0.259
			c-2.366,0.194-4.728,0.405-7.084,0.632c-2.355,0.228-4.707,0.449-7.053,0.666c-0.207,0.258-0.451,0.518-0.731,0.777
			c-0.28,0.259-0.576,0.271-0.887,0.033c-0.125-0.087-0.239-0.238-0.344-0.454c-0.104-0.216-0.176-0.465-0.217-0.747
			c-0.042-0.259-0.047-0.529-0.016-0.81c0.03-0.281,0.141-0.541,0.326-0.779v-13.198c-0.249-0.216-0.404-0.357-0.467-0.422
			c-0.125-0.064-0.26-0.107-0.405-0.129c-0.145-0.021-0.29-0.065-0.436-0.129c-0.124-0.043-0.244-0.103-0.357-0.178
			c-0.114-0.077-0.202-0.2-0.266-0.374c0-0.194,0.084-0.34,0.25-0.438c0.165-0.097,0.363-0.179,0.592-0.243
			c0.249-0.043,0.503-0.065,0.763-0.065c0.259,0,0.503-0.01,0.731-0.033c0.124,0.023,0.254,0.044,0.39,0.065
			c0.135,0.022,0.264,0.043,0.389,0.065c0.125,0.043,0.243,0.097,0.357,0.162c0.114,0.064,0.224,0.141,0.327,0.227h5.948
			c0.229,0,0.42-0.021,0.575-0.064c0.156-0.043,0.307-0.099,0.452-0.163c0.124-0.065,0.254-0.13,0.389-0.194
			c0.135-0.065,0.296-0.119,0.483-0.162c0.477-0.065,0.907-0.081,1.292-0.049c0.384,0.033,0.68,0.06,0.887,0.081
			c0.313,0.065,0.55,0.206,0.717,0.422c0.166,0.216,0.249,0.444,0.249,0.681c-0.021,0.238-0.13,0.454-0.327,0.648
			s-0.493,0.292-0.888,0.292h-9.808V225.654z M413.158,240.796c0,0.368-0.1,0.687-0.297,0.957c-0.197,0.271-0.41,0.449-0.639,0.535
			c-0.229,0.108-0.436,0.108-0.622,0c-0.188-0.108-0.281-0.367-0.281-0.777v-15.177c-0.372,0-0.782,0.011-1.229,0.033
			c-0.447,0.021-0.888,0.097-1.323,0.226c-0.188,0.065-0.374,0.13-0.561,0.194c-0.188,0.065-0.363,0.12-0.529,0.163
			c-0.167,0.065-0.322,0.103-0.468,0.114c-0.145,0.01-0.27-0.006-0.373-0.049c-0.187-0.065-0.415-0.194-0.686-0.389
			c-0.27-0.195-0.519-0.422-0.747-0.681c-0.229-0.238-0.4-0.481-0.514-0.729c-0.114-0.249-0.109-0.459,0.015-0.633
			c0.063-0.129,0.151-0.188,0.266-0.178c0.113,0.011,0.264,0.049,0.451,0.114c0.166,0.064,0.379,0.135,0.639,0.21
			c0.259,0.077,0.565,0.113,0.919,0.113c0.621,0,1.317,0,2.086,0c0.767,0,1.453,0,2.054,0v-6.875
			c-0.021-0.648-0.077-1.242-0.17-1.783c-0.094-0.54-0.192-1.026-0.296-1.459c-0.125-0.345-0.302-0.616-0.529-0.811
			c-0.229-0.194-0.468-0.357-0.717-0.486c-0.229-0.13-0.431-0.248-0.607-0.357c-0.176-0.108-0.253-0.248-0.232-0.421
			c0.062-0.281,0.274-0.481,0.638-0.601c0.363-0.119,0.731-0.146,1.105-0.081c0.083,0.043,0.279,0.119,0.592,0.228
			c0.311,0.109,0.634,0.248,0.965,0.422c0.354,0.172,0.658,0.356,0.919,0.551c0.26,0.194,0.379,0.378,0.357,0.551
			c-0.062,0.454-0.108,1.01-0.141,1.67c-0.03,0.66-0.045,1.519-0.045,2.578V240.796z"/>
	</g>
	<g>
		<path opacity="0.9" fill="#73B78A" enable-background="new    " d="M155.679,255.36c-0.478-0.488-1.069-0.875-1.755-1.146
			c-0.654-0.26-1.386-0.396-2.179-0.408h-0.111v0.116l-0.021-0.114c-0.017,0.002-0.105,0.013-0.265,0.03
			c-0.192,0.021-0.434,0.041-0.724,0.063c-0.303,0.021-0.623,0.041-0.962,0.062c-0.327,0.021-0.631,0.025-0.924,0.016
			c-0.312,0-0.588-0.002-0.828-0.008c-0.23-0.004-0.513-0.038-0.842-0.101l-0.139-0.024v0.68h0.117c0.397,0,0.661,0.122,0.807,0.373
			c0.156,0.269,0.235,0.835,0.235,1.687v6.089c-0.011,0.443-0.031,0.793-0.063,1.07c-0.029,0.266-0.087,0.478-0.176,0.634
			c-0.071,0.142-0.163,0.233-0.282,0.281c-0.132,0.052-0.307,0.078-0.521,0.078h-0.117v0.66l0.121-0.005
			c0.336-0.01,0.595-0.021,0.778-0.031c0.185-0.011,0.33-0.021,0.424-0.031c0.12,0,0.211-0.002,0.277-0.008
			c0.065-0.006,0.152-0.02,0.239-0.039c0.175,0,0.361,0.005,0.557,0.016c0.197,0.011,0.421,0.025,0.667,0.047
			c0.477,0.051,0.799,0.091,0.957,0.116c0.225,0.036,0.291,0.041,0.324,0.041c0.043,0,0.076-0.007,0.099-0.019
			c0.031-0.007,0.096-0.016,0.183-0.029c0.653,0,1.255-0.066,1.79-0.199c0.537-0.133,1.02-0.335,1.438-0.603
			c0.755-0.501,1.352-1.201,1.771-2.083c0.417-0.879,0.629-1.892,0.629-3.011c-0.01-0.877-0.145-1.677-0.398-2.38
			C156.532,256.475,156.159,255.863,155.679,255.36z M155.494,259.624c0,1.562-0.362,2.784-1.076,3.635
			c-0.71,0.846-1.715,1.274-2.988,1.274c-0.379,0-0.716-0.028-1.003-0.086c-0.278-0.052-0.476-0.122-0.591-0.208
			c-0.101-0.067-0.164-0.164-0.193-0.297c-0.035-0.151-0.052-0.461-0.052-0.921v-8.107c0.304-0.054,0.611-0.097,0.914-0.13
			c0.328-0.037,0.619-0.056,0.864-0.056c1.273,0,2.29,0.435,3.019,1.291C155.122,256.882,155.494,258.093,155.494,259.624z"/>
		<path d="M168.263,264.428c-0.21-0.224-0.41-0.62-0.593-1.178l-2.679-7.848c-0.083-0.228-0.147-0.414-0.194-0.561
			c-0.047-0.145-0.086-0.269-0.118-0.377c-0.032-0.096-0.063-0.183-0.096-0.264c-0.031-0.077-0.061-0.161-0.092-0.253l-0.032-0.094
			l-0.099,0.016c-0.401,0.066-0.807,0.101-1.208,0.101h-0.094c-0.433-0.004-0.857-0.038-1.259-0.101l-0.135-0.021v0.676h0.117
			c0.21,0,0.369,0.045,0.473,0.13c0.098,0.082,0.146,0.206,0.146,0.38c0,0.113-0.02,0.246-0.059,0.393
			c-0.042,0.156-0.125,0.447-0.248,0.867l-2.554,7.021c-0.073,0.239-0.138,0.447-0.195,0.625c-0.054,0.167-0.117,0.317-0.185,0.445
			c-0.065,0.111-0.144,0.201-0.235,0.271c-0.089,0.066-0.21,0.115-0.359,0.143l-0.099,0.02l0.025,0.604l0.127-0.016
			c0.466-0.063,0.922-0.097,1.356-0.103h0.091c0.416,0,0.877,0.029,1.374,0.087l0.131,0.016v-0.671h-0.117
			c-0.349,0-0.612-0.06-0.778-0.176c-0.156-0.108-0.232-0.27-0.232-0.491c0-0.075,0.015-0.18,0.044-0.312
			c0.03-0.137,0.081-0.297,0.153-0.481l0.867-2.65c0.151-0.009,0.379-0.017,0.685-0.026c0.729-0.021,1.583-0.021,2.311,0
			c0.308,0.01,0.54,0.018,0.699,0.026l0.805,2.506c0.083,0.279,0.142,0.492,0.178,0.637c0.034,0.137,0.051,0.248,0.051,0.332
			c0,0.241-0.067,0.401-0.204,0.489c-0.152,0.097-0.402,0.146-0.743,0.146h-0.117v0.669l0.13-0.014
			c0.747-0.083,1.386-0.125,1.898-0.125c0.511,0,1.086,0.042,1.707,0.125l0.127,0.017l0.026-0.656h-0.122
			C168.688,264.753,168.468,264.646,168.263,264.428z M164.891,259.726h-3.04l1.555-4.482L164.891,259.726z"/>
		<path d="M176.385,259.646c-0.225-0.128-0.484-0.256-0.771-0.382c-0.292-0.127-0.72-0.286-1.27-0.472
			c-0.313-0.105-0.573-0.193-0.781-0.267c-0.197-0.068-0.368-0.136-0.509-0.2c-0.14-0.061-0.262-0.121-0.362-0.182
			c-0.102-0.061-0.204-0.127-0.311-0.201c-0.242-0.155-0.423-0.348-0.538-0.574c-0.116-0.226-0.175-0.496-0.175-0.8
			c0-0.558,0.21-1.025,0.625-1.392c0.421-0.37,0.966-0.559,1.622-0.559c0.658,0,1.193,0.153,1.589,0.454
			c0.398,0.305,0.722,0.795,0.963,1.458l0.036,0.101l0.809-0.212l-0.026-0.112c-0.103-0.434-0.187-0.87-0.248-1.298
			c-0.063-0.427-0.109-0.833-0.14-1.204l-0.01-0.126l-0.603,0.091l-0.022,0.069c-0.032,0.098-0.085,0.114-0.136,0.116h-0.043
			c-0.097,0-0.194-0.013-0.296-0.038c-0.451-0.095-0.815-0.164-1.093-0.212c-0.279-0.047-0.563-0.071-0.842-0.071
			c-1.088,0-1.981,0.296-2.652,0.882c-0.676,0.59-1.019,1.381-1.019,2.351c0,0.464,0.09,0.901,0.269,1.302
			c0.181,0.404,0.457,0.727,0.816,0.955c0.447,0.309,0.965,0.562,1.541,0.751c0.563,0.186,1.105,0.39,1.611,0.607
			c0.495,0.212,0.918,0.479,1.258,0.792c0.328,0.305,0.493,0.713,0.502,1.246c0,0.63-0.224,1.146-0.665,1.533
			c-0.446,0.391-1.053,0.59-1.802,0.59c-0.452,0-0.875-0.079-1.255-0.236c-0.376-0.151-0.686-0.385-0.926-0.694
			c-0.147-0.177-0.267-0.382-0.356-0.608c-0.091-0.232-0.184-0.569-0.276-1l-0.025-0.119l-0.8,0.196l0.016,0.105
			c0.097,0.644,0.17,1.2,0.227,1.702c0.057,0.511,0.102,0.988,0.133,1.42l0.007,0.108h0.635l0.025-0.082
			c0.027-0.09,0.06-0.158,0.096-0.202c0.021-0.026,0.045-0.04,0.077-0.043c0.347,0.092,0.635,0.166,0.861,0.222
			c0.232,0.059,0.433,0.104,0.604,0.137c0.18,0.03,0.345,0.052,0.489,0.063c0.143,0.011,0.311,0.016,0.502,0.016
			c1.213,0,2.184-0.3,2.886-0.896c0.708-0.601,1.067-1.444,1.067-2.509c0-0.546-0.112-1.051-0.333-1.5
			C177.141,260.271,176.813,259.909,176.385,259.646z"/>
		<path d="M189.098,255.349c-0.49-0.533-1.08-0.956-1.753-1.258c-0.675-0.303-1.421-0.456-2.217-0.456
			c-0.806,0-1.554,0.153-2.224,0.456c-0.669,0.302-1.256,0.725-1.745,1.258c-0.488,0.529-0.873,1.167-1.143,1.893
			c-0.27,0.724-0.406,1.525-0.406,2.381c-0.011,0.877,0.123,1.692,0.398,2.423c0.276,0.73,0.663,1.369,1.151,1.901
			c0.488,0.531,1.079,0.948,1.754,1.241c0.673,0.292,1.419,0.439,2.215,0.439c0.797,0,1.543-0.147,2.215-0.439
			c0.676-0.293,1.266-0.71,1.755-1.241c0.488-0.531,0.875-1.171,1.15-1.901c0.275-0.73,0.415-1.546,0.415-2.421
			c0-0.856-0.14-1.658-0.416-2.383C189.972,256.515,189.586,255.878,189.098,255.349z M185.128,264.644
			c-0.572,0-1.1-0.12-1.567-0.355c-0.469-0.238-0.875-0.578-1.206-1.009c-0.335-0.437-0.597-0.97-0.779-1.583
			c-0.184-0.618-0.277-1.315-0.277-2.072c0-0.747,0.093-1.437,0.277-2.05c0.182-0.608,0.444-1.139,0.779-1.575
			c0.332-0.433,0.737-0.775,1.206-1.017c0.467-0.241,0.994-0.363,1.566-0.363c0.574,0,1.101,0.122,1.567,0.363
			c0.468,0.241,0.879,0.584,1.222,1.017c0.334,0.437,0.597,0.966,0.779,1.575c0.184,0.615,0.282,1.304,0.292,2.05
			c0,0.758-0.095,1.454-0.285,2.071c-0.188,0.614-0.453,1.147-0.786,1.583c-0.342,0.432-0.752,0.771-1.221,1.01
			C186.228,264.523,185.7,264.644,185.128,264.644z"/>
		<path d="M201.99,265.136l-0.022-0.173c0-0.095-0.002-0.219-0.008-0.372c-0.005-0.151-0.008-0.35-0.008-0.604
			c-0.01-0.26-0.016-0.584-0.016-0.975c0-0.392-0.005-0.869-0.016-1.432V259.6c0-0.757,0.005-1.635,0.016-2.639v-0.398
			c0-0.129,0.005-0.302,0.016-0.524c0-0.208,0.005-0.47,0.016-0.788c0.01-0.316,0.026-0.737,0.047-1.26l0.005-0.15l-0.148,0.031
			c-0.137,0.03-0.305,0.051-0.498,0.062c-0.403,0.021-0.819,0.019-1.169,0c-0.177-0.011-0.324-0.03-0.439-0.06l-0.146-0.038v0.69
			h0.117c0.452,0,0.772,0.105,0.953,0.313c0.184,0.212,0.282,0.591,0.292,1.123l0.032,1.548v4.883l-5.768-8.472l-0.042-0.063
			l-0.074,0.013c-0.881,0.145-1.752,0.145-2.592,0l-0.137-0.022v0.678h0.117c0.214,0,0.403,0.055,0.561,0.161
			c0.157,0.106,0.26,0.238,0.311,0.384c0.011,0.066,0.025,0.13,0.042,0.191c0.007,0.028,0.022,0.11,0.035,0.337
			c0,0.18,0.008,0.445,0.023,0.797c0.015,0.349,0.034,0.843,0.055,1.474v3.759c0,0.176-0.005,0.402-0.016,0.677
			c-0.011,0.276-0.021,0.604-0.03,0.968c-0.021,0.17-0.035,0.293-0.04,0.367c-0.005,0.075-0.008,0.167-0.008,0.274
			c0,0.093-0.003,0.238-0.008,0.436c-0.005,0.174-0.012,0.433-0.02,0.777l-0.007,0.283l0.136-0.019
			c0.24-0.03,0.424-0.054,0.555-0.069c0.234-0.028,0.488-0.031,0.821,0l0.046,0.005c0.169,0.016,0.401,0.036,0.696,0.065
			l0.129,0.013v-0.668h-0.117c-0.324,0-0.58-0.047-0.762-0.138c-0.169-0.085-0.278-0.217-0.333-0.41
			c-0.059-0.176-0.1-0.409-0.12-0.69c-0.02-0.289-0.03-0.797-0.03-1.512v-6.553l6.73,9.965l0.069-0.007
			c0.107-0.01,0.195-0.022,0.265-0.033c0.061-0.009,0.11-0.014,0.124-0.016l0.433,0.084l-0.046-0.18
			C202.003,265.21,201.995,265.174,201.99,265.136z"/>
		<path d="M206.541,253.979c-0.51,0-1.114-0.037-1.796-0.109l-0.13-0.014v0.67h0.117c0.212,0,0.389,0.028,0.527,0.086
			c0.125,0.051,0.221,0.146,0.292,0.289c0.077,0.154,0.131,0.364,0.161,0.625c0.031,0.274,0.046,0.631,0.046,1.06v6.092
			c0,0.852-0.077,1.42-0.228,1.688c-0.141,0.249-0.402,0.372-0.799,0.372h-0.117v0.668l0.129-0.013
			c0.416-0.042,0.77-0.073,1.062-0.094c0.564-0.041,1.057-0.041,1.556,0c0.254,0.021,0.563,0.052,0.927,0.094l0.131,0.016v-0.675
			l-0.16,0.004c-0.354,0-0.597-0.12-0.741-0.366c-0.161-0.273-0.242-0.844-0.242-1.694v-6.093c-0.01-0.853,0.061-1.42,0.212-1.688
			c0.14-0.249,0.406-0.371,0.813-0.371h0.117v-0.67l-0.13,0.014C207.64,253.942,207.052,253.979,206.541,253.979z"/>
		<path opacity="0.9" fill="#73B78A" enable-background="new    " d="M224.94,253.807c-0.322,0-0.672,0.01-1.04,0.032
			c-0.355,0.021-0.695,0.041-1.018,0.063c-0.326,0.021-0.608,0.041-0.849,0.062c-0.154,0.014-0.277,0.021-0.365,0.021
			c-0.04,0-0.072-0.001-0.111-0.005c-0.294,0-0.517-0.005-0.682-0.016c-0.177-0.01-0.367-0.035-0.563-0.075l-0.139-0.028v0.666
			h0.116c0.212,0,0.389,0.028,0.527,0.086c0.125,0.051,0.221,0.146,0.292,0.289c0.078,0.153,0.134,0.367,0.168,0.636
			c0.037,0.275,0.055,0.633,0.055,1.065v6.075c0,0.854-0.074,1.426-0.221,1.699c-0.136,0.254-0.404,0.377-0.821,0.377h-0.116v0.649
			l0.125-0.01c0.459-0.031,0.819-0.058,1.082-0.078c0.256-0.021,0.548-0.031,0.867-0.031c0.153,0,0.372,0.011,0.649,0.031
			c0.281,0.021,0.615,0.047,1.001,0.078l0.125,0.011v-0.65h-0.116c-0.222,0-0.405-0.03-0.543-0.087
			c-0.126-0.051-0.221-0.146-0.294-0.29c-0.075-0.143-0.129-0.353-0.159-0.623c-0.031-0.285-0.047-0.647-0.047-1.076v-2.522
			c0.319,0.017,0.571,0.028,0.756,0.032c0.212,0.005,0.338,0.008,0.38,0.008c0.728,0,1.344-0.043,1.828-0.127
			c0.498-0.086,0.933-0.227,1.296-0.42c0.487-0.259,0.875-0.629,1.15-1.1s0.415-1.009,0.415-1.603c0-0.993-0.341-1.774-1.013-2.321
			C227.009,254.081,226.089,253.807,224.94,253.807z M227.078,257.008c0,0.78-0.273,1.343-0.833,1.72
			c-0.568,0.382-1.434,0.576-2.573,0.576h-0.423c-0.083,0-0.16-0.004-0.234-0.008c-0.048-0.004-0.097-0.008-0.151-0.013v-4.387
			c0.272-0.052,0.518-0.09,0.734-0.112c0.236-0.025,0.514-0.039,0.825-0.039c0.844,0,1.505,0.201,1.967,0.599
			C226.846,255.736,227.078,256.296,227.078,257.008z"/>
		<path d="M236.303,259.646c-0.224-0.127-0.483-0.255-0.771-0.382c-0.292-0.127-0.719-0.286-1.27-0.472
			c-0.313-0.105-0.573-0.193-0.781-0.267c-0.198-0.068-0.369-0.136-0.511-0.2c-0.139-0.06-0.261-0.121-0.36-0.182
			c-0.103-0.062-0.205-0.127-0.311-0.201c-0.245-0.156-0.42-0.344-0.539-0.574c-0.115-0.225-0.175-0.493-0.175-0.8
			c0-0.565,0.205-1.021,0.626-1.392c0.419-0.37,0.966-0.559,1.621-0.559c0.658,0,1.193,0.153,1.589,0.454
			c0.399,0.305,0.723,0.795,0.964,1.458l0.036,0.101l0.809-0.212l-0.026-0.112c-0.103-0.434-0.187-0.87-0.25-1.298
			c-0.062-0.427-0.108-0.833-0.139-1.204l-0.01-0.126l-0.602,0.091l-0.023,0.068c-0.033,0.099-0.085,0.115-0.137,0.117h-0.043
			c-0.096,0-0.194-0.013-0.296-0.038c-0.449-0.095-0.815-0.164-1.093-0.212c-0.279-0.047-0.563-0.071-0.841-0.071
			c-1.089,0-1.981,0.296-2.652,0.882c-0.677,0.59-1.019,1.381-1.019,2.351c0,0.465,0.09,0.902,0.268,1.302
			c0.181,0.404,0.456,0.727,0.816,0.955c0.446,0.309,0.964,0.562,1.541,0.751c0.566,0.187,1.108,0.392,1.611,0.607
			c0.494,0.211,0.917,0.479,1.258,0.792c0.324,0.302,0.493,0.722,0.503,1.246c0,0.639-0.218,1.141-0.664,1.533
			c-0.447,0.391-1.054,0.59-1.803,0.59c-0.453,0-0.875-0.079-1.255-0.236c-0.376-0.151-0.687-0.385-0.925-0.694
			c-0.149-0.178-0.269-0.382-0.358-0.608c-0.09-0.23-0.183-0.568-0.277-1.001l-0.025-0.117l-0.8,0.195l0.016,0.105
			c0.092,0.615,0.169,1.188,0.226,1.702c0.057,0.507,0.102,0.984,0.134,1.42l0.008,0.108h0.633l0.025-0.082
			c0.027-0.091,0.061-0.158,0.096-0.202c0.021-0.026,0.044-0.04,0.077-0.043c0.347,0.092,0.634,0.166,0.86,0.222
			c0.232,0.059,0.434,0.104,0.604,0.137c0.18,0.03,0.345,0.052,0.49,0.063c0.143,0.011,0.31,0.016,0.5,0.016
			c1.214,0,2.185-0.3,2.887-0.896c0.708-0.601,1.066-1.444,1.066-2.509c0-0.548-0.111-1.053-0.332-1.502
			C237.057,260.27,236.729,259.908,236.303,259.646z"/>
		<path d="M247.018,253.963c-0.33,0-0.73-0.032-1.19-0.094l-0.143-0.019l0.05,0.69h0.109c0.275,0,0.483,0.053,0.617,0.156
			c0.127,0.098,0.19,0.234,0.19,0.417c0,0.21-0.068,0.462-0.201,0.749c-0.135,0.29-0.338,0.62-0.606,0.981
			c-0.284,0.377-0.605,0.792-0.954,1.234c-0.299,0.379-0.585,0.731-0.853,1.052l-2.292-3.407c-0.088-0.135-0.156-0.266-0.2-0.386
			c-0.042-0.111-0.064-0.219-0.064-0.318c0-0.158,0.065-0.271,0.202-0.354c0.155-0.093,0.395-0.141,0.715-0.141h0.116v-0.671
			l-0.13,0.015c-0.782,0.094-1.486,0.145-2.093,0.148h-0.096c-0.587,0-1.221-0.05-1.882-0.147l-0.134-0.021v0.658l0.098,0.017
			c0.192,0.03,0.36,0.077,0.513,0.141c0.149,0.063,0.308,0.175,0.477,0.332c0.17,0.15,0.365,0.371,0.58,0.655
			c0.221,0.296,0.488,0.675,0.794,1.124l2.251,3.399v2.501c0,0.854-0.074,1.422-0.221,1.689c-0.136,0.249-0.399,0.371-0.806,0.371
			h-0.117v0.669l0.129-0.014c0.589-0.063,1.205-0.099,1.831-0.109c0.622-0.013,1.202,0.026,1.725,0.108l0.135,0.021v-0.676h-0.117
			c-0.225,0-0.408-0.026-0.544-0.079c-0.125-0.048-0.22-0.14-0.293-0.285c-0.086-0.153-0.144-0.364-0.173-0.629
			c-0.031-0.279-0.047-0.64-0.047-1.067v-2.496c0.065-0.085,0.124-0.165,0.175-0.24c0.059-0.084,0.119-0.174,0.184-0.271
			c0.047-0.076,0.103-0.154,0.17-0.237c0.069-0.083,0.145-0.179,0.227-0.28c0.269-0.313,0.488-0.584,0.67-0.828
			c0.183-0.245,0.343-0.463,0.481-0.655l0.328-0.493c0.093-0.137,0.18-0.257,0.263-0.363c0.367-0.491,0.664-0.975,0.882-1.437
			c0.219-0.468,0.33-0.935,0.33-1.39v-0.143l-0.139,0.028C247.662,253.933,247.345,253.963,247.018,253.963z"/>
		<path d="M257.908,262.698c-0.354,0.648-0.777,1.14-1.256,1.463c-0.474,0.319-1.018,0.482-1.617,0.482
			c-0.541,0-1.04-0.117-1.48-0.348c-0.441-0.231-0.824-0.563-1.134-0.983c-0.313-0.435-0.56-0.965-0.733-1.576
			c-0.174-0.61-0.262-1.306-0.262-2.065c0-0.75,0.086-1.446,0.254-2.068c0.168-0.621,0.411-1.154,0.727-1.591
			c0.313-0.443,0.686-0.79,1.112-1.031c0.425-0.239,0.898-0.361,1.407-0.361c0.66,0,1.23,0.167,1.693,0.495
			c0.463,0.329,0.805,0.8,1.015,1.4l0.036,0.102l0.749-0.198l-0.03-0.112c-0.123-0.468-0.215-0.883-0.271-1.233
			c-0.058-0.352-0.096-0.767-0.116-1.231l-0.006-0.129l-0.666,0.092l-0.014,0.086c-0.017,0.099-0.051,0.219-0.126,0.231
			c-0.095,0.023-0.26-0.019-0.487-0.104c-0.354-0.124-0.68-0.222-0.969-0.286c-0.287-0.063-0.598-0.096-0.918-0.096
			c-0.736,0-1.425,0.157-2.048,0.466c-0.624,0.31-1.167,0.74-1.612,1.283c-0.446,0.542-0.798,1.191-1.046,1.931
			s-0.374,1.554-0.374,2.418c-0.01,0.896,0.107,1.716,0.35,2.434c0.245,0.722,0.594,1.347,1.041,1.855
			c0.445,0.511,0.991,0.911,1.622,1.189c0.629,0.277,1.346,0.416,2.13,0.416c0.834,0,1.566-0.209,2.179-0.621
			c0.609-0.412,1.144-1.045,1.588-1.883l0.052-0.1l-0.73-0.431L257.908,262.698z"/>
		<path d="M269.902,253.948c-0.516,0.041-1.021,0.037-1.621,0.008c-0.302-0.016-0.654-0.046-1.05-0.087l-0.13-0.014v0.67h0.117
			c0.211,0,0.39,0.028,0.526,0.086c0.125,0.051,0.221,0.146,0.292,0.289c0.078,0.155,0.135,0.367,0.169,0.628
			c0.037,0.271,0.055,0.626,0.055,1.057v2.192c-0.284,0.018-0.674,0.028-1.161,0.032c-0.569,0.006-1.154,0.008-1.761,0.008
			c-0.594,0-1.14-0.002-1.634-0.008c-0.445-0.004-0.67-0.016-0.786-0.025v-2.199c0-0.429,0.017-0.784,0.047-1.059
			c0.03-0.263,0.085-0.473,0.161-0.626c0.071-0.143,0.167-0.238,0.292-0.289c0.137-0.058,0.32-0.086,0.543-0.086h0.116v-0.671
			l-0.129,0.015c-0.738,0.084-1.372,0.126-1.883,0.126c-0.512,0-1.075-0.042-1.675-0.125l-0.133-0.02v0.675h0.117
			c0.405,0,0.669,0.121,0.805,0.37c0.146,0.269,0.222,0.838,0.222,1.689v6.092c0,0.852-0.075,1.421-0.222,1.689
			c-0.136,0.249-0.399,0.371-0.805,0.371h-0.117v0.671l0.131-0.016c0.362-0.042,0.672-0.073,0.928-0.094
			c0.495-0.041,0.99-0.041,1.557,0c0.29,0.021,0.648,0.052,1.076,0.094l0.128,0.013v-0.668h-0.116c-0.226,0-0.409-0.026-0.545-0.079
			c-0.125-0.048-0.22-0.14-0.29-0.28c-0.076-0.153-0.131-0.366-0.161-0.634c-0.03-0.279-0.047-0.64-0.047-1.067v-2.928
			c0.182-0.008,0.482-0.016,0.896-0.024c0.516-0.011,1.071-0.017,1.663-0.017c0.604,0.011,1.184,0.019,1.73,0.024
			c0.498,0.006,0.831,0.012,1.052,0.02v2.925c0,0.432-0.018,0.789-0.055,1.065c-0.034,0.267-0.091,0.48-0.169,0.636
			c-0.069,0.141-0.165,0.232-0.288,0.28c-0.138,0.053-0.315,0.079-0.53,0.079h-0.117v0.668l0.128-0.013
			c0.438-0.042,0.785-0.073,1.041-0.094c0.507-0.042,0.936-0.04,1.437,0c0.267,0.021,0.628,0.052,1.087,0.094l0.127,0.012v-0.667
			h-0.116c-0.225,0-0.405-0.026-0.536-0.078c-0.12-0.048-0.213-0.14-0.286-0.286c-0.086-0.153-0.142-0.363-0.166-0.626
			c-0.024-0.274-0.038-0.634-0.038-1.07v-6.093c-0.01-0.853,0.06-1.421,0.205-1.688c0.137-0.249,0.405-0.37,0.821-0.37h0.116v-0.669
			l-0.128,0.013C270.459,253.901,270.161,253.928,269.902,253.948z"/>
		<path d="M282.399,255.349c-0.489-0.533-1.079-0.956-1.753-1.258c-0.676-0.303-1.421-0.456-2.216-0.456
			c-0.808,0-1.557,0.153-2.225,0.456c-0.669,0.302-1.257,0.725-1.745,1.258c-0.49,0.531-0.874,1.168-1.143,1.893
			c-0.27,0.727-0.407,1.527-0.407,2.381c-0.012,0.878,0.124,1.693,0.399,2.423c0.274,0.729,0.661,1.369,1.15,1.901
			c0.487,0.531,1.078,0.948,1.754,1.241c0.673,0.292,1.419,0.439,2.216,0.439c0.796,0,1.542-0.147,2.215-0.439
			c0.676-0.293,1.267-0.71,1.754-1.241c0.489-0.531,0.875-1.171,1.152-1.901c0.274-0.73,0.413-1.546,0.413-2.421
			c0-0.855-0.139-1.658-0.413-2.383C283.274,256.515,282.887,255.878,282.399,255.349z M278.43,264.644
			c-0.572,0-1.1-0.12-1.568-0.355c-0.468-0.238-0.873-0.578-1.205-1.009c-0.335-0.438-0.597-0.971-0.778-1.583
			c-0.185-0.616-0.278-1.313-0.278-2.072c0-0.749,0.094-1.438,0.278-2.05c0.182-0.608,0.444-1.139,0.778-1.575
			c0.334-0.434,0.738-0.775,1.206-1.017s0.994-0.363,1.567-0.363c0.572,0,1.1,0.122,1.566,0.363c0.468,0.241,0.88,0.583,1.223,1.017
			c0.334,0.437,0.597,0.967,0.778,1.576c0.183,0.608,0.282,1.299,0.294,2.049c0,0.757-0.097,1.452-0.286,2.071
			c-0.188,0.614-0.452,1.147-0.785,1.582c-0.343,0.433-0.755,0.772-1.222,1.011C279.53,264.523,279.001,264.644,278.43,264.644z"/>
		<path d="M293.395,262.535c-0.113,0.401-0.238,0.725-0.372,0.961c-0.131,0.232-0.316,0.406-0.57,0.533
			c-0.245,0.128-0.579,0.216-0.992,0.261c-0.421,0.048-0.949,0.07-1.616,0.07h-1.292v-7.775c0-0.854,0.074-1.425,0.221-1.698
			c0.136-0.254,0.409-0.377,0.837-0.377h0.116v-0.656l-0.131,0.016c-0.761,0.094-1.409,0.142-1.928,0.142
			c-0.52,0-1.076-0.048-1.656-0.141l-0.136-0.021v0.661h0.117c0.416,0,0.685,0.123,0.82,0.377c0.146,0.273,0.221,0.845,0.221,1.698
			v6.076c0,0.854-0.074,1.425-0.221,1.698c-0.136,0.254-0.404,0.378-0.82,0.378h-0.117v0.646l0.123-0.007
			c0.405-0.021,0.766-0.036,1.078-0.047s0.657-0.021,1.029-0.031c0.366,0,0.801-0.003,1.301-0.008
			c0.501-0.006,1.143-0.008,1.926-0.008c0.375,0,0.671,0.002,0.89,0.008c0.215,0.005,0.38,0.013,0.484,0.021
			c0.152,0.025,0.212,0.047,0.23,0.056c0.027,0.011,0.052,0.03,0.072,0.058l0.029,0.038l0.555,0.069v-0.132
			c0-0.361,0.029-0.754,0.086-1.166c0.057-0.418,0.179-0.941,0.364-1.556l0.038-0.126l-0.656-0.121L293.395,262.535z"/>
		<path d="M305.024,255.349c-0.489-0.533-1.079-0.956-1.752-1.258c-0.676-0.303-1.421-0.456-2.217-0.456
			c-0.807,0-1.556,0.153-2.225,0.456c-0.668,0.302-1.256,0.725-1.744,1.258c-0.49,0.531-0.874,1.168-1.143,1.893
			c-0.271,0.727-0.407,1.527-0.407,2.381c-0.012,0.878,0.123,1.693,0.398,2.423c0.274,0.729,0.662,1.369,1.151,1.901
			c0.487,0.531,1.078,0.948,1.754,1.241c0.673,0.292,1.418,0.439,2.215,0.439s1.542-0.147,2.216-0.439
			c0.676-0.293,1.267-0.71,1.753-1.241c0.489-0.531,0.876-1.171,1.152-1.901c0.274-0.73,0.414-1.546,0.414-2.421
			c0-0.855-0.14-1.658-0.414-2.383C305.9,256.515,305.512,255.878,305.024,255.349z M301.055,264.644c-0.571,0-1.1-0.12-1.568-0.355
			c-0.467-0.238-0.872-0.578-1.205-1.009c-0.334-0.438-0.597-0.971-0.778-1.583c-0.184-0.616-0.277-1.313-0.277-2.072
			c0-0.749,0.094-1.438,0.277-2.05c0.182-0.608,0.445-1.139,0.778-1.575c0.334-0.434,0.739-0.775,1.206-1.017
			c0.468-0.241,0.995-0.363,1.567-0.363c0.573,0,1.1,0.122,1.567,0.363s0.879,0.583,1.222,1.017
			c0.334,0.437,0.597,0.967,0.779,1.576c0.183,0.608,0.282,1.299,0.293,2.049c0,0.757-0.096,1.452-0.285,2.071
			c-0.188,0.614-0.453,1.147-0.785,1.582c-0.344,0.433-0.755,0.773-1.223,1.011C302.155,264.523,301.627,264.644,301.055,264.644z"
			/>
		<path d="M317.853,264.379c-0.077-0.035-0.135-0.089-0.173-0.157c-0.045-0.089-0.072-0.219-0.082-0.386
			c-0.01-0.185-0.016-0.433-0.016-0.736v-0.783c0-0.248,0.006-0.486,0.016-0.714c0.011-0.221,0.019-0.431,0.023-0.629
			c0.006-0.2,0.008-0.389,0.008-0.567c0-0.109-0.008-0.21-0.024-0.311c-0.017-0.093-0.036-0.177-0.057-0.254l-0.026-0.091
			l-0.096,0.007c-0.271,0.021-0.492,0.034-0.668,0.038c-0.354,0.012-0.678,0.012-1.138,0c-0.229-0.004-0.52-0.018-0.872-0.038
			l-0.123-0.009v0.633h0.116c0.511,0,0.843,0.098,0.986,0.29c0.104,0.14,0.228,0.478,0.228,1.3c0,0.683-0.01,1.157-0.03,1.407
			c-0.025,0.295-0.072,0.418-0.11,0.475c-0.143,0.238-0.387,0.431-0.727,0.57c-0.353,0.145-0.737,0.22-1.146,0.22
			c-1.146,0-2.056-0.424-2.702-1.256c-0.654-0.841-0.986-2.045-0.986-3.576c0-0.788,0.089-1.513,0.263-2.154
			c0.171-0.634,0.419-1.183,0.735-1.632c0.312-0.453,0.69-0.804,1.126-1.044c0.437-0.24,0.926-0.362,1.455-0.362
			c0.661,0,1.239,0.158,1.713,0.468c0.475,0.309,0.852,0.781,1.123,1.404l0.048,0.109l0.731-0.333l-0.047-0.105
			c-0.186-0.419-0.331-0.83-0.434-1.22c-0.102-0.389-0.163-0.771-0.184-1.135l-0.007-0.125l-0.578,0.07l-0.029,0.057
			c-0.044,0.091-0.078,0.132-0.095,0.148c-0.054,0.053-0.14,0.019-0.241-0.007c-0.082-0.021-0.189-0.052-0.334-0.095
			c-0.325-0.066-0.614-0.117-0.882-0.157c-0.273-0.043-0.543-0.064-0.801-0.064c-0.795,0-1.523,0.151-2.163,0.448
			c-0.64,0.299-1.195,0.725-1.653,1.269c-0.457,0.542-0.812,1.203-1.057,1.966c-0.242,0.76-0.364,1.609-0.364,2.523
			c-0.011,0.873,0.1,1.677,0.326,2.386c0.229,0.711,0.564,1.326,1.001,1.825c0.428,0.502,0.954,0.896,1.568,1.168
			c0.611,0.271,1.306,0.407,2.06,0.407c0.16,0,0.312-0.005,0.454-0.016c0.146-0.011,0.29-0.025,0.438-0.047
			c0.164-0.021,0.334-0.055,0.507-0.096c0.17-0.041,0.376-0.088,0.617-0.141c0.322-0.073,0.594-0.134,0.812-0.181
			c0.213-0.046,0.417-0.073,0.615-0.084c0.184-0.021,0.364-0.026,0.544-0.016c0.188,0.01,0.416,0.026,0.688,0.047l0.125,0.009v-0.62
			l-0.103-0.013C318.069,264.452,317.94,264.421,317.853,264.379z"/>
		<path d="M327.628,253.963c-0.33,0-0.73-0.032-1.19-0.094l-0.143-0.019l0.05,0.69h0.109c0.275,0,0.483,0.053,0.617,0.156
			c0.127,0.098,0.189,0.234,0.189,0.417c0,0.21-0.067,0.462-0.201,0.749c-0.135,0.29-0.338,0.62-0.605,0.981
			c-0.284,0.377-0.605,0.792-0.954,1.234c-0.299,0.379-0.585,0.731-0.853,1.052l-2.292-3.407c-0.088-0.135-0.155-0.266-0.2-0.386
			c-0.042-0.111-0.063-0.219-0.063-0.318c0-0.158,0.065-0.271,0.202-0.354c0.154-0.093,0.395-0.141,0.715-0.141h0.116v-0.671
			l-0.13,0.015c-0.782,0.094-1.486,0.145-2.094,0.148h-0.096c-0.588,0-1.221-0.05-1.883-0.147l-0.134-0.021v0.658l0.099,0.017
			c0.191,0.03,0.36,0.077,0.513,0.141c0.149,0.063,0.308,0.175,0.477,0.332c0.171,0.15,0.365,0.371,0.58,0.655
			c0.221,0.296,0.488,0.675,0.795,1.124l2.25,3.399v2.501c0,0.854-0.074,1.422-0.221,1.689c-0.136,0.249-0.398,0.371-0.806,0.371
			h-0.116v0.669l0.129-0.014c0.589-0.063,1.205-0.099,1.83-0.109c0.625-0.013,1.203,0.026,1.725,0.108l0.136,0.021v-0.676h-0.117
			c-0.225,0-0.408-0.026-0.544-0.079c-0.126-0.048-0.221-0.14-0.294-0.285c-0.086-0.153-0.144-0.364-0.173-0.629
			c-0.03-0.279-0.047-0.64-0.047-1.067v-2.496c0.065-0.085,0.124-0.165,0.176-0.24c0.058-0.084,0.118-0.174,0.184-0.271
			c0.047-0.076,0.103-0.154,0.17-0.237c0.069-0.083,0.146-0.179,0.227-0.28c0.269-0.313,0.488-0.584,0.67-0.828
			c0.183-0.245,0.343-0.463,0.481-0.655l0.328-0.493c0.093-0.137,0.18-0.257,0.263-0.363c0.367-0.491,0.664-0.975,0.883-1.437
			c0.219-0.468,0.33-0.935,0.33-1.39v-0.143l-0.14,0.028C328.273,253.933,327.955,253.963,327.628,253.963z"/>
		<path opacity="0.9" fill="#6AB282" enable-background="new    " d="M348.635,254.94c-0.056-0.374-0.086-0.764-0.086-1.158v-0.141
			l-0.533,0.099l-0.027,0.044c-0.047,0.078-0.105,0.125-0.179,0.144c-0.064,0.016-0.228,0.035-0.645,0.035h-5.669
			c-0.43,0-0.597-0.02-0.662-0.036c-0.069-0.017-0.119-0.06-0.157-0.134l-0.026-0.053l-0.539-0.099v0.141
			c0,0.395-0.029,0.784-0.085,1.158c-0.057,0.365-0.147,0.789-0.271,1.255l-0.029,0.11l0.764,0.225l0.024-0.124
			c0.061-0.288,0.146-0.535,0.255-0.735c0.104-0.188,0.258-0.342,0.453-0.453c0.206-0.108,0.476-0.189,0.8-0.239
			c0.335-0.051,0.754-0.077,1.244-0.077h0.307v7.76c0,0.853-0.077,1.423-0.229,1.696c-0.141,0.255-0.402,0.38-0.799,0.38h-0.116
			v0.661l0.136-0.022c0.186-0.031,0.439-0.054,0.754-0.07c0.645-0.03,1.341-0.03,2.008,0c0.316,0.017,0.575,0.039,0.771,0.07
			l0.136,0.021v-0.66h-0.117c-0.407,0-0.673-0.125-0.813-0.38c-0.151-0.271-0.222-0.842-0.213-1.696v-7.76h0.307
			c0.479,0,0.893,0.026,1.227,0.077c0.325,0.05,0.596,0.131,0.798,0.237c0.2,0.113,0.356,0.268,0.465,0.457
			c0.114,0.198,0.201,0.445,0.262,0.733l0.025,0.124l0.765-0.225l-0.029-0.11C348.783,255.731,348.693,255.31,348.635,254.94z"/>
		<path d="M359.995,253.948c-0.516,0.041-1.022,0.037-1.621,0.008c-0.302-0.016-0.655-0.046-1.051-0.087l-0.129-0.014v0.67h0.116
			c0.212,0,0.391,0.028,0.527,0.086c0.125,0.051,0.221,0.146,0.292,0.289c0.077,0.155,0.135,0.367,0.169,0.628
			c0.036,0.271,0.055,0.626,0.055,1.057v2.192c-0.284,0.018-0.675,0.028-1.161,0.032c-0.569,0.006-1.155,0.008-1.761,0.008
			c-0.595,0-1.14-0.002-1.635-0.008c-0.444-0.004-0.67-0.016-0.785-0.025v-2.199c0-0.429,0.016-0.784,0.047-1.059
			c0.029-0.263,0.085-0.473,0.161-0.626c0.071-0.143,0.167-0.238,0.292-0.289c0.137-0.058,0.319-0.086,0.543-0.086h0.116v-0.671
			l-0.129,0.015c-0.738,0.084-1.372,0.126-1.883,0.126c-0.513,0-1.076-0.042-1.675-0.125l-0.133-0.02v0.675h0.117
			c0.405,0,0.668,0.121,0.805,0.37c0.146,0.269,0.222,0.838,0.222,1.689v6.092c0,0.852-0.076,1.421-0.222,1.689
			c-0.137,0.249-0.399,0.371-0.805,0.371h-0.117v0.671l0.131-0.016c0.362-0.042,0.672-0.073,0.928-0.094
			c0.495-0.041,0.99-0.041,1.556,0c0.291,0.021,0.649,0.052,1.077,0.094l0.128,0.013v-0.668h-0.116
			c-0.226,0-0.409-0.026-0.546-0.079c-0.124-0.048-0.22-0.14-0.289-0.28c-0.076-0.153-0.132-0.366-0.161-0.634
			c-0.031-0.279-0.047-0.64-0.047-1.067v-2.928c0.182-0.008,0.482-0.016,0.896-0.024c0.516-0.011,1.071-0.017,1.663-0.017
			c0.604,0.011,1.183,0.019,1.73,0.024c0.497,0.006,0.831,0.012,1.052,0.02v2.925c0,0.432-0.019,0.789-0.055,1.065
			c-0.034,0.267-0.092,0.48-0.169,0.636c-0.07,0.141-0.165,0.232-0.288,0.28c-0.138,0.053-0.315,0.079-0.531,0.079h-0.116v0.668
			l0.128-0.013c0.438-0.042,0.784-0.073,1.04-0.094c0.507-0.042,0.936-0.04,1.438,0c0.267,0.021,0.627,0.052,1.087,0.094
			l0.127,0.012v-0.667h-0.117c-0.224,0-0.404-0.026-0.535-0.078c-0.12-0.048-0.213-0.14-0.286-0.286
			c-0.086-0.153-0.142-0.363-0.166-0.626c-0.025-0.274-0.039-0.634-0.039-1.07v-6.093c-0.009-0.853,0.06-1.421,0.206-1.688
			c0.136-0.249,0.404-0.37,0.82-0.37h0.117v-0.669l-0.128,0.013C360.553,253.901,360.255,253.928,359.995,253.948z"/>
		<path d="M370.744,262.58c-0.121,0.395-0.254,0.712-0.395,0.944c-0.137,0.222-0.321,0.397-0.548,0.519
			c-0.236,0.119-0.55,0.2-0.932,0.24c-0.39,0.041-0.897,0.062-1.507,0.062h-0.877c-0.222,0-0.394-0.015-0.512-0.045
			c-0.104-0.023-0.181-0.075-0.236-0.156c-0.062-0.087-0.102-0.214-0.121-0.375c-0.021-0.179-0.031-0.424-0.031-0.731v-3.485h1.574
			c0.378,0,0.689,0.019,0.923,0.054c0.222,0.034,0.402,0.094,0.527,0.175c0.131,0.094,0.226,0.213,0.291,0.366
			c0.068,0.162,0.123,0.382,0.163,0.652l0.014,0.1h0.751l-0.015-0.131c-0.042-0.359-0.068-0.673-0.079-0.93
			c-0.01-0.26-0.016-0.514-0.016-0.763c0-0.28,0.006-0.55,0.016-0.81c0.011-0.256,0.037-0.559,0.079-0.899l0.016-0.131h-0.767v0.117
			c0,0.265-0.034,0.482-0.101,0.645c-0.063,0.154-0.174,0.273-0.343,0.367c-0.163,0.095-0.396,0.161-0.69,0.195
			c-0.308,0.036-0.697,0.055-1.16,0.055h-1.184v-3.713h1.872c0.42,0,0.762,0.023,1.046,0.07c0.278,0.044,0.513,0.121,0.695,0.227
			c0.193,0.116,0.358,0.268,0.488,0.452c0.137,0.193,0.267,0.443,0.387,0.744l0.04,0.1l0.729-0.221l-0.031-0.111
			c-0.103-0.36-0.186-0.76-0.247-1.19c-0.061-0.429-0.093-0.834-0.093-1.204v-0.133l-0.563,0.071l-0.029,0.048
			c-0.02,0.033-0.051,0.06-0.093,0.081c-0.051,0.025-0.114,0.041-0.206,0.053c-0.018,0.003-0.129,0.016-0.826,0.045
			c-0.523,0.021-1.135,0.036-1.814,0.046c-0.697,0.01-1.409,0.01-2.134,0c-0.718-0.01-1.316-0.046-1.779-0.109l-0.133-0.017v0.657
			h0.117c0.213,0,0.39,0.029,0.526,0.087c0.125,0.05,0.221,0.145,0.293,0.288c0.078,0.152,0.134,0.366,0.168,0.635
			c0.037,0.277,0.055,0.635,0.055,1.065v6.076c0,0.432-0.018,0.792-0.055,1.073c-0.034,0.272-0.09,0.482-0.167,0.628
			c-0.073,0.143-0.169,0.237-0.294,0.289c-0.137,0.057-0.315,0.086-0.526,0.086h-0.117v0.651l0.127-0.012
			c0.234-0.021,0.493-0.036,0.77-0.047c0.287-0.011,0.64-0.021,1.057-0.031c0.781-0.019,1.971-0.011,3.781-0.031
			c0.502,0.021,0.892,0.034,1.169,0.038c0.279,0.006,0.476,0.019,0.612,0.04c0.161,0.013,0.198,0.033,0.201,0.035
			c0.023,0.017,0.049,0.042,0.074,0.076l0.035,0.046h0.565v-0.117c0-0.563,0.017-1.074,0.047-1.519
			c0.032-0.44,0.084-0.815,0.154-1.117l0.026-0.115l-0.737-0.158L370.744,262.58z"/>
		<path d="M383.185,264.651c-0.131-0.054-0.26-0.162-0.386-0.326c-0.14-0.17-0.287-0.417-0.438-0.736
			c-0.152-0.319-0.347-0.768-0.577-1.335c-0.24-0.542-0.446-0.991-0.613-1.335c-0.168-0.348-0.346-0.645-0.526-0.879
			c-0.176-0.24-0.378-0.439-0.601-0.591c-0.146-0.101-0.313-0.199-0.507-0.3c0.635-0.165,1.13-0.433,1.474-0.801
			c0.405-0.433,0.609-1.016,0.609-1.731c0-0.899-0.307-1.603-0.912-2.089c-0.599-0.479-1.448-0.722-2.523-0.722
			c-0.172,0-0.406,0.01-0.736,0.032l-0.962,0.063c-0.344,0.021-0.672,0.041-0.979,0.062c-0.302,0.021-0.52,0.025-0.704,0.016
			c-0.283,0-0.546-0.008-0.783-0.022c-0.228-0.016-0.464-0.039-0.721-0.07l-0.132-0.017v0.656h0.194
			c0.189,0,0.348,0.028,0.468,0.083c0.11,0.052,0.202,0.149,0.271,0.286c0.068,0.156,0.121,0.372,0.155,0.642
			c0.037,0.275,0.056,0.633,0.056,1.065v6.075c0,0.852-0.076,1.424-0.223,1.699c-0.136,0.254-0.398,0.377-0.805,0.377h-0.116v0.65
			l0.126-0.011c0.396-0.031,0.731-0.055,1.007-0.07c0.508-0.028,1.053-0.031,1.576,0c0.27,0.016,0.598,0.039,0.984,0.07l0.126,0.011
			v-0.65h-0.117c-0.223,0-0.405-0.03-0.543-0.087c-0.125-0.051-0.22-0.146-0.293-0.29c-0.076-0.143-0.13-0.353-0.159-0.623
			c-0.031-0.285-0.047-0.647-0.047-1.076v-3.093h1.058c0.365,0,0.69,0.026,0.965,0.076c0.27,0.051,0.511,0.135,0.718,0.254
			c0.216,0.118,0.41,0.28,0.576,0.48c0.174,0.21,0.349,0.47,0.519,0.771c0.147,0.285,0.313,0.644,0.489,1.063
			c0.183,0.434,0.336,0.801,0.461,1.099c0.156,0.43,0.281,0.765,0.376,1.005c0.094,0.241,0.167,0.426,0.218,0.548
			c0.058,0.146,0.1,0.243,0.133,0.304c0.034,0.063,0.068,0.117,0.104,0.164l0.041,0.054l0.067-0.009
			c0.247-0.031,0.448-0.052,0.604-0.063c0.307-0.021,0.617-0.021,0.924,0c0.155,0.011,0.356,0.031,0.604,0.063l0.131,0.017v-0.65
			l-0.11-0.006C383.496,264.741,383.322,264.708,383.185,264.651z M379.993,256.695c0,0.664-0.241,1.146-0.739,1.477
			c-0.505,0.335-1.282,0.505-2.308,0.505h-1.12v-3.79c0.328-0.045,0.637-0.079,0.919-0.103c0.3-0.025,0.567-0.039,0.797-0.039
			c0.783,0,1.396,0.176,1.819,0.521C379.786,255.611,379.993,256.079,379.993,256.695z"/>
		<path d="M394.171,264.428c-0.213-0.226-0.412-0.621-0.594-1.178l-2.678-7.848c-0.084-0.229-0.148-0.414-0.194-0.56
			c-0.047-0.145-0.086-0.27-0.118-0.378c-0.033-0.096-0.063-0.185-0.097-0.264c-0.03-0.076-0.061-0.161-0.092-0.253l-0.032-0.094
			l-0.098,0.016c-0.4,0.066-0.807,0.101-1.209,0.101h-0.094c-0.434-0.004-0.857-0.038-1.26-0.101l-0.135-0.021v0.676h0.117
			c0.21,0,0.37,0.045,0.473,0.129c0.099,0.084,0.146,0.208,0.146,0.381c0,0.115-0.021,0.248-0.06,0.394
			c-0.041,0.155-0.124,0.448-0.247,0.866l-2.555,7.021c-0.073,0.239-0.138,0.447-0.194,0.625c-0.055,0.169-0.117,0.321-0.185,0.445
			c-0.065,0.111-0.145,0.201-0.236,0.271c-0.089,0.066-0.21,0.114-0.358,0.143l-0.1,0.02l0.025,0.604l0.127-0.016
			c0.465-0.063,0.921-0.097,1.355-0.103h0.092c0.416,0,0.878,0.029,1.374,0.087l0.13,0.016v-0.671h-0.116
			c-0.35,0-0.613-0.06-0.778-0.176c-0.157-0.109-0.233-0.271-0.233-0.491c0-0.073,0.015-0.177,0.044-0.311
			c0.032-0.141,0.083-0.301,0.153-0.482l0.869-2.65c0.15-0.009,0.38-0.017,0.684-0.026c0.729-0.021,1.582-0.021,2.312,0
			c0.308,0.01,0.54,0.018,0.699,0.026l0.805,2.506c0.082,0.279,0.142,0.492,0.179,0.637c0.033,0.137,0.051,0.248,0.051,0.332
			c0,0.241-0.067,0.401-0.204,0.489c-0.153,0.097-0.402,0.146-0.743,0.146h-0.116v0.669l0.129-0.014
			c0.748-0.083,1.386-0.125,1.897-0.125s1.086,0.042,1.707,0.125l0.128,0.017l0.023-0.656h-0.121
			C394.595,264.753,394.374,264.646,394.171,264.428z M390.799,259.726h-3.04l1.556-4.482L390.799,259.726z"/>
		<path d="M400.859,253.807c-0.323,0-0.673,0.01-1.041,0.032c-0.355,0.021-0.694,0.041-1.017,0.063
			c-0.326,0.021-0.608,0.041-0.85,0.062c-0.226,0.021-0.352,0.027-0.476,0.016c-0.294,0-0.517-0.005-0.682-0.016
			c-0.177-0.01-0.366-0.035-0.563-0.075l-0.14-0.028v0.666h0.117c0.211,0,0.389,0.028,0.526,0.086
			c0.125,0.051,0.221,0.146,0.292,0.289c0.077,0.153,0.134,0.367,0.168,0.636c0.036,0.275,0.055,0.633,0.055,1.065v6.075
			c0,0.854-0.074,1.426-0.221,1.699c-0.136,0.254-0.404,0.377-0.82,0.377h-0.117v0.649l0.125-0.01
			c0.46-0.031,0.819-0.058,1.081-0.078c0.256-0.021,0.549-0.031,0.868-0.031c0.153,0,0.371,0.011,0.649,0.031
			c0.281,0.021,0.614,0.047,1.001,0.078l0.126,0.011v-0.65h-0.117c-0.222,0-0.404-0.03-0.543-0.087
			c-0.125-0.051-0.221-0.146-0.293-0.29c-0.076-0.143-0.13-0.353-0.159-0.623c-0.031-0.285-0.047-0.647-0.047-1.076v-2.522
			c0.318,0.017,0.571,0.028,0.757,0.032c0.211,0.005,0.338,0.008,0.379,0.008c0.729,0,1.345-0.043,1.828-0.127
			c0.497-0.086,0.933-0.227,1.297-0.42c0.486-0.259,0.874-0.629,1.149-1.1s0.415-1.009,0.415-1.603c0-0.993-0.341-1.774-1.013-2.321
			C402.927,254.081,402.007,253.807,400.859,253.807z M402.997,257.008c0,0.78-0.273,1.343-0.834,1.72
			c-0.567,0.382-1.434,0.576-2.573,0.576h-0.423c-0.082,0-0.16-0.004-0.234-0.008c-0.048-0.004-0.097-0.008-0.15-0.013v-4.387
			c0.271-0.052,0.518-0.09,0.733-0.112c0.237-0.025,0.515-0.039,0.825-0.039c0.844,0,1.506,0.201,1.968,0.599
			C402.765,255.736,402.997,256.296,402.997,257.008z"/>
		<path d="M414.582,253.871c-0.303,0.062-0.62,0.092-0.947,0.092c-0.33,0-0.73-0.032-1.19-0.094l-0.143-0.019l0.05,0.69h0.109
			c0.275,0,0.483,0.053,0.617,0.156c0.127,0.098,0.189,0.234,0.189,0.417c0,0.21-0.067,0.462-0.201,0.749
			c-0.135,0.29-0.338,0.62-0.605,0.981c-0.284,0.377-0.605,0.792-0.954,1.234c-0.299,0.379-0.585,0.731-0.853,1.052l-2.292-3.407
			c-0.088-0.135-0.155-0.266-0.2-0.386c-0.042-0.111-0.063-0.219-0.063-0.318c0-0.158,0.065-0.271,0.202-0.354
			c0.154-0.093,0.395-0.141,0.715-0.141h0.116v-0.671l-0.13,0.015c-0.782,0.094-1.486,0.145-2.094,0.148h-0.096
			c-0.588,0-1.221-0.05-1.883-0.147l-0.134-0.021v0.658l0.099,0.017c0.191,0.03,0.359,0.077,0.513,0.141
			c0.149,0.063,0.308,0.175,0.477,0.332c0.171,0.15,0.365,0.371,0.58,0.655c0.221,0.296,0.488,0.675,0.794,1.124l2.251,3.399v2.501
			c0,0.854-0.074,1.422-0.221,1.689c-0.136,0.249-0.398,0.371-0.806,0.371h-0.116v0.669l0.129-0.014
			c0.589-0.063,1.205-0.099,1.83-0.109c0.621-0.013,1.201,0.026,1.725,0.108l0.136,0.021v-0.676h-0.117
			c-0.225,0-0.408-0.026-0.544-0.079c-0.126-0.048-0.221-0.14-0.294-0.285c-0.086-0.153-0.144-0.364-0.173-0.629
			c-0.03-0.279-0.047-0.64-0.047-1.067v-2.496c0.065-0.085,0.124-0.165,0.175-0.24c0.059-0.084,0.119-0.174,0.185-0.271
			c0.047-0.076,0.103-0.154,0.17-0.237c0.069-0.083,0.146-0.179,0.227-0.28c0.269-0.313,0.488-0.584,0.67-0.828
			c0.183-0.245,0.343-0.463,0.481-0.655l0.328-0.493c0.093-0.137,0.18-0.257,0.263-0.363c0.367-0.491,0.664-0.975,0.883-1.437
			c0.219-0.468,0.33-0.935,0.33-1.39v-0.143L414.582,253.871z"/>
	</g>
</g>
</svg>
