<?xml version="1.0" encoding="utf-8"?>
<!-- Generator: Adobe Illustrator 16.0.0, SVG Export Plug-In . SVG Version: 6.00 Build 0)  -->
<!DOCTYPE svg PUBLIC "-//W3C//DTD SVG 1.1//EN" "http://www.w3.org/Graphics/SVG/1.1/DTD/svg11.dtd">
<svg version="1.1" id="Layer_1" xmlns="http://www.w3.org/2000/svg" xmlns:xlink="http://www.w3.org/1999/xlink" x="0px" y="0px"
	 width="500px" height="500px" viewBox="0 0 500 500" enable-background="new 0 0 500 500" xml:space="preserve">
<g>
	<g>
		<g>
			<g>
				<path fill-rule="evenodd" clip-rule="evenodd" fill="#FFFFFF" d="M285.16,196.813c-0.997-1.437-2.147-2.833-3.484-4.167
					l4.498-1.542l15.756-12.608l0.967-11.202l-0.405-0.807l-0.083-0.288l-0.051-0.163l-0.035-0.193l-0.176-0.539l-1.603-4.202
					l-17.374-4.696l-12.108-3.895l-8.463-19.526l-8.519-3.479l-1.229-0.133l-0.688,0.085h-3.72l-12.853,13.352l-3.523,13.104
					l-26.386,2.777l-3.14,6.784l-0.275,1.073l0.076,5.367l11.991,15.079l9.166,4.921c-1.625,1.507-3.002,3.116-4.164,4.776
					c-20.469,4.72-16.304,46.048,9.013,49.985c7.349,1.141,15.316,1.767,23.631,1.767c9.484,0,18.514-0.814,26.687-2.277
					C302.365,241.916,305.338,201.569,285.16,196.813z"/>
				<g>
					<path fill-rule="evenodd" clip-rule="evenodd" fill="#FAA61A" d="M239.963,182.468c8.138-1.997,16.619-1.981,24.742,0.053
						l-3.161-12.463l-3.013-0.063l-0.497,3.721h-3.575l-0.412-3.659l-3.399-0.063l-0.411,3.721l-3.599-0.038l-0.435-3.656h-3.049
						L239.963,182.468L239.963,182.468z"/>
				</g>
				<path fill-rule="evenodd" clip-rule="evenodd" fill="#0066B3" d="M252.204,201.355v0.003V201.355L252.204,201.355z
					 M285.16,196.813c8.339,12.06,5.449,26.813,5.449,26.813s-15.173,2.673-27.903-7.924c-8.083-6.725-10.495-14.322-10.502-14.344
					c-0.004,0.022-2.413,7.619-10.496,14.344c-12.732,10.597-27.903,7.924-27.903,7.924s-2.911-14.854,5.531-26.934
					c-20.469,4.72-34.313,13.745-34.313,24.124c0,13.671,23.992,24.992,55.523,27.227v-18.249h5.067v18.523
					c1.26,0.051,2.528,0.087,3.806,0.105V222.41h5.066v26.013c1.294-0.018,2.571-0.055,3.847-0.105v-18.523h5.067v18.249
					c31.539-2.231,55.537-13.552,55.537-27.227C318.936,210.529,305.338,201.569,285.16,196.813z"/>
				<path fill-rule="evenodd" clip-rule="evenodd" fill="#E11548" d="M230.511,152.115c-10.201-1.975-20.758,0.015-29.522,5.549
					c0.094,2.849,0.565,5.673,1.391,8.428c10.368-8.144,24.625-9.317,36.171-2.951c-2.619-13.001,2.813-26.3,13.815-33.704
					c-2.353-1.624-4.899-2.907-7.59-3.859C236.823,132.282,231.718,141.77,230.511,152.115z M196.412,172.132
					c2.003,4.899,4.961,9.337,8.702,13.083c0.945,0.951,1.913,1.863,2.923,2.729c3.741,3.083,7.974,5.477,12.537,7.095
					c1.782-2.201,3.984-4.274,6.685-6.112c-5.932-1.204-11.447-4.059-15.854-8.217c-4.266-3.96-7.376-9.027-9.024-14.619
					C200.138,167.849,198.132,169.889,196.412,172.132z M274.219,152.115c-1.191-10.345-6.302-19.833-14.27-26.537
					c-2.698,0.952-5.229,2.235-7.583,3.859c11.003,7.403,16.46,20.703,13.816,33.704c11.556-6.367,25.803-5.193,36.189,2.951
					c0.793-2.755,1.265-5.579,1.376-8.428C294.97,152.13,284.41,150.14,274.219,152.115z M302.372,166.092
					c-1.645,5.592-4.755,10.658-9.051,14.619c-4.402,4.156-10.125,7.067-16.086,8.275c2.701,1.847,4.899,3.934,6.675,6.148
					c4.656-1.623,8.998-4.051,12.787-7.189c1.003-0.867,1.987-1.778,2.922-2.729c3.738-3.746,6.691-8.184,8.722-13.083
					C306.598,169.889,304.589,167.849,302.372,166.092z"/>
			</g>
			<path fill-rule="evenodd" clip-rule="evenodd" fill="#0066B3" d="M252.204,201.355v0.003V201.355L252.204,201.355z"/>
		</g>
		<path fill-rule="evenodd" clip-rule="evenodd" fill="#0066B3" d="M252.204,201.355v0.003V201.355L252.204,201.355z"/>
	</g>
	<g>
		<g>
			<path fill="#58595B" d="M239.978,308.235c0,1.53,0.442,2.737,1.331,3.591c0.879,0.849,2.149,1.286,3.741,1.286h23.574v-18.78
				h-28.646V308.235z M246.71,298.063c0.213,0,14.969,0,15.185,0c0,0.206,0,11.113,0,11.32c-0.216,0-14.972,0-15.185,0
				C246.71,309.176,246.71,298.269,246.71,298.063z"/>
			<path fill="#58595B" d="M268.623,266.761l-6.729-0.002V282.7c0,0-1.916,0.761-3.66,1.177c-1.532,0.368-3.206,0.55-4.962,0.55
				c0,0-11.947,0-12.158,0c0-0.214,0-17.666,0-17.666h-6.717c0,0,0,13.063,0,16.77c0,1.525,0.398,2.689,1.218,3.459
				c0.823,0.771,2.045,1.165,3.636,1.165h13.72c1.74,0,3.429-0.276,5.021-0.809c1.515-0.511,2.819-1.079,3.901-1.687
				c0,0.318,0,6.182,0,6.182h6.729v-13.834h7.526v-3.731h-7.526C268.623,274.275,268.623,270.427,268.623,266.761z"/>
		</g>
		<path fill="#58595B" d="M311.933,266.759l0.007,46.354h6.745c0,0,0-32.216,0-46.354H311.933z"/>
		<polygon fill="#58595B" points="214.838,275.519 205.399,275.519 205.399,279.256 214.838,279.256 214.838,291.841 
			221.564,291.841 221.564,266.742 214.838,266.742 		"/>
		<path fill="#58595B" d="M208.041,293.021c-7.585,0-13.525,4.694-13.525,10.702c0,6.006,5.939,10.699,13.525,10.699
			c7.582,0,13.523-4.693,13.523-10.699C221.564,297.715,215.622,293.021,208.041,293.021z M208.041,310.718
			c-3.864,0-6.798-3.035-6.798-6.995c0-3.962,2.934-6.993,6.798-6.993c3.866,0,6.797,3.031,6.797,6.993
			C214.838,307.683,211.906,310.718,208.041,310.718z"/>
		<path fill="#58595B" d="M202.981,282.827c-2.426-2.839-3.697-6.696-3.813-11.104v-4.962h-6.895v4.962
			c-0.11,4.408-1.378,8.266-3.801,11.104c-2.512,2.94-7.407,5.711-7.407,5.711l3.016,2.947c0,0,3.955-2.184,6.544-4.289
			c2.455-1.994,4.577-4.966,5.101-6.243c0.523,1.277,2.645,4.249,5.101,6.243c2.586,2.105,6.541,4.289,6.541,4.289l3.023-2.947
			C210.39,288.538,205.493,285.768,202.981,282.827z"/>
		<path fill="#58595B" d="M301.245,288.806c-3.367-4.063-3.849-7.659-3.987-13.034v-9.011h-6.891v9.011
			c-0.131,5.375-0.612,8.972-3.977,13.034c-2.477,2.976-7.239,5.715-7.239,5.715l3.018,2.946c0,0,4.001-2.106,6.369-4.462
			c4.117-4.094,5.102-6.264,5.28-7.124c0.169,0.86,1.158,3.03,5.269,7.124c2.369,2.355,6.374,4.462,6.374,4.462l3.021-2.946
			C308.483,294.521,303.72,291.781,301.245,288.806z"/>
	</g>
</g>
</svg>
