<?xml version="1.0" encoding="utf-8"?>
<!-- Generator: Adobe Illustrator 16.0.0, SVG Export Plug-In . SVG Version: 6.00 Build 0)  -->
<!DOCTYPE svg PUBLIC "-//W3C//DTD SVG 1.1//EN" "http://www.w3.org/Graphics/SVG/1.1/DTD/svg11.dtd">
<svg version="1.1" id="Layer_1" xmlns="http://www.w3.org/2000/svg" xmlns:xlink="http://www.w3.org/1999/xlink" x="0px" y="0px"
	 width="500px" height="500px" viewBox="0 0 500 500" enable-background="new 0 0 500 500" xml:space="preserve">
<g>
	<path fill="#F2B700" d="M153.788,253.646c0,7.025-4.048,11.312-10.478,12.621c-1.786,0.357-4.763,0.357-6.787,0.357l-15.599-0.118
		v5.953l-13.812-11.312l13.812-11.313v5.955l17.504,0.118c1.667,0,2.382-0.952,2.382-1.904c0-1.786-1.667-2.383-6.668-4.764
		c-7.978-3.81-14.169-6.55-14.169-15.241c0-6.787,4.882-11.432,12.026-12.384c1.429-0.238,4.168-0.238,5.835-0.238
		c3.572,0,13.575,0.238,13.575,0.238v10.836l-16.432-0.238c-1.429,0-2.144,0.952-2.144,1.905c0,1.429,1.19,2.024,5.834,4.168
		C148.43,242.81,153.788,245.31,153.788,253.646z M179.628,252.812c0,2.023-1.786,3.691-5.001,3.691
		c-3.453,0-5.001-1.668-5.001-3.691v-31.316H156.17v32.388c0,7.145,5.954,13.933,18.337,13.933c11.788,0,18.338-6.668,18.338-13.933
		v-32.388h-13.217V252.812z M234.163,253.05c0,8.931-6.073,13.813-14.884,13.813h-22.268v-45.368h21.434
		c9.645,0,14.527,5.358,14.527,12.384c0,3.572-1.668,6.668-5.002,8.931C231.901,244.953,234.163,248.287,234.163,253.05z
		 M210.229,239.475h6.192c2.382,0,3.453-1.666,3.453-4.048c0-2.5-1.071-4.049-3.453-4.049h-6.192V239.475z M220.708,252.454
		c0-2.738-1.311-4.286-3.692-4.286h-6.787v8.573h6.787C219.517,256.741,220.708,255.074,220.708,252.454z"/>
	<g>
		<path fill="#008938" d="M278.697,221.495h13.218v31.911c0,7.384-5.239,14.052-16.313,14.052c-4.763,0-8.454-1.429-11.074-3.572
			c-2.619,2.144-6.191,3.572-10.597,3.572c-11.789,0-16.671-6.668-16.671-14.052v-31.911h13.218v31.674
			c0,1.31,0.714,2.977,3.69,2.977c2.978,0,3.811-1.548,3.811-2.977v-31.674h13.218v31.674c0,1.31,0.714,2.977,3.69,2.977
			c2.978,0,3.811-1.548,3.811-2.977V221.495z M348.831,239.356v-17.861h-13.098v19.052c0,6.312,4.286,11.073,11.55,13.099v13.098
			h13.456v-13.098c7.382-2.025,11.431-6.787,11.431-13.099v-7.025c0-0.715,0.357-1.071,1.071-1.071h5.835v5.715l13.813-11.312
			l-13.813-11.313v5.716h-9.169c-7.739,0-10.954,4.525-10.954,10.955v7.145c0,1.667-1.191,3.69-5.121,3.69
			C350.023,243.047,348.831,241.023,348.831,239.356z M332.399,234.474v32.39h-13.217v-13.218H309.18v13.098h-13.218v-32.27
			c0-8.097,6.669-14.288,18.219-14.288C325.612,220.186,332.399,226.258,332.399,234.474z M319.182,243.286v-8.098
			c0-2.144-1.548-3.691-5.001-3.691c-3.572,0-5.001,1.548-5.001,3.691v8.098H319.182z"/>
		<path fill="#008938" d="M368.955,264.005c0-0.357-0.357-0.596-0.715-0.596h-1.19v2.382h0.476v-0.834h0.596
			c0.238,0,0.477,0.12,0.477,0.477v0.476h0.477v-0.595c0-0.237-0.12-0.357-0.357-0.477l0,0
			C368.955,264.48,368.955,264.362,368.955,264.005z M368.121,264.48h-0.595v-0.714h0.595c0.238,0,0.357,0.119,0.357,0.356
			C368.479,264.362,368.36,264.48,368.121,264.48z M368.002,262.219c-1.31,0-2.382,1.072-2.382,2.382
			c0,1.309,1.072,2.381,2.382,2.381c1.311,0,2.382-1.072,2.382-2.381C370.384,263.291,369.313,262.219,368.002,262.219z
			 M368.002,266.624c-1.071,0-2.024-0.952-2.024-2.023c0-1.072,0.953-2.024,2.024-2.024c1.072,0,2.024,0.952,2.024,2.024
			C369.907,265.672,369.074,266.624,368.002,266.624z"/>
	</g>
</g>
</svg>
