<?xml version="1.0" encoding="utf-8"?>
<!-- Generator: Adobe Illustrator 16.0.0, SVG Export Plug-In . SVG Version: 6.00 Build 0)  -->
<!DOCTYPE svg PUBLIC "-//W3C//DTD SVG 1.1//EN" "http://www.w3.org/Graphics/SVG/1.1/DTD/svg11.dtd">
<svg version="1.1" id="Layer_1" xmlns="http://www.w3.org/2000/svg" xmlns:xlink="http://www.w3.org/1999/xlink" x="0px" y="0px"
	 width="500px" height="500px" viewBox="0 0 500 500" enable-background="new 0 0 500 500" xml:space="preserve">
<g>
	<g>
		<path fill-rule="evenodd" clip-rule="evenodd" fill="#004098" d="M80.033,261.096c-8.726,0-10.351-5.127-9.986-10.953h7.055
			c0,3.213,0.122,5.924,4.002,5.924c2.377,0,3.54-1.541,3.54-3.82c0-6.066-14.179-6.439-14.179-16.479
			c0-5.263,2.521-9.455,11.103-9.455c6.849,0,10.251,3.076,9.795,10.124h-6.85c0-2.521-0.425-5.088-3.281-5.088
			c-2.271,0-3.63,1.252-3.63,3.584c0,6.394,14.187,5.833,14.187,16.417C91.789,260.068,85.38,261.096,80.033,261.096L80.033,261.096
			z"/>
		<path fill-rule="evenodd" clip-rule="evenodd" fill="#004098" d="M110.994,247.902h-6.721l3.22-14.55h0.098L110.994,247.902
			L110.994,247.902z M100.978,260.539l1.899-7.457h9.614l1.861,7.457h7.412l-9.136-33.671h-9.288l-9.318,33.671H100.978
			L100.978,260.539z"/>
		<polygon fill-rule="evenodd" clip-rule="evenodd" fill="#004098" points="124.709,260.539 124.709,226.868 136.047,226.868 
			141.303,249.771 141.394,249.771 146.99,226.868 157.957,226.868 157.957,260.539 151.099,260.539 151.099,234.567 151,234.567 
			144.523,260.539 137.802,260.539 131.643,234.567 131.56,234.567 131.56,260.539 124.709,260.539 		"/>
		<path fill-rule="evenodd" clip-rule="evenodd" fill="#004098" d="M172.598,261.096c-8.725,0-10.35-5.127-9.978-10.953h7.039
			c0,3.213,0.144,5.924,4.01,5.924c2.376,0,3.538-1.541,3.538-3.82c0-6.066-14.163-6.439-14.163-16.479
			c0-5.263,2.521-9.455,11.087-9.455c6.866,0,10.26,3.076,9.79,10.124h-6.843c0-2.521-0.426-5.088-3.266-5.088
			c-2.286,0-3.638,1.252-3.638,3.584c0,6.394,14.17,5.833,14.17,16.417C184.346,260.068,177.968,261.096,172.598,261.096
			L172.598,261.096z"/>
		<path fill-rule="evenodd" clip-rule="evenodd" fill="#004098" d="M211.906,226.868v23.884c0,5.025-2.848,10.344-11.422,10.344
			c-7.746,0-11.467-4.004-11.467-10.344v-23.884h7.032v23.419c0,4.146,1.777,5.779,4.336,5.779c3.091,0,4.481-2.057,4.481-5.779
			v-23.419H211.906L211.906,226.868z"/>
		<polygon fill-rule="evenodd" clip-rule="evenodd" fill="#004098" points="217.457,260.539 217.457,226.868 226.98,226.868 
			235.918,250.182 236.016,250.182 236.016,226.868 242.593,226.868 242.593,260.539 233.313,260.539 224.124,235.919 
			224.032,235.919 224.032,260.539 217.457,260.539 		"/>
		<path fill-rule="evenodd" clip-rule="evenodd" fill="#004098" d="M263.682,237.226c0.031-3.129-0.479-5.877-4.207-5.877
			c-4.383,0-4.383,5.923-4.383,12.447c0,10.547,1.034,12.416,5.044,12.416c1.153,0,2.414-0.289,3.493-0.668v-7.457h-3.828v-5.173
			h10.859v17.064c-1.906,0.381-6.705,1.119-9.515,1.119c-11.832,0-13.191-4.885-13.191-17.673c0-8.49,0.417-17.109,11.937-17.109
			c6.911,0,11.193,3.865,10.769,10.913H263.682L263.682,237.226z"/>
	</g>
	<g>
		<path fill-rule="evenodd" clip-rule="evenodd" fill="#004098" d="M289.281,232.64h3.642c4.89,0,4.89,5.458,4.89,11.656
			c0,8.442-0.838,11.657-5.137,11.657h-3.395V232.64L289.281,232.64z M282.239,261.127h11.47c12.029,0,11.237-11.844,11.237-17.018
			c0-10.497-1.721-16.643-10.962-16.643h-11.745V261.127L282.239,261.127z"/>
		<polygon fill-rule="evenodd" clip-rule="evenodd" fill="#004098" points="307.951,261.127 307.951,227.466 314.987,227.466 
			314.987,261.127 307.951,261.127 		"/>
		<path fill-rule="evenodd" clip-rule="evenodd" fill="#004098" d="M327.36,261.688c-8.726,0-10.354-5.137-9.98-10.961h7.042
			c0,3.223,0.143,5.93,4.009,5.93c2.377,0,3.544-1.541,3.544-3.83c0-6.055-14.168-6.437-14.168-16.455
			c0-5.271,2.511-9.465,11.094-9.465c6.851,0,10.251,3.073,9.78,10.116h-6.841c0-2.52-0.419-5.085-3.268-5.085
			c-2.288,0-3.633,1.256-3.633,3.597c0,6.378,14.159,5.824,14.159,16.412C339.098,260.664,332.721,261.688,327.36,261.688
			L327.36,261.688z"/>
		<polygon fill-rule="evenodd" clip-rule="evenodd" fill="#004098" points="365.334,261.127 365.334,227.466 372.37,227.466 
			372.37,255.533 382.912,255.533 382.912,261.127 365.334,261.127 		"/>
		<polygon fill-rule="evenodd" clip-rule="evenodd" fill="#004098" points="413.552,249.469 404.737,227.466 412.423,227.466 
			417.461,241.687 422.823,227.466 430,227.466 420.587,249.469 420.587,261.127 413.552,261.127 413.552,249.469 		"/>
		<path fill-rule="evenodd" clip-rule="evenodd" fill="#004098" d="M400.706,248.424h-6.616l3.177-14.325h0.09L400.706,248.424
			L400.706,248.424z M390.829,260.871l1.899-7.348h9.451l1.84,7.348h7.289l-8.994-33.144h-9.13l-9.189,33.144H390.829
			L390.829,260.871z"/>
		<path fill-rule="evenodd" clip-rule="evenodd" fill="#004098" d="M348.49,232.816h3.491c3.149,0,3.873,2.288,3.873,5.001
			c0,2.213-1.428,4.464-3.492,4.464h-3.872V232.816L348.49,232.816z M341.573,260.865h6.917v-13.492h5.151
			c8.135,0,9.24-5.974,9.24-9.735c0-6.064-2.488-9.922-8.822-9.922h-12.486V260.865L341.573,260.865z"/>
	</g>
</g>
</svg>
