<svg width="500" height="500" viewBox="0 0 500 500" fill="none" xmlns="http://www.w3.org/2000/svg"><path d="M249.318 130c-53.619 0-61.882 29.931-61.882 61.882 0 31.951 9.273 61.882 61.882 61.882 52.609 0 61.882-29.931 61.882-61.882 0-31.951-8.263-61.882-61.882-61.882zm-25.065 109.441c.551-.183 1.01-.459 1.469-.642.551-.276 1.101-.459 1.652-.735 6.06-2.846 14.048-6.519 21.944-13.129 7.896 6.61 15.883 10.375 21.943 13.129.551.276 1.102.459 1.653.735.459.183 1.01.459 1.469.642-6.611 2.571-14.874 4.04-25.065 4.04-10.192 0-18.455-1.469-25.065-4.04zm13.588-53.068c-2.663-8.355-2.571-14.873.459-19.005 3.214-4.407 8.722-4.866 11.018-4.866 2.846 0 8.171.643 11.109 4.682 2.938 4.04 3.03 10.651.276 19.098-3.03 9.456-6.978 16.526-11.385 22.035-4.407-5.325-8.447-12.487-11.477-21.944zm48.936 45.632c-2.754-1.01-6.335-2.388-9.089-3.673-.551-.275-1.102-.459-1.653-.735-5.692-2.662-12.303-5.692-18.638-10.833 5.509-6.611 10.559-15.241 14.231-26.718 2.755-8.447 4.591-20.474-1.928-29.472-4.407-5.968-11.844-9.457-20.474-9.457-8.447 0-15.884 3.489-20.291 9.549-6.61 9.089-4.774 20.933-2.112 29.288 3.673 11.477 8.723 20.107 14.231 26.718-6.335 5.233-12.945 8.263-18.638 10.834-.55.275-1.101.551-1.652.734-2.938 1.377-6.794 2.571-9.457 3.305-11.018-10.099-13.588-25.432-13.588-39.663 0-27.36 7.437-51.599 51.599-51.599s51.599 24.239 51.599 51.599c-.092 14.415-2.663 29.931-14.14 40.123z" fill="#F9CD16"/><path d="M134 313.351h7.804l1.928 9.732c2.571-6.426 8.08-10.925 14.69-10.925 4.775 0 8.447 1.744 10.926 5.141 2.571 3.397 3.856 7.713 3.856 13.038 0 5.968-1.561 10.925-4.682 15.149-3.214 4.131-7.621 6.151-13.497 6.151-3.948 0-7.345-.826-9.916-2.479V370h-8.63v-40.765c-.367-4.591-2.479-15.884-2.479-15.884zm14.231 27.728c1.469 1.377 3.764 2.846 7.529 2.846 3.213 0 5.968-1.285 7.62-3.856 1.745-2.663 2.571-5.784 2.571-9.365 0-6.243-2.938-10.926-8.08-10.926-3.305 0-6.335 2.112-8.263 5.876-2.203 4.407-3.03 9.09-2.662 12.579.275.459.367 1.928 1.285 2.846zM201.209 312.158c5.968 0 10.742 1.928 14.139 5.784 3.489 3.856 5.234 8.539 5.234 14.139 0 5.601-1.745 10.375-5.234 14.231-3.397 3.856-8.079 5.693-14.139 5.693-5.968 0-10.742-1.837-14.231-5.693-3.397-3.856-5.142-8.63-5.142-14.231 0-5.6 1.745-10.283 5.142-14.139 3.489-3.856 8.171-5.784 14.231-5.784zm10.65 19.831c0-3.672-1.101-6.427-3.213-8.446-2.112-2.02-4.591-3.03-7.529-3.03-2.938 0-5.417 1.01-7.528 3.03-2.112 2.019-3.214 4.774-3.214 8.446 0 3.673 1.01 6.427 3.214 8.447 2.203 2.02 4.59 3.03 7.528 3.03 2.938 0 5.417-1.01 7.529-3.03 2.203-2.02 3.213-4.774 3.213-8.447zM230.679 334.284c2.846-1.101 5.876-2.57 8.998-4.59v-22.035c0-11.477 5.509-17.904 13.588-17.904 7.162 0 12.395 5.417 12.395 13.864 0 4.958-1.653 10.099-4.774 15.333-3.122 5.233-7.345 9.916-12.579 13.955.276 8.08 2.571 10.467 7.07 10.467 4.132 0 8.263-1.561 12.303-4.591l2.203 8.172c-4.774 3.213-10.007 4.866-15.608 4.866-8.814 0-13.221-4.591-14.323-13.68-2.111 1.101-4.315 2.111-6.61 2.846l-2.663-6.703zm17.628-11.66c5.968-6.059 9.549-12.854 9.549-18.271 0-3.948-1.928-6.518-4.315-6.518-3.489 0-5.234 3.489-5.234 10.558v14.231zM301.281 343.466c4.407 0 8.63-1.561 12.67-4.591l2.203 8.172c-4.774 3.213-10.283 4.866-16.434 4.866-5.417 0-10.191-1.745-14.139-5.142-3.948-3.489-5.968-8.355-5.968-14.69 0-5.968 1.744-10.742 5.325-14.415 3.672-3.764 8.447-5.6 14.415-5.6 10.65 0 16.251 6.427 16.251 15.883h-8.906c0-5.417-3.489-8.171-8.08-8.171-5.784 0-10.191 4.591-10.191 12.028.092 9.365 7.62 11.66 12.854 11.66zM366.107 350.719c-6.427 0-10.467-2.571-12.303-7.896-2.571 5.785-7.345 8.723-14.048 8.723-3.948 0-7.437-1.653-10.467-4.867-3.029-3.213-4.59-7.712-4.59-13.312 0-5.693 1.744-10.651 5.325-14.874 3.581-4.224 8.171-6.335 13.772-6.335 7.161 0 13.037 2.57 17.536 7.804v15.883c0 3.948 1.561 5.968 4.591 5.968v8.906h.184zm-15.333-28.095c-1.653-2.02-3.765-2.846-7.529-2.846-3.581 0-6.243 2.204-7.437 3.856-1.377 2.02-2.846 5.785-2.846 9.365 0 6.244 2.938 10.926 8.08 10.926 3.305 0 6.243-1.653 8.355-5.325 2.203-3.856 2.938-9.181 2.478-13.129-.183-.551-.275-1.837-1.101-2.847zM333.698 363.297c-.183.918-.734 2.204-1.561 3.03-.275-.183-.734-.643-1.193-.826.826-.643 1.377-1.745 1.469-2.571l1.285.367z" fill="#000"/><path d="M335.9 364.675v1.193c0 1.01-.735 1.377-2.204 1.377-.092-.275-.367-1.01-.643-1.469.276.092.643.184 1.01.184.368 0 .46-.092.46-.459v-3.214h-3.03v-1.377h3.03v-.826-.735l1.469.092c-.092.276-.092.367-.092.735v.734h2.846v1.377H335.9v2.388z" fill="#000"/><path d="M337.923 362.839c.275.826.918 1.928 1.469 2.57l-1.102.827c-.551-.827-1.194-2.02-1.469-2.847l1.102-.55zM337.738 359.625c0-.551.367-.918.918-.918s.918.367.918.918-.367.918-.918.918-.918-.367-.918-.918zm.459 0c0 .275.183.367.367.367.276 0 .367-.183.367-.367 0-.275-.183-.367-.367-.367s-.367.183-.367.367zM343.336 359.992l1.469.092v1.836c0 2.663-.642 3.765-2.02 5.05-.367-.275-.734-.643-1.193-1.01 1.377-.918 1.836-2.112 1.836-4.132 0-1.377 0-1.56-.092-1.836zm6.886 3.673c-.642.734-1.561 1.652-3.03 2.571-.091.091-.183.183-.275.183l-1.102-.918c.092-.092.092-.184.092-.275v-4.775-.734l1.469.092c0 .183-.092.275-.092.734v3.948c1.01-.643 1.928-1.561 2.387-2.295.092.642.368 1.193.551 1.469zM356.188 366.878c-.092-.367-.367-1.193-.551-1.469.275.092.826.184 1.193.184.643 0 .919-.735.919-3.306h-1.745c-.367 2.112-1.285 3.765-3.03 4.683-.275-.367-.734-.735-1.01-1.01 1.653-.826 2.479-2.112 2.755-3.673h-2.387v-1.285h2.479v-.918-.735l1.469.092v1.653h2.938c0 5.325-.368 5.784-3.03 5.784z" fill="#000"/></svg>